<mxfile host="app.diagrams.net" modified="2023-09-23T01:07:31.275Z" agent="Mozilla/5.0 (Windows NT 10.0; Win64; x64) AppleWebKit/537.36 (KHTML, like Gecko) Chrome/117.0.0.0 Safari/537.36" etag="KsFYpUj1OfpkJ5tu-5Mr" version="21.6.9" type="github" pages="4">
  <diagram name="Modelo As Is" id="2a216829-ef6e-dabb-86c1-c78162f3ba2b">
    <mxGraphModel dx="954" dy="602" grid="1" gridSize="10" guides="1" tooltips="1" connect="1" arrows="1" fold="1" page="1" pageScale="1" pageWidth="850" pageHeight="1100" background="none" math="0" shadow="0">
      <root>
        <mxCell id="0" />
        <mxCell id="1" parent="0" />
        <mxCell id="GtaRKO1UWOcPHmd-lrbg-1" value="Comprador" style="swimlane;html=1;startSize=20;fontStyle=0;collapsible=0;horizontal=0;swimlaneLine=1;swimlaneFillColor=#ffffff;strokeWidth=2;whiteSpace=wrap;" parent="1" vertex="1">
          <mxGeometry x="40" y="360" width="1120" height="120" as="geometry" />
        </mxCell>
        <mxCell id="GtaRKO1UWOcPHmd-lrbg-5" value="" style="points=[[0.145,0.145,0],[0.5,0,0],[0.855,0.145,0],[1,0.5,0],[0.855,0.855,0],[0.5,1,0],[0.145,0.855,0],[0,0.5,0]];shape=mxgraph.bpmn.event;html=1;verticalLabelPosition=bottom;labelBackgroundColor=#ffffff;verticalAlign=top;align=center;perimeter=ellipsePerimeter;outlineConnect=0;aspect=fixed;outline=standard;symbol=general;fillColor=#d5e8d4;strokeColor=#82b366;" parent="GtaRKO1UWOcPHmd-lrbg-1" vertex="1">
          <mxGeometry x="50" y="47.5" width="25" height="25" as="geometry" />
        </mxCell>
        <mxCell id="GtaRKO1UWOcPHmd-lrbg-27" style="edgeStyle=orthogonalEdgeStyle;rounded=0;orthogonalLoop=1;jettySize=auto;html=1;entryX=0;entryY=0.5;entryDx=0;entryDy=0;entryPerimeter=0;" parent="GtaRKO1UWOcPHmd-lrbg-1" source="GtaRKO1UWOcPHmd-lrbg-6" target="GtaRKO1UWOcPHmd-lrbg-26" edge="1">
          <mxGeometry relative="1" as="geometry" />
        </mxCell>
        <mxCell id="GtaRKO1UWOcPHmd-lrbg-6" value="Contata o vendedor" style="points=[[0.25,0,0],[0.5,0,0],[0.75,0,0],[1,0.25,0],[1,0.5,0],[1,0.75,0],[0.75,1,0],[0.5,1,0],[0.25,1,0],[0,0.75,0],[0,0.5,0],[0,0.25,0]];shape=mxgraph.bpmn.task;whiteSpace=wrap;rectStyle=rounded;size=10;html=1;container=1;expand=0;collapsible=0;taskMarker=abstract;fillColor=#dae8fc;strokeColor=#6c8ebf;" parent="GtaRKO1UWOcPHmd-lrbg-1" vertex="1">
          <mxGeometry x="140" y="37.5" width="110" height="45" as="geometry" />
        </mxCell>
        <mxCell id="GtaRKO1UWOcPHmd-lrbg-7" value="" style="edgeStyle=elbowEdgeStyle;fontSize=12;html=1;endArrow=blockThin;endFill=1;rounded=0;exitX=1;exitY=0.5;exitDx=0;exitDy=0;exitPerimeter=0;entryX=0;entryY=0.5;entryDx=0;entryDy=0;entryPerimeter=0;" parent="GtaRKO1UWOcPHmd-lrbg-1" source="GtaRKO1UWOcPHmd-lrbg-5" target="GtaRKO1UWOcPHmd-lrbg-6" edge="1">
          <mxGeometry width="160" relative="1" as="geometry">
            <mxPoint x="110" y="260" as="sourcePoint" />
            <mxPoint x="270" y="260" as="targetPoint" />
          </mxGeometry>
        </mxCell>
        <mxCell id="GtaRKO1UWOcPHmd-lrbg-31" style="edgeStyle=orthogonalEdgeStyle;rounded=0;orthogonalLoop=1;jettySize=auto;html=1;entryX=0;entryY=0.5;entryDx=0;entryDy=0;entryPerimeter=0;" parent="GtaRKO1UWOcPHmd-lrbg-1" source="GtaRKO1UWOcPHmd-lrbg-26" target="GtaRKO1UWOcPHmd-lrbg-30" edge="1">
          <mxGeometry relative="1" as="geometry" />
        </mxCell>
        <mxCell id="GtaRKO1UWOcPHmd-lrbg-48" value="Sim" style="edgeLabel;html=1;align=center;verticalAlign=middle;resizable=0;points=[];" parent="GtaRKO1UWOcPHmd-lrbg-31" vertex="1" connectable="0">
          <mxGeometry x="0.0712" relative="1" as="geometry">
            <mxPoint as="offset" />
          </mxGeometry>
        </mxCell>
        <mxCell id="GtaRKO1UWOcPHmd-lrbg-77" style="edgeStyle=orthogonalEdgeStyle;rounded=0;orthogonalLoop=1;jettySize=auto;html=1;entryX=0.5;entryY=0;entryDx=0;entryDy=0;entryPerimeter=0;" parent="GtaRKO1UWOcPHmd-lrbg-1" source="GtaRKO1UWOcPHmd-lrbg-26" target="GtaRKO1UWOcPHmd-lrbg-54" edge="1">
          <mxGeometry relative="1" as="geometry">
            <Array as="points">
              <mxPoint x="335" y="10" />
              <mxPoint x="1038" y="10" />
            </Array>
          </mxGeometry>
        </mxCell>
        <mxCell id="GtaRKO1UWOcPHmd-lrbg-78" value="Não" style="edgeLabel;html=1;align=center;verticalAlign=middle;resizable=0;points=[];" parent="GtaRKO1UWOcPHmd-lrbg-77" vertex="1" connectable="0">
          <mxGeometry x="-0.959" y="1" relative="1" as="geometry">
            <mxPoint as="offset" />
          </mxGeometry>
        </mxCell>
        <mxCell id="GtaRKO1UWOcPHmd-lrbg-26" value="Decide comprar ?" style="points=[[0.25,0.25,0],[0.5,0,0],[0.75,0.25,0],[1,0.5,0],[0.75,0.75,0],[0.5,1,0],[0.25,0.75,0],[0,0.5,0]];shape=mxgraph.bpmn.gateway2;html=1;verticalLabelPosition=bottom;labelBackgroundColor=#ffffff;verticalAlign=top;align=center;perimeter=rhombusPerimeter;outlineConnect=0;outline=none;symbol=none;fillColor=#fff2cc;strokeColor=#d6b656;" parent="GtaRKO1UWOcPHmd-lrbg-1" vertex="1">
          <mxGeometry x="320" y="43.75" width="30" height="32.5" as="geometry" />
        </mxCell>
        <mxCell id="GtaRKO1UWOcPHmd-lrbg-47" style="edgeStyle=orthogonalEdgeStyle;rounded=0;orthogonalLoop=1;jettySize=auto;html=1;entryX=0;entryY=0.5;entryDx=0;entryDy=0;entryPerimeter=0;" parent="GtaRKO1UWOcPHmd-lrbg-1" source="GtaRKO1UWOcPHmd-lrbg-30" target="GtaRKO1UWOcPHmd-lrbg-46" edge="1">
          <mxGeometry relative="1" as="geometry" />
        </mxCell>
        <mxCell id="GtaRKO1UWOcPHmd-lrbg-30" value="Envia pagamento" style="points=[[0.25,0,0],[0.5,0,0],[0.75,0,0],[1,0.25,0],[1,0.5,0],[1,0.75,0],[0.75,1,0],[0.5,1,0],[0.25,1,0],[0,0.75,0],[0,0.5,0],[0,0.25,0]];shape=mxgraph.bpmn.task;whiteSpace=wrap;rectStyle=rounded;size=10;html=1;container=1;expand=0;collapsible=0;taskMarker=abstract;fillColor=#dae8fc;strokeColor=#6c8ebf;" parent="GtaRKO1UWOcPHmd-lrbg-1" vertex="1">
          <mxGeometry x="410" y="35" width="90" height="50" as="geometry" />
        </mxCell>
        <mxCell id="GtaRKO1UWOcPHmd-lrbg-53" style="edgeStyle=orthogonalEdgeStyle;rounded=0;orthogonalLoop=1;jettySize=auto;html=1;entryX=0;entryY=0.5;entryDx=0;entryDy=0;entryPerimeter=0;" parent="GtaRKO1UWOcPHmd-lrbg-1" source="GtaRKO1UWOcPHmd-lrbg-45" target="GtaRKO1UWOcPHmd-lrbg-52" edge="1">
          <mxGeometry relative="1" as="geometry" />
        </mxCell>
        <mxCell id="GtaRKO1UWOcPHmd-lrbg-45" value="Recebe produto" style="points=[[0.25,0,0],[0.5,0,0],[0.75,0,0],[1,0.25,0],[1,0.5,0],[1,0.75,0],[0.75,1,0],[0.5,1,0],[0.25,1,0],[0,0.75,0],[0,0.5,0],[0,0.25,0]];shape=mxgraph.bpmn.task;whiteSpace=wrap;rectStyle=rounded;size=10;html=1;container=1;expand=0;collapsible=0;taskMarker=abstract;fillColor=#dae8fc;strokeColor=#6c8ebf;" parent="GtaRKO1UWOcPHmd-lrbg-1" vertex="1">
          <mxGeometry x="680" y="35" width="90" height="50" as="geometry" />
        </mxCell>
        <mxCell id="GtaRKO1UWOcPHmd-lrbg-49" style="edgeStyle=orthogonalEdgeStyle;rounded=0;orthogonalLoop=1;jettySize=auto;html=1;exitX=1;exitY=0.5;exitDx=0;exitDy=0;exitPerimeter=0;" parent="GtaRKO1UWOcPHmd-lrbg-1" source="GtaRKO1UWOcPHmd-lrbg-46" target="GtaRKO1UWOcPHmd-lrbg-45" edge="1">
          <mxGeometry relative="1" as="geometry" />
        </mxCell>
        <mxCell id="GtaRKO1UWOcPHmd-lrbg-46" value="Aguarda entrega &lt;br&gt;por tempo indeterminado" style="points=[[0.145,0.145,0],[0.5,0,0],[0.855,0.145,0],[1,0.5,0],[0.855,0.855,0],[0.5,1,0],[0.145,0.855,0],[0,0.5,0]];shape=mxgraph.bpmn.event;html=1;verticalLabelPosition=bottom;labelBackgroundColor=#ffffff;verticalAlign=top;align=center;perimeter=ellipsePerimeter;outlineConnect=0;aspect=fixed;outline=throwing;symbol=general;fillColor=#fff2cc;strokeColor=#d6b656;" parent="GtaRKO1UWOcPHmd-lrbg-1" vertex="1">
          <mxGeometry x="570" y="43.75" width="32.5" height="32.5" as="geometry" />
        </mxCell>
        <mxCell id="GtaRKO1UWOcPHmd-lrbg-55" style="edgeStyle=orthogonalEdgeStyle;rounded=0;orthogonalLoop=1;jettySize=auto;html=1;" parent="GtaRKO1UWOcPHmd-lrbg-1" source="GtaRKO1UWOcPHmd-lrbg-52" target="GtaRKO1UWOcPHmd-lrbg-54" edge="1">
          <mxGeometry relative="1" as="geometry" />
        </mxCell>
        <mxCell id="GtaRKO1UWOcPHmd-lrbg-52" value="Confirma entrega" style="points=[[0.25,0,0],[0.5,0,0],[0.75,0,0],[1,0.25,0],[1,0.5,0],[1,0.75,0],[0.75,1,0],[0.5,1,0],[0.25,1,0],[0,0.75,0],[0,0.5,0],[0,0.25,0]];shape=mxgraph.bpmn.task;whiteSpace=wrap;rectStyle=rounded;size=10;html=1;container=1;expand=0;collapsible=0;taskMarker=abstract;fillColor=#dae8fc;strokeColor=#6c8ebf;" parent="GtaRKO1UWOcPHmd-lrbg-1" vertex="1">
          <mxGeometry x="840" y="35" width="100" height="50" as="geometry" />
        </mxCell>
        <mxCell id="GtaRKO1UWOcPHmd-lrbg-54" value="Negociação finalizada" style="points=[[0.145,0.145,0],[0.5,0,0],[0.855,0.145,0],[1,0.5,0],[0.855,0.855,0],[0.5,1,0],[0.145,0.855,0],[0,0.5,0]];shape=mxgraph.bpmn.event;html=1;verticalLabelPosition=bottom;labelBackgroundColor=#ffffff;verticalAlign=top;align=center;perimeter=ellipsePerimeter;outlineConnect=0;aspect=fixed;outline=end;symbol=terminate2;fillColor=#f8cecc;strokeColor=#b85450;" parent="GtaRKO1UWOcPHmd-lrbg-1" vertex="1">
          <mxGeometry x="1020" y="42.5" width="35" height="35" as="geometry" />
        </mxCell>
        <mxCell id="GtaRKO1UWOcPHmd-lrbg-2" value="Vendedor" style="swimlane;html=1;startSize=20;fontStyle=0;collapsible=0;horizontal=0;swimlaneLine=1;swimlaneFillColor=#ffffff;strokeWidth=2;whiteSpace=wrap;" parent="1" vertex="1">
          <mxGeometry x="40" y="520" width="1120" height="120" as="geometry" />
        </mxCell>
        <mxCell id="GtaRKO1UWOcPHmd-lrbg-37" style="edgeStyle=orthogonalEdgeStyle;rounded=0;orthogonalLoop=1;jettySize=auto;html=1;" parent="GtaRKO1UWOcPHmd-lrbg-2" source="GtaRKO1UWOcPHmd-lrbg-8" target="GtaRKO1UWOcPHmd-lrbg-32" edge="1">
          <mxGeometry relative="1" as="geometry" />
        </mxCell>
        <mxCell id="GtaRKO1UWOcPHmd-lrbg-8" value="Informa as condições do produto e custos" style="points=[[0.25,0,0],[0.5,0,0],[0.75,0,0],[1,0.25,0],[1,0.5,0],[1,0.75,0],[0.75,1,0],[0.5,1,0],[0.25,1,0],[0,0.75,0],[0,0.5,0],[0,0.25,0]];shape=mxgraph.bpmn.task;whiteSpace=wrap;rectStyle=rounded;size=10;html=1;container=1;expand=0;collapsible=0;taskMarker=abstract;fillColor=#dae8fc;strokeColor=#6c8ebf;" parent="GtaRKO1UWOcPHmd-lrbg-2" vertex="1">
          <mxGeometry x="190" y="35" width="97.5" height="50" as="geometry" />
        </mxCell>
        <mxCell id="GtaRKO1UWOcPHmd-lrbg-17" value="" style="points=[[0.145,0.145,0],[0.5,0,0],[0.855,0.145,0],[1,0.5,0],[0.855,0.855,0],[0.5,1,0],[0.145,0.855,0],[0,0.5,0]];shape=mxgraph.bpmn.event;html=1;verticalLabelPosition=bottom;labelBackgroundColor=#ffffff;verticalAlign=top;align=center;perimeter=ellipsePerimeter;outlineConnect=0;aspect=fixed;outline=standard;symbol=message;fillColor=#d5e8d4;strokeColor=#82b366;" parent="GtaRKO1UWOcPHmd-lrbg-2" vertex="1">
          <mxGeometry x="60" y="42.5" width="35" height="35" as="geometry" />
        </mxCell>
        <mxCell id="GtaRKO1UWOcPHmd-lrbg-21" value="" style="edgeStyle=elbowEdgeStyle;fontSize=12;html=1;endArrow=blockThin;endFill=1;rounded=0;exitX=1;exitY=0.5;exitDx=0;exitDy=0;exitPerimeter=0;entryX=0;entryY=0.5;entryDx=0;entryDy=0;entryPerimeter=0;" parent="GtaRKO1UWOcPHmd-lrbg-2" source="GtaRKO1UWOcPHmd-lrbg-17" target="GtaRKO1UWOcPHmd-lrbg-8" edge="1">
          <mxGeometry width="160" relative="1" as="geometry">
            <mxPoint x="110" y="100" as="sourcePoint" />
            <mxPoint x="270" y="100" as="targetPoint" />
          </mxGeometry>
        </mxCell>
        <mxCell id="GtaRKO1UWOcPHmd-lrbg-58" style="edgeStyle=orthogonalEdgeStyle;rounded=0;orthogonalLoop=1;jettySize=auto;html=1;" parent="GtaRKO1UWOcPHmd-lrbg-2" source="GtaRKO1UWOcPHmd-lrbg-32" target="GtaRKO1UWOcPHmd-lrbg-57" edge="1">
          <mxGeometry relative="1" as="geometry" />
        </mxCell>
        <mxCell id="GtaRKO1UWOcPHmd-lrbg-32" value="Posta produto pra envio" style="points=[[0.25,0,0],[0.5,0,0],[0.75,0,0],[1,0.25,0],[1,0.5,0],[1,0.75,0],[0.75,1,0],[0.5,1,0],[0.25,1,0],[0,0.75,0],[0,0.5,0],[0,0.25,0]];shape=mxgraph.bpmn.task;whiteSpace=wrap;rectStyle=rounded;size=10;html=1;container=1;expand=0;collapsible=0;taskMarker=abstract;fillColor=#dae8fc;strokeColor=#6c8ebf;" parent="GtaRKO1UWOcPHmd-lrbg-2" vertex="1">
          <mxGeometry x="400" y="35" width="90" height="50" as="geometry" />
        </mxCell>
        <mxCell id="GtaRKO1UWOcPHmd-lrbg-73" style="edgeStyle=orthogonalEdgeStyle;rounded=0;orthogonalLoop=1;jettySize=auto;html=1;entryX=0;entryY=0.5;entryDx=0;entryDy=0;entryPerimeter=0;" parent="GtaRKO1UWOcPHmd-lrbg-2" source="GtaRKO1UWOcPHmd-lrbg-57" target="GtaRKO1UWOcPHmd-lrbg-69" edge="1">
          <mxGeometry relative="1" as="geometry" />
        </mxCell>
        <mxCell id="GtaRKO1UWOcPHmd-lrbg-57" value="Aguarda confirmação" style="points=[[0.145,0.145,0],[0.5,0,0],[0.855,0.145,0],[1,0.5,0],[0.855,0.855,0],[0.5,1,0],[0.145,0.855,0],[0,0.5,0]];shape=mxgraph.bpmn.event;html=1;verticalLabelPosition=bottom;labelBackgroundColor=#ffffff;verticalAlign=top;align=center;perimeter=ellipsePerimeter;outlineConnect=0;aspect=fixed;outline=throwing;symbol=general;fillColor=#fff2cc;strokeColor=#d6b656;" parent="GtaRKO1UWOcPHmd-lrbg-2" vertex="1">
          <mxGeometry x="860" y="42.5" width="35" height="35" as="geometry" />
        </mxCell>
        <mxCell id="GtaRKO1UWOcPHmd-lrbg-69" value="Negociação finalizada" style="points=[[0.145,0.145,0],[0.5,0,0],[0.855,0.145,0],[1,0.5,0],[0.855,0.855,0],[0.5,1,0],[0.145,0.855,0],[0,0.5,0]];shape=mxgraph.bpmn.event;html=1;verticalLabelPosition=bottom;labelBackgroundColor=#ffffff;verticalAlign=top;align=center;perimeter=ellipsePerimeter;outlineConnect=0;aspect=fixed;outline=end;symbol=terminate2;fillColor=#f8cecc;strokeColor=#b85450;" parent="GtaRKO1UWOcPHmd-lrbg-2" vertex="1">
          <mxGeometry x="1020" y="42.5" width="35" height="35" as="geometry" />
        </mxCell>
        <mxCell id="GtaRKO1UWOcPHmd-lrbg-4" value="Transportadora" style="swimlane;html=1;startSize=20;fontStyle=0;collapsible=0;horizontal=0;swimlaneLine=1;swimlaneFillColor=#ffffff;strokeWidth=2;whiteSpace=wrap;" parent="1" vertex="1">
          <mxGeometry x="40" y="680" width="1120" height="120" as="geometry" />
        </mxCell>
        <mxCell id="GtaRKO1UWOcPHmd-lrbg-76" style="edgeStyle=orthogonalEdgeStyle;rounded=0;orthogonalLoop=1;jettySize=auto;html=1;" parent="GtaRKO1UWOcPHmd-lrbg-4" source="GtaRKO1UWOcPHmd-lrbg-34" target="GtaRKO1UWOcPHmd-lrbg-71" edge="1">
          <mxGeometry relative="1" as="geometry" />
        </mxCell>
        <mxCell id="GtaRKO1UWOcPHmd-lrbg-34" value="Finaliza entrega" style="points=[[0.25,0,0],[0.5,0,0],[0.75,0,0],[1,0.25,0],[1,0.5,0],[1,0.75,0],[0.75,1,0],[0.5,1,0],[0.25,1,0],[0,0.75,0],[0,0.5,0],[0,0.25,0]];shape=mxgraph.bpmn.task;whiteSpace=wrap;rectStyle=rounded;size=10;html=1;container=1;expand=0;collapsible=0;taskMarker=abstract;fillColor=#dae8fc;strokeColor=#6c8ebf;" parent="GtaRKO1UWOcPHmd-lrbg-4" vertex="1">
          <mxGeometry x="640" y="40" width="90" height="50" as="geometry" />
        </mxCell>
        <mxCell id="GtaRKO1UWOcPHmd-lrbg-63" style="edgeStyle=orthogonalEdgeStyle;rounded=0;orthogonalLoop=1;jettySize=auto;html=1;entryX=0;entryY=0.5;entryDx=0;entryDy=0;entryPerimeter=0;" parent="GtaRKO1UWOcPHmd-lrbg-4" source="GtaRKO1UWOcPHmd-lrbg-35" target="GtaRKO1UWOcPHmd-lrbg-61" edge="1">
          <mxGeometry relative="1" as="geometry" />
        </mxCell>
        <mxCell id="GtaRKO1UWOcPHmd-lrbg-35" value="" style="points=[[0.145,0.145,0],[0.5,0,0],[0.855,0.145,0],[1,0.5,0],[0.855,0.855,0],[0.5,1,0],[0.145,0.855,0],[0,0.5,0]];shape=mxgraph.bpmn.event;html=1;verticalLabelPosition=bottom;labelBackgroundColor=#ffffff;verticalAlign=top;align=center;perimeter=ellipsePerimeter;outlineConnect=0;aspect=fixed;outline=standard;symbol=message;fillColor=#d5e8d4;strokeColor=#82b366;" parent="GtaRKO1UWOcPHmd-lrbg-4" vertex="1">
          <mxGeometry x="310" y="50" width="30" height="30" as="geometry" />
        </mxCell>
        <mxCell id="GtaRKO1UWOcPHmd-lrbg-62" style="edgeStyle=orthogonalEdgeStyle;rounded=0;orthogonalLoop=1;jettySize=auto;html=1;entryX=0;entryY=0.5;entryDx=0;entryDy=0;entryPerimeter=0;" parent="GtaRKO1UWOcPHmd-lrbg-4" source="GtaRKO1UWOcPHmd-lrbg-61" target="GtaRKO1UWOcPHmd-lrbg-34" edge="1">
          <mxGeometry relative="1" as="geometry" />
        </mxCell>
        <mxCell id="GtaRKO1UWOcPHmd-lrbg-61" value="Transporta produto" style="points=[[0.25,0,0],[0.5,0,0],[0.75,0,0],[1,0.25,0],[1,0.5,0],[1,0.75,0],[0.75,1,0],[0.5,1,0],[0.25,1,0],[0,0.75,0],[0,0.5,0],[0,0.25,0]];shape=mxgraph.bpmn.task;whiteSpace=wrap;rectStyle=rounded;size=10;html=1;container=1;expand=0;collapsible=0;taskMarker=abstract;fillColor=#dae8fc;strokeColor=#6c8ebf;" parent="GtaRKO1UWOcPHmd-lrbg-4" vertex="1">
          <mxGeometry x="440" y="40" width="70" height="50" as="geometry" />
        </mxCell>
        <mxCell id="GtaRKO1UWOcPHmd-lrbg-71" value="Negociação finalizada" style="points=[[0.145,0.145,0],[0.5,0,0],[0.855,0.145,0],[1,0.5,0],[0.855,0.855,0],[0.5,1,0],[0.145,0.855,0],[0,0.5,0]];shape=mxgraph.bpmn.event;html=1;verticalLabelPosition=bottom;labelBackgroundColor=#ffffff;verticalAlign=top;align=center;perimeter=ellipsePerimeter;outlineConnect=0;aspect=fixed;outline=end;symbol=terminate2;fillColor=#f8cecc;strokeColor=#b85450;" parent="GtaRKO1UWOcPHmd-lrbg-4" vertex="1">
          <mxGeometry x="1020" y="47.5" width="35" height="35" as="geometry" />
        </mxCell>
        <mxCell id="GtaRKO1UWOcPHmd-lrbg-19" value="" style="edgeStyle=elbowEdgeStyle;fontSize=12;html=1;endFill=0;startFill=0;endSize=6;startSize=6;dashed=1;dashPattern=1 4;endArrow=openThin;startArrow=none;rounded=0;exitX=0.25;exitY=1;exitDx=0;exitDy=0;exitPerimeter=0;entryX=0.855;entryY=0.145;entryDx=0;entryDy=0;entryPerimeter=0;" parent="1" source="GtaRKO1UWOcPHmd-lrbg-6" target="GtaRKO1UWOcPHmd-lrbg-17" edge="1">
          <mxGeometry width="160" relative="1" as="geometry">
            <mxPoint x="150" y="620" as="sourcePoint" />
            <mxPoint x="310" y="620" as="targetPoint" />
          </mxGeometry>
        </mxCell>
        <mxCell id="GtaRKO1UWOcPHmd-lrbg-22" value="Solicita informações do produto" style="edgeLabel;html=1;align=center;verticalAlign=middle;resizable=0;points=[];" parent="GtaRKO1UWOcPHmd-lrbg-19" vertex="1" connectable="0">
          <mxGeometry x="-0.0965" relative="1" as="geometry">
            <mxPoint x="-9" y="4" as="offset" />
          </mxGeometry>
        </mxCell>
        <mxCell id="GtaRKO1UWOcPHmd-lrbg-23" value="" style="edgeStyle=elbowEdgeStyle;fontSize=12;html=1;endFill=0;startFill=0;endSize=6;startSize=6;dashed=1;dashPattern=1 4;endArrow=openThin;startArrow=none;rounded=0;entryX=0.89;entryY=1.028;entryDx=0;entryDy=0;entryPerimeter=0;exitX=0.5;exitY=0;exitDx=0;exitDy=0;exitPerimeter=0;elbow=vertical;" parent="1" source="GtaRKO1UWOcPHmd-lrbg-8" target="GtaRKO1UWOcPHmd-lrbg-6" edge="1">
          <mxGeometry width="160" relative="1" as="geometry">
            <mxPoint x="150" y="620" as="sourcePoint" />
            <mxPoint x="310" y="620" as="targetPoint" />
          </mxGeometry>
        </mxCell>
        <mxCell id="GtaRKO1UWOcPHmd-lrbg-24" value="Envia as informações" style="edgeLabel;html=1;align=center;verticalAlign=middle;resizable=0;points=[];" parent="GtaRKO1UWOcPHmd-lrbg-23" vertex="1" connectable="0">
          <mxGeometry x="-0.1842" y="-1" relative="1" as="geometry">
            <mxPoint x="30" y="-9" as="offset" />
          </mxGeometry>
        </mxCell>
        <mxCell id="GtaRKO1UWOcPHmd-lrbg-33" value="" style="edgeStyle=elbowEdgeStyle;fontSize=12;html=1;endFill=0;startFill=0;endSize=6;startSize=6;dashed=1;dashPattern=1 4;endArrow=openThin;startArrow=none;rounded=0;exitX=0.5;exitY=1;exitDx=0;exitDy=0;exitPerimeter=0;entryX=0.75;entryY=0;entryDx=0;entryDy=0;entryPerimeter=0;elbow=vertical;" parent="1" source="GtaRKO1UWOcPHmd-lrbg-30" target="GtaRKO1UWOcPHmd-lrbg-32" edge="1">
          <mxGeometry width="160" relative="1" as="geometry">
            <mxPoint x="400" y="620" as="sourcePoint" />
            <mxPoint x="560" y="620" as="targetPoint" />
          </mxGeometry>
        </mxCell>
        <mxCell id="GtaRKO1UWOcPHmd-lrbg-36" value="Informa pagamento" style="edgeLabel;html=1;align=center;verticalAlign=middle;resizable=0;points=[];" parent="GtaRKO1UWOcPHmd-lrbg-33" vertex="1" connectable="0">
          <mxGeometry x="-0.1516" y="-1" relative="1" as="geometry">
            <mxPoint x="1" y="7" as="offset" />
          </mxGeometry>
        </mxCell>
        <mxCell id="GtaRKO1UWOcPHmd-lrbg-38" value="" style="edgeStyle=elbowEdgeStyle;fontSize=12;html=1;endFill=0;startFill=0;endSize=6;startSize=6;dashed=1;dashPattern=1 4;endArrow=openThin;startArrow=none;rounded=0;exitX=0.5;exitY=1;exitDx=0;exitDy=0;exitPerimeter=0;entryX=0.5;entryY=0;entryDx=0;entryDy=0;entryPerimeter=0;" parent="1" source="GtaRKO1UWOcPHmd-lrbg-32" target="GtaRKO1UWOcPHmd-lrbg-35" edge="1">
          <mxGeometry width="160" relative="1" as="geometry">
            <mxPoint x="420" y="620" as="sourcePoint" />
            <mxPoint x="560" y="620" as="targetPoint" />
            <Array as="points">
              <mxPoint x="365" y="660" />
            </Array>
          </mxGeometry>
        </mxCell>
        <mxCell id="GtaRKO1UWOcPHmd-lrbg-39" value="Recebe pedido de envio" style="edgeLabel;html=1;align=center;verticalAlign=middle;resizable=0;points=[];" parent="GtaRKO1UWOcPHmd-lrbg-38" vertex="1" connectable="0">
          <mxGeometry x="0.4086" relative="1" as="geometry">
            <mxPoint as="offset" />
          </mxGeometry>
        </mxCell>
        <mxCell id="GtaRKO1UWOcPHmd-lrbg-50" value="" style="edgeStyle=elbowEdgeStyle;fontSize=12;html=1;endFill=0;startFill=0;endSize=6;startSize=6;dashed=1;dashPattern=1 4;endArrow=openThin;startArrow=none;rounded=0;entryX=0.422;entryY=1.08;entryDx=0;entryDy=0;entryPerimeter=0;exitX=0.5;exitY=0;exitDx=0;exitDy=0;exitPerimeter=0;" parent="1" source="GtaRKO1UWOcPHmd-lrbg-34" target="GtaRKO1UWOcPHmd-lrbg-45" edge="1">
          <mxGeometry width="160" relative="1" as="geometry">
            <mxPoint x="540" y="700" as="sourcePoint" />
            <mxPoint x="700" y="700" as="targetPoint" />
            <Array as="points">
              <mxPoint x="758" y="600" />
            </Array>
          </mxGeometry>
        </mxCell>
        <mxCell id="GtaRKO1UWOcPHmd-lrbg-65" value="Comunica destinatário" style="edgeLabel;html=1;align=center;verticalAlign=middle;resizable=0;points=[];" parent="GtaRKO1UWOcPHmd-lrbg-50" vertex="1" connectable="0">
          <mxGeometry x="-0.4079" y="-2" relative="1" as="geometry">
            <mxPoint as="offset" />
          </mxGeometry>
        </mxCell>
        <mxCell id="GtaRKO1UWOcPHmd-lrbg-72" value="" style="edgeStyle=elbowEdgeStyle;fontSize=12;html=1;endFill=0;startFill=0;endSize=6;startSize=6;dashed=1;dashPattern=1 4;endArrow=openThin;startArrow=none;rounded=0;exitX=0.5;exitY=1;exitDx=0;exitDy=0;exitPerimeter=0;entryX=0.855;entryY=0.145;entryDx=0;entryDy=0;entryPerimeter=0;" parent="1" source="GtaRKO1UWOcPHmd-lrbg-52" target="GtaRKO1UWOcPHmd-lrbg-57" edge="1">
          <mxGeometry width="160" relative="1" as="geometry">
            <mxPoint x="900" y="500" as="sourcePoint" />
            <mxPoint x="1060" y="500" as="targetPoint" />
          </mxGeometry>
        </mxCell>
        <mxCell id="GtaRKO1UWOcPHmd-lrbg-75" value="Comunica o vendedor" style="edgeLabel;html=1;align=center;verticalAlign=middle;resizable=0;points=[];" parent="GtaRKO1UWOcPHmd-lrbg-72" vertex="1" connectable="0">
          <mxGeometry x="-0.1194" y="2" relative="1" as="geometry">
            <mxPoint as="offset" />
          </mxGeometry>
        </mxCell>
      </root>
    </mxGraphModel>
  </diagram>
  <diagram id="TtS2lUMonDFSMliAg9Nu" name="Modelo To Be Processo Compra">
    <mxGraphModel dx="681" dy="430" grid="1" gridSize="10" guides="1" tooltips="1" connect="1" arrows="1" fold="1" page="1" pageScale="1" pageWidth="827" pageHeight="1169" math="0" shadow="0">
      <root>
        <mxCell id="0" />
        <mxCell id="1" parent="0" />
        <mxCell id="6v4QbtparM5iY0bVkObq-1" value="Sistema" style="swimlane;html=1;startSize=20;fontStyle=0;collapsible=0;horizontal=0;swimlaneLine=1;swimlaneFillColor=#ffffff;strokeWidth=2;whiteSpace=wrap;" parent="1" vertex="1">
          <mxGeometry x="40" y="360" width="1840" height="120" as="geometry" />
        </mxCell>
        <mxCell id="6v4QbtparM5iY0bVkObq-7" style="edgeStyle=orthogonalEdgeStyle;rounded=0;orthogonalLoop=1;jettySize=auto;html=1;" parent="6v4QbtparM5iY0bVkObq-1" source="6v4QbtparM5iY0bVkObq-5" target="6v4QbtparM5iY0bVkObq-6" edge="1">
          <mxGeometry relative="1" as="geometry" />
        </mxCell>
        <mxCell id="6v4QbtparM5iY0bVkObq-5" value="" style="points=[[0.145,0.145,0],[0.5,0,0],[0.855,0.145,0],[1,0.5,0],[0.855,0.855,0],[0.5,1,0],[0.145,0.855,0],[0,0.5,0]];shape=mxgraph.bpmn.event;html=1;verticalLabelPosition=bottom;labelBackgroundColor=#ffffff;verticalAlign=top;align=center;perimeter=ellipsePerimeter;outlineConnect=0;aspect=fixed;outline=standard;symbol=message;fillColor=#d5e8d4;strokeColor=#82b366;" parent="6v4QbtparM5iY0bVkObq-1" vertex="1">
          <mxGeometry x="50" y="42.5" width="35" height="35" as="geometry" />
        </mxCell>
        <mxCell id="6v4QbtparM5iY0bVkObq-12" style="edgeStyle=orthogonalEdgeStyle;rounded=0;orthogonalLoop=1;jettySize=auto;html=1;entryX=0;entryY=0.5;entryDx=0;entryDy=0;entryPerimeter=0;" parent="6v4QbtparM5iY0bVkObq-1" source="6v4QbtparM5iY0bVkObq-6" target="6v4QbtparM5iY0bVkObq-11" edge="1">
          <mxGeometry relative="1" as="geometry" />
        </mxCell>
        <mxCell id="6v4QbtparM5iY0bVkObq-6" value="Valida informações" style="points=[[0.25,0,0],[0.5,0,0],[0.75,0,0],[1,0.25,0],[1,0.5,0],[1,0.75,0],[0.75,1,0],[0.5,1,0],[0.25,1,0],[0,0.75,0],[0,0.5,0],[0,0.25,0]];shape=mxgraph.bpmn.task;whiteSpace=wrap;rectStyle=rounded;size=10;html=1;container=1;expand=0;collapsible=0;taskMarker=abstract;fillColor=#dae8fc;strokeColor=#6c8ebf;" parent="6v4QbtparM5iY0bVkObq-1" vertex="1">
          <mxGeometry x="120" y="35" width="97.5" height="50" as="geometry" />
        </mxCell>
        <mxCell id="6v4QbtparM5iY0bVkObq-11" value="" style="points=[[0.145,0.145,0],[0.5,0,0],[0.855,0.145,0],[1,0.5,0],[0.855,0.855,0],[0.5,1,0],[0.145,0.855,0],[0,0.5,0]];shape=mxgraph.bpmn.event;html=1;verticalLabelPosition=bottom;labelBackgroundColor=#ffffff;verticalAlign=top;align=center;perimeter=ellipsePerimeter;outlineConnect=0;aspect=fixed;outline=end;symbol=message;fillColor=#f8cecc;strokeColor=#b85450;" parent="6v4QbtparM5iY0bVkObq-1" vertex="1">
          <mxGeometry x="250" y="42.5" width="35" height="35" as="geometry" />
        </mxCell>
        <mxCell id="6v4QbtparM5iY0bVkObq-24" style="edgeStyle=orthogonalEdgeStyle;rounded=0;orthogonalLoop=1;jettySize=auto;html=1;entryX=0;entryY=0.5;entryDx=0;entryDy=0;entryPerimeter=0;" parent="6v4QbtparM5iY0bVkObq-1" source="6v4QbtparM5iY0bVkObq-21" target="6v4QbtparM5iY0bVkObq-22" edge="1">
          <mxGeometry relative="1" as="geometry" />
        </mxCell>
        <mxCell id="6v4QbtparM5iY0bVkObq-21" value="" style="points=[[0.145,0.145,0],[0.5,0,0],[0.855,0.145,0],[1,0.5,0],[0.855,0.855,0],[0.5,1,0],[0.145,0.855,0],[0,0.5,0]];shape=mxgraph.bpmn.event;html=1;verticalLabelPosition=bottom;labelBackgroundColor=#ffffff;verticalAlign=top;align=center;perimeter=ellipsePerimeter;outlineConnect=0;aspect=fixed;outline=standard;symbol=message;fillColor=#d5e8d4;strokeColor=#82b366;" parent="6v4QbtparM5iY0bVkObq-1" vertex="1">
          <mxGeometry x="320" y="42.5" width="35" height="35" as="geometry" />
        </mxCell>
        <mxCell id="6v4QbtparM5iY0bVkObq-25" style="edgeStyle=orthogonalEdgeStyle;rounded=0;orthogonalLoop=1;jettySize=auto;html=1;" parent="6v4QbtparM5iY0bVkObq-1" source="6v4QbtparM5iY0bVkObq-22" target="6v4QbtparM5iY0bVkObq-23" edge="1">
          <mxGeometry relative="1" as="geometry" />
        </mxCell>
        <mxCell id="6v4QbtparM5iY0bVkObq-22" value="Cadastra cliente" style="points=[[0.25,0,0],[0.5,0,0],[0.75,0,0],[1,0.25,0],[1,0.5,0],[1,0.75,0],[0.75,1,0],[0.5,1,0],[0.25,1,0],[0,0.75,0],[0,0.5,0],[0,0.25,0]];shape=mxgraph.bpmn.task;whiteSpace=wrap;rectStyle=rounded;size=10;html=1;container=1;expand=0;collapsible=0;taskMarker=abstract;fillColor=#dae8fc;strokeColor=#6c8ebf;" parent="6v4QbtparM5iY0bVkObq-1" vertex="1">
          <mxGeometry x="380" y="35" width="97.5" height="50" as="geometry" />
        </mxCell>
        <mxCell id="6v4QbtparM5iY0bVkObq-23" value="" style="points=[[0.145,0.145,0],[0.5,0,0],[0.855,0.145,0],[1,0.5,0],[0.855,0.855,0],[0.5,1,0],[0.145,0.855,0],[0,0.5,0]];shape=mxgraph.bpmn.event;html=1;verticalLabelPosition=bottom;labelBackgroundColor=#ffffff;verticalAlign=top;align=center;perimeter=ellipsePerimeter;outlineConnect=0;aspect=fixed;outline=end;symbol=message;fillColor=#f8cecc;strokeColor=#b85450;" parent="6v4QbtparM5iY0bVkObq-1" vertex="1">
          <mxGeometry x="510" y="42.5" width="35" height="35" as="geometry" />
        </mxCell>
        <mxCell id="UtqzANeySRt_dfxODMO5-15" value="" style="points=[[0.145,0.145,0],[0.5,0,0],[0.855,0.145,0],[1,0.5,0],[0.855,0.855,0],[0.5,1,0],[0.145,0.855,0],[0,0.5,0]];shape=mxgraph.bpmn.event;html=1;verticalLabelPosition=bottom;labelBackgroundColor=#ffffff;verticalAlign=top;align=center;perimeter=ellipsePerimeter;outlineConnect=0;aspect=fixed;outline=standard;symbol=message;fillColor=#d5e8d4;strokeColor=#82b366;" parent="6v4QbtparM5iY0bVkObq-1" vertex="1">
          <mxGeometry x="570" y="42.5" width="35" height="35" as="geometry" />
        </mxCell>
        <mxCell id="UtqzANeySRt_dfxODMO5-17" value="Envia informações dos produtos" style="points=[[0.25,0,0],[0.5,0,0],[0.75,0,0],[1,0.25,0],[1,0.5,0],[1,0.75,0],[0.75,1,0],[0.5,1,0],[0.25,1,0],[0,0.75,0],[0,0.5,0],[0,0.25,0]];shape=mxgraph.bpmn.task;whiteSpace=wrap;rectStyle=rounded;size=10;html=1;container=1;expand=0;collapsible=0;taskMarker=abstract;fillColor=#dae8fc;strokeColor=#6c8ebf;" parent="6v4QbtparM5iY0bVkObq-1" vertex="1">
          <mxGeometry x="630" y="35" width="97.5" height="50" as="geometry" />
        </mxCell>
        <mxCell id="UtqzANeySRt_dfxODMO5-14" style="edgeStyle=orthogonalEdgeStyle;rounded=0;orthogonalLoop=1;jettySize=auto;html=1;entryX=0;entryY=0.5;entryDx=0;entryDy=0;entryPerimeter=0;" parent="6v4QbtparM5iY0bVkObq-1" source="UtqzANeySRt_dfxODMO5-15" target="UtqzANeySRt_dfxODMO5-17" edge="1">
          <mxGeometry relative="1" as="geometry" />
        </mxCell>
        <mxCell id="UtqzANeySRt_dfxODMO5-18" value="" style="points=[[0.145,0.145,0],[0.5,0,0],[0.855,0.145,0],[1,0.5,0],[0.855,0.855,0],[0.5,1,0],[0.145,0.855,0],[0,0.5,0]];shape=mxgraph.bpmn.event;html=1;verticalLabelPosition=bottom;labelBackgroundColor=#ffffff;verticalAlign=top;align=center;perimeter=ellipsePerimeter;outlineConnect=0;aspect=fixed;outline=end;symbol=message;fillColor=#f8cecc;strokeColor=#b85450;" parent="6v4QbtparM5iY0bVkObq-1" vertex="1">
          <mxGeometry x="770" y="42.5" width="35" height="35" as="geometry" />
        </mxCell>
        <mxCell id="UtqzANeySRt_dfxODMO5-16" style="edgeStyle=orthogonalEdgeStyle;rounded=0;orthogonalLoop=1;jettySize=auto;html=1;" parent="6v4QbtparM5iY0bVkObq-1" source="UtqzANeySRt_dfxODMO5-17" target="UtqzANeySRt_dfxODMO5-18" edge="1">
          <mxGeometry relative="1" as="geometry" />
        </mxCell>
        <mxCell id="aicw6oGBLSSdAD0BwqQp-7" value="" style="points=[[0.145,0.145,0],[0.5,0,0],[0.855,0.145,0],[1,0.5,0],[0.855,0.855,0],[0.5,1,0],[0.145,0.855,0],[0,0.5,0]];shape=mxgraph.bpmn.event;html=1;verticalLabelPosition=bottom;labelBackgroundColor=#ffffff;verticalAlign=top;align=center;perimeter=ellipsePerimeter;outlineConnect=0;aspect=fixed;outline=standard;symbol=message;fillColor=#d5e8d4;strokeColor=#82b366;" parent="6v4QbtparM5iY0bVkObq-1" vertex="1">
          <mxGeometry x="830" y="40" width="35" height="35" as="geometry" />
        </mxCell>
        <mxCell id="aicw6oGBLSSdAD0BwqQp-8" value="Criar Carrinho" style="points=[[0.25,0,0],[0.5,0,0],[0.75,0,0],[1,0.25,0],[1,0.5,0],[1,0.75,0],[0.75,1,0],[0.5,1,0],[0.25,1,0],[0,0.75,0],[0,0.5,0],[0,0.25,0]];shape=mxgraph.bpmn.task;whiteSpace=wrap;rectStyle=rounded;size=10;html=1;container=1;expand=0;collapsible=0;taskMarker=abstract;fillColor=#dae8fc;strokeColor=#6c8ebf;" parent="6v4QbtparM5iY0bVkObq-1" vertex="1">
          <mxGeometry x="906.25" y="32.5" width="97.5" height="50" as="geometry" />
        </mxCell>
        <mxCell id="aicw6oGBLSSdAD0BwqQp-9" style="edgeStyle=orthogonalEdgeStyle;rounded=0;orthogonalLoop=1;jettySize=auto;html=1;entryX=0;entryY=0.5;entryDx=0;entryDy=0;entryPerimeter=0;" parent="6v4QbtparM5iY0bVkObq-1" source="aicw6oGBLSSdAD0BwqQp-7" target="aicw6oGBLSSdAD0BwqQp-8" edge="1">
          <mxGeometry relative="1" as="geometry" />
        </mxCell>
        <mxCell id="aicw6oGBLSSdAD0BwqQp-10" value="" style="points=[[0.145,0.145,0],[0.5,0,0],[0.855,0.145,0],[1,0.5,0],[0.855,0.855,0],[0.5,1,0],[0.145,0.855,0],[0,0.5,0]];shape=mxgraph.bpmn.event;html=1;verticalLabelPosition=bottom;labelBackgroundColor=#ffffff;verticalAlign=top;align=center;perimeter=ellipsePerimeter;outlineConnect=0;aspect=fixed;outline=end;symbol=message;fillColor=#f8cecc;strokeColor=#b85450;" parent="6v4QbtparM5iY0bVkObq-1" vertex="1">
          <mxGeometry x="1040" y="40" width="35" height="35" as="geometry" />
        </mxCell>
        <mxCell id="aicw6oGBLSSdAD0BwqQp-11" style="edgeStyle=orthogonalEdgeStyle;rounded=0;orthogonalLoop=1;jettySize=auto;html=1;" parent="6v4QbtparM5iY0bVkObq-1" source="aicw6oGBLSSdAD0BwqQp-8" target="aicw6oGBLSSdAD0BwqQp-10" edge="1">
          <mxGeometry relative="1" as="geometry" />
        </mxCell>
        <mxCell id="Xy7hcFJQotrJr0ZNXUhi-23" style="edgeStyle=orthogonalEdgeStyle;rounded=0;orthogonalLoop=1;jettySize=auto;html=1;entryX=0;entryY=0.5;entryDx=0;entryDy=0;entryPerimeter=0;" edge="1" parent="6v4QbtparM5iY0bVkObq-1" source="2lNFa7Bessl5lZM0Vw7c-3" target="2lNFa7Bessl5lZM0Vw7c-4">
          <mxGeometry relative="1" as="geometry" />
        </mxCell>
        <mxCell id="2lNFa7Bessl5lZM0Vw7c-3" value="" style="points=[[0.145,0.145,0],[0.5,0,0],[0.855,0.145,0],[1,0.5,0],[0.855,0.855,0],[0.5,1,0],[0.145,0.855,0],[0,0.5,0]];shape=mxgraph.bpmn.event;html=1;verticalLabelPosition=bottom;labelBackgroundColor=#ffffff;verticalAlign=top;align=center;perimeter=ellipsePerimeter;outlineConnect=0;aspect=fixed;outline=standard;symbol=message;fillColor=#d5e8d4;strokeColor=#82b366;" parent="6v4QbtparM5iY0bVkObq-1" vertex="1">
          <mxGeometry x="1100" y="42.5" width="35" height="35" as="geometry" />
        </mxCell>
        <mxCell id="2lNFa7Bessl5lZM0Vw7c-4" value="Salva endereço de entrega do pedido" style="points=[[0.25,0,0],[0.5,0,0],[0.75,0,0],[1,0.25,0],[1,0.5,0],[1,0.75,0],[0.75,1,0],[0.5,1,0],[0.25,1,0],[0,0.75,0],[0,0.5,0],[0,0.25,0]];shape=mxgraph.bpmn.task;whiteSpace=wrap;rectStyle=rounded;size=10;html=1;container=1;expand=0;collapsible=0;taskMarker=abstract;fillColor=#dae8fc;strokeColor=#6c8ebf;" parent="6v4QbtparM5iY0bVkObq-1" vertex="1">
          <mxGeometry x="1170" y="32.5" width="97.5" height="55" as="geometry" />
        </mxCell>
        <mxCell id="2lNFa7Bessl5lZM0Vw7c-6" value="" style="points=[[0.145,0.145,0],[0.5,0,0],[0.855,0.145,0],[1,0.5,0],[0.855,0.855,0],[0.5,1,0],[0.145,0.855,0],[0,0.5,0]];shape=mxgraph.bpmn.event;html=1;verticalLabelPosition=bottom;labelBackgroundColor=#ffffff;verticalAlign=top;align=center;perimeter=ellipsePerimeter;outlineConnect=0;aspect=fixed;outline=end;symbol=message;fillColor=#f8cecc;strokeColor=#b85450;" parent="6v4QbtparM5iY0bVkObq-1" vertex="1">
          <mxGeometry x="1300" y="42.5" width="35" height="35" as="geometry" />
        </mxCell>
        <mxCell id="2lNFa7Bessl5lZM0Vw7c-7" style="edgeStyle=orthogonalEdgeStyle;rounded=0;orthogonalLoop=1;jettySize=auto;html=1;" parent="6v4QbtparM5iY0bVkObq-1" source="2lNFa7Bessl5lZM0Vw7c-4" target="2lNFa7Bessl5lZM0Vw7c-6" edge="1">
          <mxGeometry relative="1" as="geometry" />
        </mxCell>
        <mxCell id="Xy7hcFJQotrJr0ZNXUhi-31" style="edgeStyle=orthogonalEdgeStyle;rounded=0;orthogonalLoop=1;jettySize=auto;html=1;entryX=0;entryY=0.5;entryDx=0;entryDy=0;entryPerimeter=0;" edge="1" parent="6v4QbtparM5iY0bVkObq-1" source="Xy7hcFJQotrJr0ZNXUhi-18" target="Xy7hcFJQotrJr0ZNXUhi-19">
          <mxGeometry relative="1" as="geometry" />
        </mxCell>
        <mxCell id="Xy7hcFJQotrJr0ZNXUhi-18" value="" style="points=[[0.145,0.145,0],[0.5,0,0],[0.855,0.145,0],[1,0.5,0],[0.855,0.855,0],[0.5,1,0],[0.145,0.855,0],[0,0.5,0]];shape=mxgraph.bpmn.event;html=1;verticalLabelPosition=bottom;labelBackgroundColor=#ffffff;verticalAlign=top;align=center;perimeter=ellipsePerimeter;outlineConnect=0;aspect=fixed;outline=standard;symbol=message;fillColor=#d5e8d4;strokeColor=#82b366;" vertex="1" parent="6v4QbtparM5iY0bVkObq-1">
          <mxGeometry x="1350" y="42.5" width="35" height="35" as="geometry" />
        </mxCell>
        <mxCell id="Xy7hcFJQotrJr0ZNXUhi-19" value="Confirma pagamento" style="points=[[0.25,0,0],[0.5,0,0],[0.75,0,0],[1,0.25,0],[1,0.5,0],[1,0.75,0],[0.75,1,0],[0.5,1,0],[0.25,1,0],[0,0.75,0],[0,0.5,0],[0,0.25,0]];shape=mxgraph.bpmn.task;whiteSpace=wrap;rectStyle=rounded;size=10;html=1;container=1;expand=0;collapsible=0;taskMarker=abstract;fillColor=#dae8fc;strokeColor=#6c8ebf;" vertex="1" parent="6v4QbtparM5iY0bVkObq-1">
          <mxGeometry x="1410" y="32.5" width="97.5" height="55" as="geometry" />
        </mxCell>
        <mxCell id="Xy7hcFJQotrJr0ZNXUhi-21" value="" style="points=[[0.145,0.145,0],[0.5,0,0],[0.855,0.145,0],[1,0.5,0],[0.855,0.855,0],[0.5,1,0],[0.145,0.855,0],[0,0.5,0]];shape=mxgraph.bpmn.event;html=1;verticalLabelPosition=bottom;labelBackgroundColor=#ffffff;verticalAlign=top;align=center;perimeter=ellipsePerimeter;outlineConnect=0;aspect=fixed;outline=end;symbol=message;fillColor=#f8cecc;strokeColor=#b85450;" vertex="1" parent="6v4QbtparM5iY0bVkObq-1">
          <mxGeometry x="1530" y="42.5" width="35" height="35" as="geometry" />
        </mxCell>
        <mxCell id="Xy7hcFJQotrJr0ZNXUhi-22" style="edgeStyle=orthogonalEdgeStyle;rounded=0;orthogonalLoop=1;jettySize=auto;html=1;" edge="1" parent="6v4QbtparM5iY0bVkObq-1" source="Xy7hcFJQotrJr0ZNXUhi-19" target="Xy7hcFJQotrJr0ZNXUhi-21">
          <mxGeometry relative="1" as="geometry" />
        </mxCell>
        <mxCell id="JdFecph_-sOHY-AlSeP7-6" value="" style="points=[[0.145,0.145,0],[0.5,0,0],[0.855,0.145,0],[1,0.5,0],[0.855,0.855,0],[0.5,1,0],[0.145,0.855,0],[0,0.5,0]];shape=mxgraph.bpmn.event;html=1;verticalLabelPosition=bottom;labelBackgroundColor=#ffffff;verticalAlign=top;align=center;perimeter=ellipsePerimeter;outlineConnect=0;aspect=fixed;outline=standard;symbol=message;fillColor=#d5e8d4;strokeColor=#82b366;" vertex="1" parent="6v4QbtparM5iY0bVkObq-1">
          <mxGeometry x="1590" y="42.5" width="35" height="35" as="geometry" />
        </mxCell>
        <mxCell id="JdFecph_-sOHY-AlSeP7-7" value="Registra a conclusão da compra" style="points=[[0.25,0,0],[0.5,0,0],[0.75,0,0],[1,0.25,0],[1,0.5,0],[1,0.75,0],[0.75,1,0],[0.5,1,0],[0.25,1,0],[0,0.75,0],[0,0.5,0],[0,0.25,0]];shape=mxgraph.bpmn.task;whiteSpace=wrap;rectStyle=rounded;size=10;html=1;container=1;expand=0;collapsible=0;taskMarker=abstract;fillColor=#dae8fc;strokeColor=#6c8ebf;" vertex="1" parent="6v4QbtparM5iY0bVkObq-1">
          <mxGeometry x="1650" y="32.5" width="97.5" height="55" as="geometry" />
        </mxCell>
        <mxCell id="JdFecph_-sOHY-AlSeP7-5" style="edgeStyle=orthogonalEdgeStyle;rounded=0;orthogonalLoop=1;jettySize=auto;html=1;entryX=0;entryY=0.5;entryDx=0;entryDy=0;entryPerimeter=0;" edge="1" parent="6v4QbtparM5iY0bVkObq-1" source="JdFecph_-sOHY-AlSeP7-6" target="JdFecph_-sOHY-AlSeP7-7">
          <mxGeometry relative="1" as="geometry" />
        </mxCell>
        <mxCell id="JdFecph_-sOHY-AlSeP7-8" value="" style="points=[[0.145,0.145,0],[0.5,0,0],[0.855,0.145,0],[1,0.5,0],[0.855,0.855,0],[0.5,1,0],[0.145,0.855,0],[0,0.5,0]];shape=mxgraph.bpmn.event;html=1;verticalLabelPosition=bottom;labelBackgroundColor=#ffffff;verticalAlign=top;align=center;perimeter=ellipsePerimeter;outlineConnect=0;aspect=fixed;outline=end;symbol=message;fillColor=#f8cecc;strokeColor=#b85450;" vertex="1" parent="6v4QbtparM5iY0bVkObq-1">
          <mxGeometry x="1770" y="42.5" width="35" height="35" as="geometry" />
        </mxCell>
        <mxCell id="JdFecph_-sOHY-AlSeP7-9" style="edgeStyle=orthogonalEdgeStyle;rounded=0;orthogonalLoop=1;jettySize=auto;html=1;" edge="1" parent="6v4QbtparM5iY0bVkObq-1" source="JdFecph_-sOHY-AlSeP7-7" target="JdFecph_-sOHY-AlSeP7-8">
          <mxGeometry relative="1" as="geometry" />
        </mxCell>
        <mxCell id="nxpTNE4xo8rTw0tVmjKs-1" value="Comprador" style="swimlane;html=1;startSize=20;fontStyle=0;collapsible=0;horizontal=0;swimlaneLine=1;swimlaneFillColor=#ffffff;strokeWidth=2;whiteSpace=wrap;" parent="1" vertex="1">
          <mxGeometry x="40" y="200" width="1840" height="120" as="geometry" />
        </mxCell>
        <mxCell id="6v4QbtparM5iY0bVkObq-31" style="edgeStyle=orthogonalEdgeStyle;rounded=0;orthogonalLoop=1;jettySize=auto;html=1;entryX=0;entryY=0.5;entryDx=0;entryDy=0;entryPerimeter=0;" parent="nxpTNE4xo8rTw0tVmjKs-1" source="6v4QbtparM5iY0bVkObq-2" target="6v4QbtparM5iY0bVkObq-30" edge="1">
          <mxGeometry relative="1" as="geometry" />
        </mxCell>
        <mxCell id="6v4QbtparM5iY0bVkObq-2" value="" style="points=[[0.145,0.145,0],[0.5,0,0],[0.855,0.145,0],[1,0.5,0],[0.855,0.855,0],[0.5,1,0],[0.145,0.855,0],[0,0.5,0]];shape=mxgraph.bpmn.event;html=1;verticalLabelPosition=bottom;labelBackgroundColor=#ffffff;verticalAlign=top;align=center;perimeter=ellipsePerimeter;outlineConnect=0;aspect=fixed;outline=standard;symbol=general;fillColor=#d5e8d4;strokeColor=#82b366;" parent="nxpTNE4xo8rTw0tVmjKs-1" vertex="1">
          <mxGeometry x="60" y="42.5" width="35" height="35" as="geometry" />
        </mxCell>
        <mxCell id="UtqzANeySRt_dfxODMO5-2" style="edgeStyle=orthogonalEdgeStyle;rounded=0;orthogonalLoop=1;jettySize=auto;html=1;entryX=0;entryY=0.5;entryDx=0;entryDy=0;entryPerimeter=0;" parent="nxpTNE4xo8rTw0tVmjKs-1" source="6v4QbtparM5iY0bVkObq-30" target="UtqzANeySRt_dfxODMO5-1" edge="1">
          <mxGeometry relative="1" as="geometry" />
        </mxCell>
        <mxCell id="6v4QbtparM5iY0bVkObq-30" value="Realiza login" style="points=[[0.25,0,0],[0.5,0,0],[0.75,0,0],[1,0.25,0],[1,0.5,0],[1,0.75,0],[0.75,1,0],[0.5,1,0],[0.25,1,0],[0,0.75,0],[0,0.5,0],[0,0.25,0]];shape=mxgraph.bpmn.task;whiteSpace=wrap;rectStyle=rounded;size=10;html=1;container=1;expand=0;collapsible=0;taskMarker=abstract;fillColor=#dae8fc;strokeColor=#6c8ebf;" parent="nxpTNE4xo8rTw0tVmjKs-1" vertex="1">
          <mxGeometry x="130" y="35" width="97.5" height="50" as="geometry" />
        </mxCell>
        <mxCell id="UtqzANeySRt_dfxODMO5-7" style="edgeStyle=orthogonalEdgeStyle;rounded=0;orthogonalLoop=1;jettySize=auto;html=1;exitX=1;exitY=0.5;exitDx=0;exitDy=0;exitPerimeter=0;entryX=0;entryY=0.5;entryDx=0;entryDy=0;entryPerimeter=0;" parent="nxpTNE4xo8rTw0tVmjKs-1" source="UtqzANeySRt_dfxODMO5-1" target="UtqzANeySRt_dfxODMO5-6" edge="1">
          <mxGeometry relative="1" as="geometry" />
        </mxCell>
        <mxCell id="UtqzANeySRt_dfxODMO5-8" value="Não" style="edgeLabel;html=1;align=center;verticalAlign=middle;resizable=0;points=[];" parent="UtqzANeySRt_dfxODMO5-7" vertex="1" connectable="0">
          <mxGeometry x="0.1667" y="2" relative="1" as="geometry">
            <mxPoint as="offset" />
          </mxGeometry>
        </mxCell>
        <mxCell id="UtqzANeySRt_dfxODMO5-21" style="edgeStyle=orthogonalEdgeStyle;rounded=0;orthogonalLoop=1;jettySize=auto;html=1;exitX=0.5;exitY=0;exitDx=0;exitDy=0;exitPerimeter=0;entryX=0.5;entryY=0;entryDx=0;entryDy=0;entryPerimeter=0;" parent="nxpTNE4xo8rTw0tVmjKs-1" source="UtqzANeySRt_dfxODMO5-1" target="UtqzANeySRt_dfxODMO5-13" edge="1">
          <mxGeometry relative="1" as="geometry">
            <Array as="points">
              <mxPoint x="285" y="20" />
              <mxPoint x="620" y="20" />
            </Array>
          </mxGeometry>
        </mxCell>
        <mxCell id="UtqzANeySRt_dfxODMO5-22" value="Sim" style="edgeLabel;html=1;align=center;verticalAlign=middle;resizable=0;points=[];" parent="UtqzANeySRt_dfxODMO5-21" vertex="1" connectable="0">
          <mxGeometry x="0.1206" y="2" relative="1" as="geometry">
            <mxPoint as="offset" />
          </mxGeometry>
        </mxCell>
        <mxCell id="UtqzANeySRt_dfxODMO5-1" value="Possui cadastro ?" style="points=[[0.25,0.25,0],[0.5,0,0],[0.75,0.25,0],[1,0.5,0],[0.75,0.75,0],[0.5,1,0],[0.25,0.75,0],[0,0.5,0]];shape=mxgraph.bpmn.gateway2;html=1;verticalLabelPosition=bottom;labelBackgroundColor=#ffffff;verticalAlign=top;align=center;perimeter=rhombusPerimeter;outlineConnect=0;outline=none;symbol=none;fillColor=#fff2cc;strokeColor=#d6b656;" parent="nxpTNE4xo8rTw0tVmjKs-1" vertex="1">
          <mxGeometry x="270" y="43.75" width="30" height="32.5" as="geometry" />
        </mxCell>
        <mxCell id="UtqzANeySRt_dfxODMO5-6" value="Envia cadastro" style="points=[[0.25,0,0],[0.5,0,0],[0.75,0,0],[1,0.25,0],[1,0.5,0],[1,0.75,0],[0.75,1,0],[0.5,1,0],[0.25,1,0],[0,0.75,0],[0,0.5,0],[0,0.25,0]];shape=mxgraph.bpmn.task;whiteSpace=wrap;rectStyle=rounded;size=10;html=1;container=1;expand=0;collapsible=0;taskMarker=abstract;fillColor=#dae8fc;strokeColor=#6c8ebf;" parent="nxpTNE4xo8rTw0tVmjKs-1" vertex="1">
          <mxGeometry x="370" y="35" width="97.5" height="50" as="geometry" />
        </mxCell>
        <mxCell id="aicw6oGBLSSdAD0BwqQp-4" value="" style="edgeStyle=orthogonalEdgeStyle;rounded=0;orthogonalLoop=1;jettySize=auto;html=1;entryX=0;entryY=0.5;entryDx=0;entryDy=0;entryPerimeter=0;" parent="nxpTNE4xo8rTw0tVmjKs-1" source="UtqzANeySRt_dfxODMO5-13" target="aicw6oGBLSSdAD0BwqQp-5" edge="1">
          <mxGeometry relative="1" as="geometry">
            <mxPoint x="710" y="60" as="targetPoint" />
          </mxGeometry>
        </mxCell>
        <mxCell id="UtqzANeySRt_dfxODMO5-13" value="Entra no catálogo" style="points=[[0.25,0,0],[0.5,0,0],[0.75,0,0],[1,0.25,0],[1,0.5,0],[1,0.75,0],[0.75,1,0],[0.5,1,0],[0.25,1,0],[0,0.75,0],[0,0.5,0],[0,0.25,0]];shape=mxgraph.bpmn.task;whiteSpace=wrap;rectStyle=rounded;size=10;html=1;container=1;expand=0;collapsible=0;taskMarker=abstract;fillColor=#dae8fc;strokeColor=#6c8ebf;" parent="nxpTNE4xo8rTw0tVmjKs-1" vertex="1">
          <mxGeometry x="570" y="40" width="100" height="40" as="geometry" />
        </mxCell>
        <mxCell id="UtqzANeySRt_dfxODMO5-12" style="edgeStyle=orthogonalEdgeStyle;rounded=0;orthogonalLoop=1;jettySize=auto;html=1;" parent="nxpTNE4xo8rTw0tVmjKs-1" source="UtqzANeySRt_dfxODMO5-6" target="UtqzANeySRt_dfxODMO5-13" edge="1">
          <mxGeometry relative="1" as="geometry">
            <mxPoint x="640" y="59.999999999999886" as="targetPoint" />
          </mxGeometry>
        </mxCell>
        <mxCell id="aicw6oGBLSSdAD0BwqQp-18" style="edgeStyle=orthogonalEdgeStyle;rounded=0;orthogonalLoop=1;jettySize=auto;html=1;entryX=0;entryY=0.5;entryDx=0;entryDy=0;entryPerimeter=0;" parent="nxpTNE4xo8rTw0tVmjKs-1" source="Xy7hcFJQotrJr0ZNXUhi-1" target="Xy7hcFJQotrJr0ZNXUhi-17" edge="1">
          <mxGeometry relative="1" as="geometry">
            <mxPoint x="1140" y="60" as="targetPoint" />
          </mxGeometry>
        </mxCell>
        <mxCell id="Xy7hcFJQotrJr0ZNXUhi-6" value="Não" style="edgeLabel;html=1;align=center;verticalAlign=middle;resizable=0;points=[];" vertex="1" connectable="0" parent="aicw6oGBLSSdAD0BwqQp-18">
          <mxGeometry x="-0.3324" y="3" relative="1" as="geometry">
            <mxPoint as="offset" />
          </mxGeometry>
        </mxCell>
        <mxCell id="aicw6oGBLSSdAD0BwqQp-5" value="Adiciona um produto ao carrinho" style="points=[[0.25,0,0],[0.5,0,0],[0.75,0,0],[1,0.25,0],[1,0.5,0],[1,0.75,0],[0.75,1,0],[0.5,1,0],[0.25,1,0],[0,0.75,0],[0,0.5,0],[0,0.25,0]];shape=mxgraph.bpmn.task;whiteSpace=wrap;rectStyle=rounded;size=10;html=1;container=1;expand=0;collapsible=0;taskMarker=abstract;fillColor=#dae8fc;strokeColor=#6c8ebf;" parent="nxpTNE4xo8rTw0tVmjKs-1" vertex="1">
          <mxGeometry x="787" y="40" width="100" height="40" as="geometry" />
        </mxCell>
        <mxCell id="Xy7hcFJQotrJr0ZNXUhi-3" style="edgeStyle=orthogonalEdgeStyle;rounded=0;orthogonalLoop=1;jettySize=auto;html=1;entryX=0.5;entryY=0;entryDx=0;entryDy=0;entryPerimeter=0;" edge="1" parent="nxpTNE4xo8rTw0tVmjKs-1" source="Xy7hcFJQotrJr0ZNXUhi-1" target="UtqzANeySRt_dfxODMO5-13">
          <mxGeometry relative="1" as="geometry">
            <Array as="points">
              <mxPoint x="1055" y="20" />
              <mxPoint x="620" y="20" />
            </Array>
          </mxGeometry>
        </mxCell>
        <mxCell id="Xy7hcFJQotrJr0ZNXUhi-5" value="Sim" style="edgeLabel;html=1;align=center;verticalAlign=middle;resizable=0;points=[];" vertex="1" connectable="0" parent="Xy7hcFJQotrJr0ZNXUhi-3">
          <mxGeometry x="-0.9586" y="-3" relative="1" as="geometry">
            <mxPoint as="offset" />
          </mxGeometry>
        </mxCell>
        <mxCell id="Xy7hcFJQotrJr0ZNXUhi-1" value="Adicionar mais &lt;br&gt;produtos ?" style="points=[[0.25,0.25,0],[0.5,0,0],[0.75,0.25,0],[1,0.5,0],[0.75,0.75,0],[0.5,1,0],[0.25,0.75,0],[0,0.5,0]];shape=mxgraph.bpmn.gateway2;html=1;verticalLabelPosition=bottom;labelBackgroundColor=#ffffff;verticalAlign=top;align=center;perimeter=rhombusPerimeter;outlineConnect=0;outline=none;symbol=none;fillColor=#fff2cc;strokeColor=#d6b656;" vertex="1" parent="nxpTNE4xo8rTw0tVmjKs-1">
          <mxGeometry x="1040" y="43.75" width="30" height="32.5" as="geometry" />
        </mxCell>
        <mxCell id="Xy7hcFJQotrJr0ZNXUhi-2" value="" style="edgeStyle=orthogonalEdgeStyle;rounded=0;orthogonalLoop=1;jettySize=auto;html=1;" edge="1" parent="nxpTNE4xo8rTw0tVmjKs-1" source="aicw6oGBLSSdAD0BwqQp-5" target="Xy7hcFJQotrJr0ZNXUhi-1">
          <mxGeometry relative="1" as="geometry">
            <mxPoint x="1230" y="260" as="sourcePoint" />
            <mxPoint x="1330" y="260" as="targetPoint" />
          </mxGeometry>
        </mxCell>
        <mxCell id="KSM3Vl_dncR0eiKDo6Cj-2" style="edgeStyle=orthogonalEdgeStyle;rounded=0;orthogonalLoop=1;jettySize=auto;html=1;entryX=0;entryY=0.5;entryDx=0;entryDy=0;entryPerimeter=0;" edge="1" parent="nxpTNE4xo8rTw0tVmjKs-1" source="fAKOiFbIlSt57EHNpXMZ-1" target="fAKOiFbIlSt57EHNpXMZ-3">
          <mxGeometry relative="1" as="geometry" />
        </mxCell>
        <mxCell id="Xy7hcFJQotrJr0ZNXUhi-9" value="Finaliza pagamento" style="points=[[0.25,0,0],[0.5,0,0],[0.75,0,0],[1,0.25,0],[1,0.5,0],[1,0.75,0],[0.75,1,0],[0.5,1,0],[0.25,1,0],[0,0.75,0],[0,0.5,0],[0,0.25,0]];shape=mxgraph.bpmn.task;whiteSpace=wrap;rectStyle=rounded;size=10;html=1;container=1;expand=0;collapsible=0;taskMarker=abstract;fillColor=#dae8fc;strokeColor=#6c8ebf;" vertex="1" parent="nxpTNE4xo8rTw0tVmjKs-1">
          <mxGeometry x="1330" y="32.5" width="97.5" height="55" as="geometry" />
        </mxCell>
        <mxCell id="Xy7hcFJQotrJr0ZNXUhi-28" style="edgeStyle=orthogonalEdgeStyle;rounded=0;orthogonalLoop=1;jettySize=auto;html=1;entryX=0;entryY=0.5;entryDx=0;entryDy=0;entryPerimeter=0;" edge="1" parent="nxpTNE4xo8rTw0tVmjKs-1" source="Xy7hcFJQotrJr0ZNXUhi-17" target="Xy7hcFJQotrJr0ZNXUhi-9">
          <mxGeometry relative="1" as="geometry" />
        </mxCell>
        <mxCell id="Xy7hcFJQotrJr0ZNXUhi-17" value="Adicionar endereço de entrega" style="points=[[0.25,0,0],[0.5,0,0],[0.75,0,0],[1,0.25,0],[1,0.5,0],[1,0.75,0],[0.75,1,0],[0.5,1,0],[0.25,1,0],[0,0.75,0],[0,0.5,0],[0,0.25,0]];shape=mxgraph.bpmn.task;whiteSpace=wrap;rectStyle=rounded;size=10;html=1;container=1;expand=0;collapsible=0;taskMarker=abstract;fillColor=#dae8fc;strokeColor=#6c8ebf;" vertex="1" parent="nxpTNE4xo8rTw0tVmjKs-1">
          <mxGeometry x="1152" y="32.5" width="97.5" height="55" as="geometry" />
        </mxCell>
        <mxCell id="KSM3Vl_dncR0eiKDo6Cj-1" value="Compra finalizada" style="points=[[0.145,0.145,0],[0.5,0,0],[0.855,0.145,0],[1,0.5,0],[0.855,0.855,0],[0.5,1,0],[0.145,0.855,0],[0,0.5,0]];shape=mxgraph.bpmn.event;html=1;verticalLabelPosition=bottom;labelBackgroundColor=#ffffff;verticalAlign=top;align=center;perimeter=ellipsePerimeter;outlineConnect=0;aspect=fixed;outline=end;symbol=terminate2;fillColor=#f8cecc;strokeColor=#b85450;" vertex="1" parent="nxpTNE4xo8rTw0tVmjKs-1">
          <mxGeometry x="1760" y="42.5" width="35" height="35" as="geometry" />
        </mxCell>
        <mxCell id="fAKOiFbIlSt57EHNpXMZ-1" value="Aguarda receber produto" style="points=[[0.145,0.145,0],[0.5,0,0],[0.855,0.145,0],[1,0.5,0],[0.855,0.855,0],[0.5,1,0],[0.145,0.855,0],[0,0.5,0]];shape=mxgraph.bpmn.event;html=1;verticalLabelPosition=bottom;labelBackgroundColor=#ffffff;verticalAlign=top;align=center;perimeter=ellipsePerimeter;outlineConnect=0;aspect=fixed;outline=throwing;symbol=general;fillColor=#fff2cc;strokeColor=#d6b656;" vertex="1" parent="nxpTNE4xo8rTw0tVmjKs-1">
          <mxGeometry x="1510" y="43.75" width="32.5" height="32.5" as="geometry" />
        </mxCell>
        <mxCell id="fAKOiFbIlSt57EHNpXMZ-2" value="" style="edgeStyle=orthogonalEdgeStyle;rounded=0;orthogonalLoop=1;jettySize=auto;html=1;entryX=0;entryY=0.5;entryDx=0;entryDy=0;entryPerimeter=0;" edge="1" parent="nxpTNE4xo8rTw0tVmjKs-1" source="Xy7hcFJQotrJr0ZNXUhi-9" target="fAKOiFbIlSt57EHNpXMZ-1">
          <mxGeometry relative="1" as="geometry">
            <mxPoint x="1468" y="260" as="sourcePoint" />
            <mxPoint x="1800" y="260" as="targetPoint" />
          </mxGeometry>
        </mxCell>
        <mxCell id="JdFecph_-sOHY-AlSeP7-1" style="edgeStyle=orthogonalEdgeStyle;rounded=0;orthogonalLoop=1;jettySize=auto;html=1;entryX=0;entryY=0.5;entryDx=0;entryDy=0;entryPerimeter=0;" edge="1" parent="nxpTNE4xo8rTw0tVmjKs-1" source="fAKOiFbIlSt57EHNpXMZ-3" target="KSM3Vl_dncR0eiKDo6Cj-1">
          <mxGeometry relative="1" as="geometry" />
        </mxCell>
        <mxCell id="fAKOiFbIlSt57EHNpXMZ-3" value="Confirma recebimento do produto" style="points=[[0.25,0,0],[0.5,0,0],[0.75,0,0],[1,0.25,0],[1,0.5,0],[1,0.75,0],[0.75,1,0],[0.5,1,0],[0.25,1,0],[0,0.75,0],[0,0.5,0],[0,0.25,0]];shape=mxgraph.bpmn.task;whiteSpace=wrap;rectStyle=rounded;size=10;html=1;container=1;expand=0;collapsible=0;taskMarker=abstract;fillColor=#dae8fc;strokeColor=#6c8ebf;" vertex="1" parent="nxpTNE4xo8rTw0tVmjKs-1">
          <mxGeometry x="1610" y="32.5" width="97.5" height="55" as="geometry" />
        </mxCell>
        <mxCell id="6v4QbtparM5iY0bVkObq-32" value="" style="edgeStyle=elbowEdgeStyle;fontSize=12;html=1;endFill=0;startFill=0;endSize=6;startSize=6;dashed=1;dashPattern=1 4;endArrow=openThin;startArrow=none;rounded=0;exitX=0.25;exitY=1;exitDx=0;exitDy=0;exitPerimeter=0;entryX=0.188;entryY=0.043;entryDx=0;entryDy=0;entryPerimeter=0;elbow=vertical;" parent="1" source="6v4QbtparM5iY0bVkObq-30" target="6v4QbtparM5iY0bVkObq-6" edge="1">
          <mxGeometry width="160" relative="1" as="geometry">
            <mxPoint x="570" y="450" as="sourcePoint" />
            <mxPoint x="730" y="450" as="targetPoint" />
            <Array as="points">
              <mxPoint x="250" y="330" />
            </Array>
          </mxGeometry>
        </mxCell>
        <mxCell id="6v4QbtparM5iY0bVkObq-33" value="Envia informações" style="edgeLabel;html=1;align=center;verticalAlign=middle;resizable=0;points=[];" parent="6v4QbtparM5iY0bVkObq-32" vertex="1" connectable="0">
          <mxGeometry x="-0.3005" relative="1" as="geometry">
            <mxPoint x="-17" y="15" as="offset" />
          </mxGeometry>
        </mxCell>
        <mxCell id="6v4QbtparM5iY0bVkObq-35" value="" style="edgeStyle=elbowEdgeStyle;fontSize=12;html=1;endFill=0;startFill=0;endSize=6;startSize=6;dashed=1;dashPattern=1 4;endArrow=openThin;startArrow=none;rounded=0;entryX=0.75;entryY=1;entryDx=0;entryDy=0;entryPerimeter=0;exitX=0.75;exitY=0;exitDx=0;exitDy=0;exitPerimeter=0;elbow=vertical;" parent="1" source="6v4QbtparM5iY0bVkObq-6" target="6v4QbtparM5iY0bVkObq-30" edge="1">
          <mxGeometry width="160" relative="1" as="geometry">
            <mxPoint x="570" y="450" as="sourcePoint" />
            <mxPoint x="730" y="450" as="targetPoint" />
            <Array as="points">
              <mxPoint x="250" y="340" />
            </Array>
          </mxGeometry>
        </mxCell>
        <mxCell id="UtqzANeySRt_dfxODMO5-9" value="" style="edgeStyle=elbowEdgeStyle;fontSize=12;html=1;endFill=0;startFill=0;endSize=6;startSize=6;dashed=1;dashPattern=1 4;endArrow=openThin;startArrow=none;rounded=0;exitX=0.393;exitY=1.01;exitDx=0;exitDy=0;exitPerimeter=0;entryX=0.25;entryY=0;entryDx=0;entryDy=0;entryPerimeter=0;elbow=vertical;" parent="1" source="UtqzANeySRt_dfxODMO5-6" target="6v4QbtparM5iY0bVkObq-22" edge="1">
          <mxGeometry width="160" relative="1" as="geometry">
            <mxPoint x="540" y="350" as="sourcePoint" />
            <mxPoint x="700" y="350" as="targetPoint" />
            <Array as="points">
              <mxPoint x="440" y="330" />
              <mxPoint x="450" y="350" />
            </Array>
          </mxGeometry>
        </mxCell>
        <mxCell id="UtqzANeySRt_dfxODMO5-10" value="Envia informações" style="edgeLabel;html=1;align=center;verticalAlign=middle;resizable=0;points=[];" parent="UtqzANeySRt_dfxODMO5-9" vertex="1" connectable="0">
          <mxGeometry x="-0.6106" y="2" relative="1" as="geometry">
            <mxPoint x="-30" y="32" as="offset" />
          </mxGeometry>
        </mxCell>
        <mxCell id="UtqzANeySRt_dfxODMO5-11" value="" style="edgeStyle=elbowEdgeStyle;fontSize=12;html=1;endFill=0;startFill=0;endSize=6;startSize=6;dashed=1;dashPattern=1 4;endArrow=openThin;startArrow=none;rounded=0;entryX=0.75;entryY=1;entryDx=0;entryDy=0;entryPerimeter=0;exitX=0.75;exitY=0;exitDx=0;exitDy=0;exitPerimeter=0;elbow=vertical;" parent="1" source="6v4QbtparM5iY0bVkObq-22" target="UtqzANeySRt_dfxODMO5-6" edge="1">
          <mxGeometry width="160" relative="1" as="geometry">
            <mxPoint x="540" y="350" as="sourcePoint" />
            <mxPoint x="700" y="350" as="targetPoint" />
            <Array as="points">
              <mxPoint x="483" y="350" />
              <mxPoint x="420" y="340" />
            </Array>
          </mxGeometry>
        </mxCell>
        <mxCell id="UtqzANeySRt_dfxODMO5-19" value="" style="edgeStyle=elbowEdgeStyle;fontSize=12;html=1;endFill=0;startFill=0;endSize=6;startSize=6;dashed=1;dashPattern=1 4;endArrow=openThin;startArrow=none;rounded=0;exitX=0.25;exitY=1;exitDx=0;exitDy=0;exitPerimeter=0;entryX=0.25;entryY=0;entryDx=0;entryDy=0;entryPerimeter=0;elbow=vertical;" parent="1" source="UtqzANeySRt_dfxODMO5-13" target="UtqzANeySRt_dfxODMO5-17" edge="1">
          <mxGeometry width="160" relative="1" as="geometry">
            <mxPoint x="700" y="350" as="sourcePoint" />
            <mxPoint x="860" y="350" as="targetPoint" />
            <Array as="points">
              <mxPoint x="700" y="350" />
            </Array>
          </mxGeometry>
        </mxCell>
        <mxCell id="UtqzANeySRt_dfxODMO5-20" value="Solicita catálogo" style="edgeLabel;html=1;align=center;verticalAlign=middle;resizable=0;points=[];" parent="UtqzANeySRt_dfxODMO5-19" vertex="1" connectable="0">
          <mxGeometry x="0.3377" y="2" relative="1" as="geometry">
            <mxPoint x="-70" y="-6" as="offset" />
          </mxGeometry>
        </mxCell>
        <mxCell id="UtqzANeySRt_dfxODMO5-23" value="" style="edgeStyle=elbowEdgeStyle;fontSize=12;html=1;endFill=0;startFill=0;endSize=6;startSize=6;dashed=1;dashPattern=1 4;endArrow=openThin;startArrow=none;rounded=0;entryX=0.75;entryY=1;entryDx=0;entryDy=0;entryPerimeter=0;exitX=0.75;exitY=0;exitDx=0;exitDy=0;exitPerimeter=0;elbow=vertical;" parent="1" source="UtqzANeySRt_dfxODMO5-17" target="UtqzANeySRt_dfxODMO5-13" edge="1">
          <mxGeometry width="160" relative="1" as="geometry">
            <mxPoint x="540" y="350" as="sourcePoint" />
            <mxPoint x="700" y="350" as="targetPoint" />
          </mxGeometry>
        </mxCell>
        <mxCell id="aicw6oGBLSSdAD0BwqQp-12" value="" style="edgeStyle=elbowEdgeStyle;fontSize=12;html=1;endFill=0;startFill=0;endSize=6;startSize=6;dashed=1;dashPattern=1 4;endArrow=openThin;startArrow=none;rounded=0;exitX=0.25;exitY=1;exitDx=0;exitDy=0;exitPerimeter=0;entryX=0.25;entryY=0;entryDx=0;entryDy=0;entryPerimeter=0;elbow=vertical;" parent="1" source="aicw6oGBLSSdAD0BwqQp-5" target="aicw6oGBLSSdAD0BwqQp-8" edge="1">
          <mxGeometry width="160" relative="1" as="geometry">
            <mxPoint x="860" y="380" as="sourcePoint" />
            <mxPoint x="1020" y="380" as="targetPoint" />
            <Array as="points">
              <mxPoint x="930" y="350" />
            </Array>
          </mxGeometry>
        </mxCell>
        <mxCell id="Xy7hcFJQotrJr0ZNXUhi-8" value="Envia identificação &lt;br&gt;do produto" style="edgeLabel;html=1;align=center;verticalAlign=middle;resizable=0;points=[];" vertex="1" connectable="0" parent="aicw6oGBLSSdAD0BwqQp-12">
          <mxGeometry x="-0.3718" y="-2" relative="1" as="geometry">
            <mxPoint x="-14" y="-12" as="offset" />
          </mxGeometry>
        </mxCell>
        <mxCell id="aicw6oGBLSSdAD0BwqQp-14" value="" style="edgeStyle=elbowEdgeStyle;fontSize=12;html=1;endFill=0;startFill=0;endSize=6;startSize=6;dashed=1;dashPattern=1 4;endArrow=openThin;startArrow=none;rounded=0;entryX=0.75;entryY=1;entryDx=0;entryDy=0;entryPerimeter=0;exitX=0.75;exitY=0;exitDx=0;exitDy=0;exitPerimeter=0;elbow=vertical;" parent="1" source="aicw6oGBLSSdAD0BwqQp-8" target="aicw6oGBLSSdAD0BwqQp-5" edge="1">
          <mxGeometry width="160" relative="1" as="geometry">
            <mxPoint x="860" y="380" as="sourcePoint" />
            <mxPoint x="1020" y="380" as="targetPoint" />
          </mxGeometry>
        </mxCell>
        <mxCell id="Xy7hcFJQotrJr0ZNXUhi-24" style="edgeStyle=orthogonalEdgeStyle;rounded=0;orthogonalLoop=1;jettySize=auto;html=1;dashed=1;dashPattern=1 4;endArrow=openThin;endFill=0;" edge="1" parent="1" source="2lNFa7Bessl5lZM0Vw7c-4" target="Xy7hcFJQotrJr0ZNXUhi-17">
          <mxGeometry relative="1" as="geometry">
            <Array as="points">
              <mxPoint x="1290" y="340" />
              <mxPoint x="1261" y="340" />
            </Array>
          </mxGeometry>
        </mxCell>
        <mxCell id="Xy7hcFJQotrJr0ZNXUhi-26" value="" style="edgeStyle=elbowEdgeStyle;fontSize=12;html=1;endFill=0;startFill=0;endSize=6;startSize=6;dashed=1;dashPattern=1 4;endArrow=openThin;startArrow=none;rounded=0;exitX=0.25;exitY=1;exitDx=0;exitDy=0;exitPerimeter=0;entryX=0.25;entryY=0;entryDx=0;entryDy=0;entryPerimeter=0;elbow=vertical;" edge="1" parent="1" target="2lNFa7Bessl5lZM0Vw7c-4">
          <mxGeometry width="160" relative="1" as="geometry">
            <mxPoint x="1212.9950000000001" y="287.5" as="sourcePoint" />
            <mxPoint x="1240.9950000000001" y="392.4999999999999" as="targetPoint" />
            <Array as="points">
              <mxPoint x="1240" y="350" />
            </Array>
          </mxGeometry>
        </mxCell>
        <mxCell id="Xy7hcFJQotrJr0ZNXUhi-27" value="Envia identificação &lt;br&gt;de endereço" style="edgeLabel;html=1;align=center;verticalAlign=middle;resizable=0;points=[];" vertex="1" connectable="0" parent="Xy7hcFJQotrJr0ZNXUhi-26">
          <mxGeometry x="-0.3718" y="-2" relative="1" as="geometry">
            <mxPoint x="-26" y="10" as="offset" />
          </mxGeometry>
        </mxCell>
        <mxCell id="OqxM5PXChNKwgwSEoGYA-3" value="" style="edgeStyle=elbowEdgeStyle;fontSize=12;html=1;endFill=0;startFill=0;endSize=6;startSize=6;dashed=1;dashPattern=1 4;endArrow=openThin;startArrow=none;rounded=0;exitX=0.25;exitY=1;exitDx=0;exitDy=0;exitPerimeter=0;entryX=0.151;entryY=0.001;entryDx=0;entryDy=0;entryPerimeter=0;elbow=vertical;" edge="1" parent="1" source="Xy7hcFJQotrJr0ZNXUhi-9" target="Xy7hcFJQotrJr0ZNXUhi-19">
          <mxGeometry width="160" relative="1" as="geometry">
            <mxPoint x="1399.9950000000001" y="287.5" as="sourcePoint" />
            <mxPoint x="1420.2225" y="391.2850000000001" as="targetPoint" />
            <Array as="points">
              <mxPoint x="1427" y="350" />
            </Array>
          </mxGeometry>
        </mxCell>
        <mxCell id="OqxM5PXChNKwgwSEoGYA-4" value="Envia identificação &lt;br&gt;de pagamento" style="edgeLabel;html=1;align=center;verticalAlign=middle;resizable=0;points=[];" vertex="1" connectable="0" parent="OqxM5PXChNKwgwSEoGYA-3">
          <mxGeometry x="-0.3718" y="-2" relative="1" as="geometry">
            <mxPoint x="-12" y="-6" as="offset" />
          </mxGeometry>
        </mxCell>
        <mxCell id="OqxM5PXChNKwgwSEoGYA-2" style="edgeStyle=orthogonalEdgeStyle;rounded=0;orthogonalLoop=1;jettySize=auto;html=1;dashed=1;dashPattern=1 4;endArrow=openThin;endFill=0;exitX=0.75;exitY=0;exitDx=0;exitDy=0;exitPerimeter=0;entryX=0.75;entryY=1;entryDx=0;entryDy=0;entryPerimeter=0;" edge="1" parent="1" source="Xy7hcFJQotrJr0ZNXUhi-19" target="Xy7hcFJQotrJr0ZNXUhi-9">
          <mxGeometry relative="1" as="geometry">
            <mxPoint x="1560.005" y="385.02" as="sourcePoint" />
            <mxPoint x="1470.005" y="280.02" as="targetPoint" />
            <Array as="points">
              <mxPoint x="1533" y="340" />
              <mxPoint x="1443" y="340" />
            </Array>
          </mxGeometry>
        </mxCell>
        <mxCell id="JdFecph_-sOHY-AlSeP7-10" style="edgeStyle=orthogonalEdgeStyle;rounded=0;orthogonalLoop=1;jettySize=auto;html=1;dashed=1;dashPattern=1 4;endArrow=openThin;endFill=0;exitX=0.75;exitY=0;exitDx=0;exitDy=0;exitPerimeter=0;entryX=0.75;entryY=1;entryDx=0;entryDy=0;entryPerimeter=0;" edge="1" parent="1" source="JdFecph_-sOHY-AlSeP7-7" target="fAKOiFbIlSt57EHNpXMZ-3">
          <mxGeometry relative="1" as="geometry">
            <mxPoint x="1533" y="403" as="sourcePoint" />
            <mxPoint x="1453" y="298" as="targetPoint" />
            <Array as="points">
              <mxPoint x="1763" y="350" />
              <mxPoint x="1723" y="350" />
            </Array>
          </mxGeometry>
        </mxCell>
        <mxCell id="JdFecph_-sOHY-AlSeP7-11" value="" style="edgeStyle=elbowEdgeStyle;fontSize=12;html=1;endFill=0;startFill=0;endSize=6;startSize=6;dashed=1;dashPattern=1 4;endArrow=openThin;startArrow=none;rounded=0;exitX=0.25;exitY=1;exitDx=0;exitDy=0;exitPerimeter=0;entryX=0.25;entryY=0;entryDx=0;entryDy=0;entryPerimeter=0;elbow=vertical;" edge="1" parent="1" source="fAKOiFbIlSt57EHNpXMZ-3" target="JdFecph_-sOHY-AlSeP7-7">
          <mxGeometry width="160" relative="1" as="geometry">
            <mxPoint x="1404" y="298" as="sourcePoint" />
            <mxPoint x="1475" y="403" as="targetPoint" />
            <Array as="points">
              <mxPoint x="1680" y="330" />
            </Array>
          </mxGeometry>
        </mxCell>
        <mxCell id="JdFecph_-sOHY-AlSeP7-12" value="Envia confirmação" style="edgeLabel;html=1;align=center;verticalAlign=middle;resizable=0;points=[];" vertex="1" connectable="0" parent="JdFecph_-sOHY-AlSeP7-11">
          <mxGeometry x="-0.3718" y="-2" relative="1" as="geometry">
            <mxPoint x="-13" y="8" as="offset" />
          </mxGeometry>
        </mxCell>
      </root>
    </mxGraphModel>
  </diagram>
  <diagram name="Modelo To Be Processo Cadastro Produto" id="bGz2bCBchgGKy_F5s1Jp">
    <mxGraphModel dx="1363" dy="860" grid="1" gridSize="10" guides="1" tooltips="1" connect="1" arrows="1" fold="1" page="1" pageScale="1" pageWidth="827" pageHeight="1169" math="0" shadow="0">
      <root>
        <mxCell id="5CF_1HLAxywndgFjs6Sz-0" />
        <mxCell id="5CF_1HLAxywndgFjs6Sz-1" parent="5CF_1HLAxywndgFjs6Sz-0" />
        <mxCell id="gVHYKL9ex2RMPbyl-Cjv-55" value="Avaliador Especialista" style="swimlane;html=1;startSize=20;fontStyle=0;collapsible=0;horizontal=0;swimlaneLine=1;swimlaneFillColor=#ffffff;strokeWidth=2;whiteSpace=wrap;" vertex="1" parent="5CF_1HLAxywndgFjs6Sz-1">
          <mxGeometry x="40" y="760" width="1560" height="120" as="geometry" />
        </mxCell>
        <mxCell id="gVHYKL9ex2RMPbyl-Cjv-56" style="edgeStyle=orthogonalEdgeStyle;rounded=0;orthogonalLoop=1;jettySize=auto;html=1;entryX=0;entryY=0.5;entryDx=0;entryDy=0;entryPerimeter=0;" edge="1" parent="gVHYKL9ex2RMPbyl-Cjv-55" source="gVHYKL9ex2RMPbyl-Cjv-57" target="gVHYKL9ex2RMPbyl-Cjv-59">
          <mxGeometry relative="1" as="geometry" />
        </mxCell>
        <mxCell id="gVHYKL9ex2RMPbyl-Cjv-57" value="" style="points=[[0.145,0.145,0],[0.5,0,0],[0.855,0.145,0],[1,0.5,0],[0.855,0.855,0],[0.5,1,0],[0.145,0.855,0],[0,0.5,0]];shape=mxgraph.bpmn.event;html=1;verticalLabelPosition=bottom;labelBackgroundColor=#ffffff;verticalAlign=top;align=center;perimeter=ellipsePerimeter;outlineConnect=0;aspect=fixed;outline=standard;symbol=general;fillColor=#d5e8d4;strokeColor=#82b366;" vertex="1" parent="gVHYKL9ex2RMPbyl-Cjv-55">
          <mxGeometry x="60" y="42.5" width="35" height="35" as="geometry" />
        </mxCell>
        <mxCell id="gVHYKL9ex2RMPbyl-Cjv-58" style="edgeStyle=orthogonalEdgeStyle;rounded=0;orthogonalLoop=1;jettySize=auto;html=1;entryX=0;entryY=0.5;entryDx=0;entryDy=0;entryPerimeter=0;" edge="1" parent="gVHYKL9ex2RMPbyl-Cjv-55" source="gVHYKL9ex2RMPbyl-Cjv-59" target="gVHYKL9ex2RMPbyl-Cjv-64">
          <mxGeometry relative="1" as="geometry" />
        </mxCell>
        <mxCell id="gVHYKL9ex2RMPbyl-Cjv-60" style="edgeStyle=orthogonalEdgeStyle;rounded=0;orthogonalLoop=1;jettySize=auto;html=1;exitX=1;exitY=0.5;exitDx=0;exitDy=0;exitPerimeter=0;entryX=0;entryY=0.5;entryDx=0;entryDy=0;entryPerimeter=0;" edge="1" parent="gVHYKL9ex2RMPbyl-Cjv-55" source="gVHYKL9ex2RMPbyl-Cjv-64" target="gVHYKL9ex2RMPbyl-Cjv-65">
          <mxGeometry relative="1" as="geometry" />
        </mxCell>
        <mxCell id="gVHYKL9ex2RMPbyl-Cjv-61" value="Não" style="edgeLabel;html=1;align=center;verticalAlign=middle;resizable=0;points=[];" vertex="1" connectable="0" parent="gVHYKL9ex2RMPbyl-Cjv-60">
          <mxGeometry x="0.1667" y="2" relative="1" as="geometry">
            <mxPoint x="-11" y="2" as="offset" />
          </mxGeometry>
        </mxCell>
        <mxCell id="gVHYKL9ex2RMPbyl-Cjv-62" style="edgeStyle=orthogonalEdgeStyle;rounded=0;orthogonalLoop=1;jettySize=auto;html=1;entryX=0.5;entryY=1;entryDx=0;entryDy=0;entryPerimeter=0;" edge="1" parent="gVHYKL9ex2RMPbyl-Cjv-55" source="gVHYKL9ex2RMPbyl-Cjv-64" target="gVHYKL9ex2RMPbyl-Cjv-67">
          <mxGeometry relative="1" as="geometry">
            <Array as="points">
              <mxPoint x="285" y="110" />
              <mxPoint x="565" y="110" />
            </Array>
          </mxGeometry>
        </mxCell>
        <mxCell id="gVHYKL9ex2RMPbyl-Cjv-63" value="Sim" style="edgeLabel;html=1;align=center;verticalAlign=middle;resizable=0;points=[];" vertex="1" connectable="0" parent="gVHYKL9ex2RMPbyl-Cjv-62">
          <mxGeometry x="0.1229" relative="1" as="geometry">
            <mxPoint as="offset" />
          </mxGeometry>
        </mxCell>
        <mxCell id="gVHYKL9ex2RMPbyl-Cjv-64" value="Possui cadastro ?" style="points=[[0.25,0.25,0],[0.5,0,0],[0.75,0.25,0],[1,0.5,0],[0.75,0.75,0],[0.5,1,0],[0.25,0.75,0],[0,0.5,0]];shape=mxgraph.bpmn.gateway2;html=1;verticalLabelPosition=bottom;labelBackgroundColor=#ffffff;verticalAlign=top;align=center;perimeter=rhombusPerimeter;outlineConnect=0;outline=none;symbol=none;fillColor=#fff2cc;strokeColor=#d6b656;" vertex="1" parent="gVHYKL9ex2RMPbyl-Cjv-55">
          <mxGeometry x="270" y="43.75" width="30" height="32.5" as="geometry" />
        </mxCell>
        <mxCell id="gVHYKL9ex2RMPbyl-Cjv-65" value="Envia cadastro com certificado de especialidade" style="points=[[0.25,0,0],[0.5,0,0],[0.75,0,0],[1,0.25,0],[1,0.5,0],[1,0.75,0],[0.75,1,0],[0.5,1,0],[0.25,1,0],[0,0.75,0],[0,0.5,0],[0,0.25,0]];shape=mxgraph.bpmn.task;whiteSpace=wrap;rectStyle=rounded;size=10;html=1;container=1;expand=0;collapsible=0;taskMarker=abstract;fillColor=#dae8fc;strokeColor=#6c8ebf;" vertex="1" parent="gVHYKL9ex2RMPbyl-Cjv-55">
          <mxGeometry x="360" y="35" width="97.5" height="50" as="geometry" />
        </mxCell>
        <mxCell id="gVHYKL9ex2RMPbyl-Cjv-66" value="" style="edgeStyle=orthogonalEdgeStyle;rounded=0;orthogonalLoop=1;jettySize=auto;html=1;" edge="1" parent="gVHYKL9ex2RMPbyl-Cjv-55" source="gVHYKL9ex2RMPbyl-Cjv-67" target="gVHYKL9ex2RMPbyl-Cjv-70">
          <mxGeometry relative="1" as="geometry" />
        </mxCell>
        <mxCell id="gVHYKL9ex2RMPbyl-Cjv-67" value="Lista pedidos de avaliação" style="points=[[0.25,0,0],[0.5,0,0],[0.75,0,0],[1,0.25,0],[1,0.5,0],[1,0.75,0],[0.75,1,0],[0.5,1,0],[0.25,1,0],[0,0.75,0],[0,0.5,0],[0,0.25,0]];shape=mxgraph.bpmn.task;whiteSpace=wrap;rectStyle=rounded;size=10;html=1;container=1;expand=0;collapsible=0;taskMarker=abstract;fillColor=#dae8fc;strokeColor=#6c8ebf;" vertex="1" parent="gVHYKL9ex2RMPbyl-Cjv-55">
          <mxGeometry x="510" y="35" width="110" height="50" as="geometry" />
        </mxCell>
        <mxCell id="gVHYKL9ex2RMPbyl-Cjv-68" style="edgeStyle=orthogonalEdgeStyle;rounded=0;orthogonalLoop=1;jettySize=auto;html=1;" edge="1" parent="gVHYKL9ex2RMPbyl-Cjv-55" source="gVHYKL9ex2RMPbyl-Cjv-65" target="gVHYKL9ex2RMPbyl-Cjv-67">
          <mxGeometry relative="1" as="geometry">
            <mxPoint x="640" y="59.999999999999886" as="targetPoint" />
          </mxGeometry>
        </mxCell>
        <mxCell id="gVHYKL9ex2RMPbyl-Cjv-69" value="" style="edgeStyle=orthogonalEdgeStyle;rounded=0;orthogonalLoop=1;jettySize=auto;html=1;entryX=0;entryY=0.5;entryDx=0;entryDy=0;entryPerimeter=0;" edge="1" parent="gVHYKL9ex2RMPbyl-Cjv-55" source="gVHYKL9ex2RMPbyl-Cjv-70" target="gVHYKL9ex2RMPbyl-Cjv-71">
          <mxGeometry relative="1" as="geometry">
            <mxPoint x="860" y="60" as="targetPoint" />
          </mxGeometry>
        </mxCell>
        <mxCell id="gVHYKL9ex2RMPbyl-Cjv-70" value="Aceita avaliar um produto" style="points=[[0.25,0,0],[0.5,0,0],[0.75,0,0],[1,0.25,0],[1,0.5,0],[1,0.75,0],[0.75,1,0],[0.5,1,0],[0.25,1,0],[0,0.75,0],[0,0.5,0],[0,0.25,0]];shape=mxgraph.bpmn.task;whiteSpace=wrap;rectStyle=rounded;size=10;html=1;container=1;expand=0;collapsible=0;taskMarker=abstract;fillColor=#dae8fc;strokeColor=#6c8ebf;" vertex="1" parent="gVHYKL9ex2RMPbyl-Cjv-55">
          <mxGeometry x="660" y="35" width="120" height="50" as="geometry" />
        </mxCell>
        <mxCell id="Zbi1RC9vC-YujB26gkKQ-1" style="edgeStyle=orthogonalEdgeStyle;rounded=0;orthogonalLoop=1;jettySize=auto;html=1;entryX=0;entryY=0.5;entryDx=0;entryDy=0;entryPerimeter=0;" edge="1" parent="gVHYKL9ex2RMPbyl-Cjv-55" source="gVHYKL9ex2RMPbyl-Cjv-71" target="Zbi1RC9vC-YujB26gkKQ-0">
          <mxGeometry relative="1" as="geometry" />
        </mxCell>
        <mxCell id="gVHYKL9ex2RMPbyl-Cjv-71" value="Aguarda recebimento do produto" style="points=[[0.145,0.145,0],[0.5,0,0],[0.855,0.145,0],[1,0.5,0],[0.855,0.855,0],[0.5,1,0],[0.145,0.855,0],[0,0.5,0]];shape=mxgraph.bpmn.event;html=1;verticalLabelPosition=bottom;labelBackgroundColor=#ffffff;verticalAlign=top;align=center;perimeter=ellipsePerimeter;outlineConnect=0;aspect=fixed;outline=throwing;symbol=general;fillColor=#fff2cc;strokeColor=#d6b656;" vertex="1" parent="gVHYKL9ex2RMPbyl-Cjv-55">
          <mxGeometry x="860" y="43.75" width="32.5" height="32.5" as="geometry" />
        </mxCell>
        <mxCell id="Zbi1RC9vC-YujB26gkKQ-5" style="edgeStyle=orthogonalEdgeStyle;rounded=0;orthogonalLoop=1;jettySize=auto;html=1;entryX=0;entryY=0.5;entryDx=0;entryDy=0;entryPerimeter=0;" edge="1" parent="gVHYKL9ex2RMPbyl-Cjv-55" source="Zbi1RC9vC-YujB26gkKQ-0" target="Zbi1RC9vC-YujB26gkKQ-4">
          <mxGeometry relative="1" as="geometry" />
        </mxCell>
        <mxCell id="Zbi1RC9vC-YujB26gkKQ-0" value="Realiza avaliação do produto" style="points=[[0.25,0,0],[0.5,0,0],[0.75,0,0],[1,0.25,0],[1,0.5,0],[1,0.75,0],[0.75,1,0],[0.5,1,0],[0.25,1,0],[0,0.75,0],[0,0.5,0],[0,0.25,0]];shape=mxgraph.bpmn.task;whiteSpace=wrap;rectStyle=rounded;size=10;html=1;container=1;expand=0;collapsible=0;taskMarker=abstract;fillColor=#dae8fc;strokeColor=#6c8ebf;" vertex="1" parent="gVHYKL9ex2RMPbyl-Cjv-55">
          <mxGeometry x="980" y="35" width="120" height="50" as="geometry" />
        </mxCell>
        <mxCell id="Q-ZX0cdKezrqOBL3CZBR-0" style="edgeStyle=orthogonalEdgeStyle;rounded=0;orthogonalLoop=1;jettySize=auto;html=1;entryX=0;entryY=0.5;entryDx=0;entryDy=0;entryPerimeter=0;" edge="1" parent="gVHYKL9ex2RMPbyl-Cjv-55" source="Zbi1RC9vC-YujB26gkKQ-4" target="sWI6g8ih34YE_NyPatKU-1">
          <mxGeometry relative="1" as="geometry" />
        </mxCell>
        <mxCell id="Zbi1RC9vC-YujB26gkKQ-4" value="Posta produto de volta para o vendedor" style="points=[[0.25,0,0],[0.5,0,0],[0.75,0,0],[1,0.25,0],[1,0.5,0],[1,0.75,0],[0.75,1,0],[0.5,1,0],[0.25,1,0],[0,0.75,0],[0,0.5,0],[0,0.25,0]];shape=mxgraph.bpmn.task;whiteSpace=wrap;rectStyle=rounded;size=10;html=1;container=1;expand=0;collapsible=0;taskMarker=abstract;fillColor=#dae8fc;strokeColor=#6c8ebf;" vertex="1" parent="gVHYKL9ex2RMPbyl-Cjv-55">
          <mxGeometry x="1201" y="35" width="129" height="50" as="geometry" />
        </mxCell>
        <mxCell id="sWI6g8ih34YE_NyPatKU-1" value="Avaliação finalizada" style="points=[[0.145,0.145,0],[0.5,0,0],[0.855,0.145,0],[1,0.5,0],[0.855,0.855,0],[0.5,1,0],[0.145,0.855,0],[0,0.5,0]];shape=mxgraph.bpmn.event;html=1;verticalLabelPosition=bottom;labelBackgroundColor=#ffffff;verticalAlign=top;align=center;perimeter=ellipsePerimeter;outlineConnect=0;aspect=fixed;outline=end;symbol=terminate2;fillColor=#f8cecc;strokeColor=#b85450;" vertex="1" parent="gVHYKL9ex2RMPbyl-Cjv-55">
          <mxGeometry x="1460" y="42.5" width="35" height="35" as="geometry" />
        </mxCell>
        <mxCell id="gVHYKL9ex2RMPbyl-Cjv-59" value="Realiza login" style="points=[[0.25,0,0],[0.5,0,0],[0.75,0,0],[1,0.25,0],[1,0.5,0],[1,0.75,0],[0.75,1,0],[0.5,1,0],[0.25,1,0],[0,0.75,0],[0,0.5,0],[0,0.25,0]];shape=mxgraph.bpmn.task;whiteSpace=wrap;rectStyle=rounded;size=10;html=1;container=1;expand=0;collapsible=0;taskMarker=abstract;fillColor=#dae8fc;strokeColor=#6c8ebf;" vertex="1" parent="gVHYKL9ex2RMPbyl-Cjv-55">
          <mxGeometry x="130" y="35" width="97.5" height="50" as="geometry" />
        </mxCell>
        <mxCell id="gVHYKL9ex2RMPbyl-Cjv-16" value="Usos Gerais" style="swimlane;html=1;startSize=20;fontStyle=0;collapsible=0;horizontal=0;swimlaneLine=1;swimlaneFillColor=#ffffff;strokeWidth=2;whiteSpace=wrap;" vertex="1" parent="5CF_1HLAxywndgFjs6Sz-1">
          <mxGeometry x="60" y="480" width="1540" height="120" as="geometry" />
        </mxCell>
        <mxCell id="5CF_1HLAxywndgFjs6Sz-6" value="Valida informações" style="points=[[0.25,0,0],[0.5,0,0],[0.75,0,0],[1,0.25,0],[1,0.5,0],[1,0.75,0],[0.75,1,0],[0.5,1,0],[0.25,1,0],[0,0.75,0],[0,0.5,0],[0,0.25,0]];shape=mxgraph.bpmn.task;whiteSpace=wrap;rectStyle=rounded;size=10;html=1;container=1;expand=0;collapsible=0;taskMarker=abstract;fillColor=#dae8fc;strokeColor=#6c8ebf;" vertex="1" parent="gVHYKL9ex2RMPbyl-Cjv-16">
          <mxGeometry x="100" y="32.5" width="97.5" height="50" as="geometry" />
        </mxCell>
        <mxCell id="5CF_1HLAxywndgFjs6Sz-7" value="" style="points=[[0.145,0.145,0],[0.5,0,0],[0.855,0.145,0],[1,0.5,0],[0.855,0.855,0],[0.5,1,0],[0.145,0.855,0],[0,0.5,0]];shape=mxgraph.bpmn.event;html=1;verticalLabelPosition=bottom;labelBackgroundColor=#ffffff;verticalAlign=top;align=center;perimeter=ellipsePerimeter;outlineConnect=0;aspect=fixed;outline=end;symbol=message;fillColor=#f8cecc;strokeColor=#b85450;" vertex="1" parent="gVHYKL9ex2RMPbyl-Cjv-16">
          <mxGeometry x="220" y="40" width="35" height="35" as="geometry" />
        </mxCell>
        <mxCell id="5CF_1HLAxywndgFjs6Sz-4" value="" style="points=[[0.145,0.145,0],[0.5,0,0],[0.855,0.145,0],[1,0.5,0],[0.855,0.855,0],[0.5,1,0],[0.145,0.855,0],[0,0.5,0]];shape=mxgraph.bpmn.event;html=1;verticalLabelPosition=bottom;labelBackgroundColor=#ffffff;verticalAlign=top;align=center;perimeter=ellipsePerimeter;outlineConnect=0;aspect=fixed;outline=standard;symbol=message;fillColor=#d5e8d4;strokeColor=#82b366;" vertex="1" parent="gVHYKL9ex2RMPbyl-Cjv-16">
          <mxGeometry x="40" y="40" width="35" height="35" as="geometry" />
        </mxCell>
        <mxCell id="5CF_1HLAxywndgFjs6Sz-5" style="edgeStyle=orthogonalEdgeStyle;rounded=0;orthogonalLoop=1;jettySize=auto;html=1;entryX=0;entryY=0.5;entryDx=0;entryDy=0;entryPerimeter=0;" edge="1" parent="gVHYKL9ex2RMPbyl-Cjv-16" source="5CF_1HLAxywndgFjs6Sz-6" target="5CF_1HLAxywndgFjs6Sz-7">
          <mxGeometry relative="1" as="geometry" />
        </mxCell>
        <mxCell id="5CF_1HLAxywndgFjs6Sz-3" style="edgeStyle=orthogonalEdgeStyle;rounded=0;orthogonalLoop=1;jettySize=auto;html=1;" edge="1" parent="gVHYKL9ex2RMPbyl-Cjv-16" source="5CF_1HLAxywndgFjs6Sz-4" target="5CF_1HLAxywndgFjs6Sz-6">
          <mxGeometry relative="1" as="geometry" />
        </mxCell>
        <mxCell id="5CF_1HLAxywndgFjs6Sz-18" value="" style="points=[[0.145,0.145,0],[0.5,0,0],[0.855,0.145,0],[1,0.5,0],[0.855,0.855,0],[0.5,1,0],[0.145,0.855,0],[0,0.5,0]];shape=mxgraph.bpmn.event;html=1;verticalLabelPosition=bottom;labelBackgroundColor=#ffffff;verticalAlign=top;align=center;perimeter=ellipsePerimeter;outlineConnect=0;aspect=fixed;outline=standard;symbol=message;fillColor=#d5e8d4;strokeColor=#82b366;" vertex="1" parent="gVHYKL9ex2RMPbyl-Cjv-16">
          <mxGeometry x="1060" y="42.5" width="35" height="35" as="geometry" />
        </mxCell>
        <mxCell id="5CF_1HLAxywndgFjs6Sz-19" value="Confirma postagem" style="points=[[0.25,0,0],[0.5,0,0],[0.75,0,0],[1,0.25,0],[1,0.5,0],[1,0.75,0],[0.75,1,0],[0.5,1,0],[0.25,1,0],[0,0.75,0],[0,0.5,0],[0,0.25,0]];shape=mxgraph.bpmn.task;whiteSpace=wrap;rectStyle=rounded;size=10;html=1;container=1;expand=0;collapsible=0;taskMarker=abstract;fillColor=#dae8fc;strokeColor=#6c8ebf;" vertex="1" parent="gVHYKL9ex2RMPbyl-Cjv-16">
          <mxGeometry x="1145.75" y="35" width="97.5" height="50" as="geometry" />
        </mxCell>
        <mxCell id="5CF_1HLAxywndgFjs6Sz-21" value="" style="points=[[0.145,0.145,0],[0.5,0,0],[0.855,0.145,0],[1,0.5,0],[0.855,0.855,0],[0.5,1,0],[0.145,0.855,0],[0,0.5,0]];shape=mxgraph.bpmn.event;html=1;verticalLabelPosition=bottom;labelBackgroundColor=#ffffff;verticalAlign=top;align=center;perimeter=ellipsePerimeter;outlineConnect=0;aspect=fixed;outline=end;symbol=message;fillColor=#f8cecc;strokeColor=#b85450;" vertex="1" parent="gVHYKL9ex2RMPbyl-Cjv-16">
          <mxGeometry x="1290" y="42.5" width="35" height="35" as="geometry" />
        </mxCell>
        <mxCell id="5CF_1HLAxywndgFjs6Sz-20" style="edgeStyle=orthogonalEdgeStyle;rounded=0;orthogonalLoop=1;jettySize=auto;html=1;entryX=0;entryY=0.5;entryDx=0;entryDy=0;entryPerimeter=0;" edge="1" parent="gVHYKL9ex2RMPbyl-Cjv-16" source="5CF_1HLAxywndgFjs6Sz-18" target="5CF_1HLAxywndgFjs6Sz-19">
          <mxGeometry relative="1" as="geometry" />
        </mxCell>
        <mxCell id="5CF_1HLAxywndgFjs6Sz-22" style="edgeStyle=orthogonalEdgeStyle;rounded=0;orthogonalLoop=1;jettySize=auto;html=1;" edge="1" parent="gVHYKL9ex2RMPbyl-Cjv-16" source="5CF_1HLAxywndgFjs6Sz-19" target="5CF_1HLAxywndgFjs6Sz-21">
          <mxGeometry relative="1" as="geometry" />
        </mxCell>
        <mxCell id="5CF_1HLAxywndgFjs6Sz-2" value="Usos do Comprador" style="swimlane;html=1;startSize=20;fontStyle=0;collapsible=0;horizontal=0;swimlaneLine=1;swimlaneFillColor=#ffffff;strokeWidth=2;whiteSpace=wrap;" vertex="1" parent="5CF_1HLAxywndgFjs6Sz-1">
          <mxGeometry x="60" y="360" width="1540" height="120" as="geometry" />
        </mxCell>
        <mxCell id="5CF_1HLAxywndgFjs6Sz-8" style="edgeStyle=orthogonalEdgeStyle;rounded=0;orthogonalLoop=1;jettySize=auto;html=1;entryX=0;entryY=0.5;entryDx=0;entryDy=0;entryPerimeter=0;" edge="1" parent="5CF_1HLAxywndgFjs6Sz-2" source="5CF_1HLAxywndgFjs6Sz-9" target="5CF_1HLAxywndgFjs6Sz-11">
          <mxGeometry relative="1" as="geometry" />
        </mxCell>
        <mxCell id="5CF_1HLAxywndgFjs6Sz-9" value="" style="points=[[0.145,0.145,0],[0.5,0,0],[0.855,0.145,0],[1,0.5,0],[0.855,0.855,0],[0.5,1,0],[0.145,0.855,0],[0,0.5,0]];shape=mxgraph.bpmn.event;html=1;verticalLabelPosition=bottom;labelBackgroundColor=#ffffff;verticalAlign=top;align=center;perimeter=ellipsePerimeter;outlineConnect=0;aspect=fixed;outline=standard;symbol=message;fillColor=#d5e8d4;strokeColor=#82b366;" vertex="1" parent="5CF_1HLAxywndgFjs6Sz-2">
          <mxGeometry x="270" y="42.5" width="35" height="35" as="geometry" />
        </mxCell>
        <mxCell id="5CF_1HLAxywndgFjs6Sz-10" style="edgeStyle=orthogonalEdgeStyle;rounded=0;orthogonalLoop=1;jettySize=auto;html=1;" edge="1" parent="5CF_1HLAxywndgFjs6Sz-2" source="5CF_1HLAxywndgFjs6Sz-11" target="5CF_1HLAxywndgFjs6Sz-12">
          <mxGeometry relative="1" as="geometry" />
        </mxCell>
        <mxCell id="5CF_1HLAxywndgFjs6Sz-11" value="Cadastra Comprador" style="points=[[0.25,0,0],[0.5,0,0],[0.75,0,0],[1,0.25,0],[1,0.5,0],[1,0.75,0],[0.75,1,0],[0.5,1,0],[0.25,1,0],[0,0.75,0],[0,0.5,0],[0,0.25,0]];shape=mxgraph.bpmn.task;whiteSpace=wrap;rectStyle=rounded;size=10;html=1;container=1;expand=0;collapsible=0;taskMarker=abstract;fillColor=#dae8fc;strokeColor=#6c8ebf;" vertex="1" parent="5CF_1HLAxywndgFjs6Sz-2">
          <mxGeometry x="330" y="35" width="97.5" height="50" as="geometry" />
        </mxCell>
        <mxCell id="5CF_1HLAxywndgFjs6Sz-12" value="" style="points=[[0.145,0.145,0],[0.5,0,0],[0.855,0.145,0],[1,0.5,0],[0.855,0.855,0],[0.5,1,0],[0.145,0.855,0],[0,0.5,0]];shape=mxgraph.bpmn.event;html=1;verticalLabelPosition=bottom;labelBackgroundColor=#ffffff;verticalAlign=top;align=center;perimeter=ellipsePerimeter;outlineConnect=0;aspect=fixed;outline=end;symbol=message;fillColor=#f8cecc;strokeColor=#b85450;" vertex="1" parent="5CF_1HLAxywndgFjs6Sz-2">
          <mxGeometry x="460" y="42.5" width="35" height="35" as="geometry" />
        </mxCell>
        <mxCell id="5CF_1HLAxywndgFjs6Sz-13" value="" style="points=[[0.145,0.145,0],[0.5,0,0],[0.855,0.145,0],[1,0.5,0],[0.855,0.855,0],[0.5,1,0],[0.145,0.855,0],[0,0.5,0]];shape=mxgraph.bpmn.event;html=1;verticalLabelPosition=bottom;labelBackgroundColor=#ffffff;verticalAlign=top;align=center;perimeter=ellipsePerimeter;outlineConnect=0;aspect=fixed;outline=standard;symbol=message;fillColor=#d5e8d4;strokeColor=#82b366;" vertex="1" parent="5CF_1HLAxywndgFjs6Sz-2">
          <mxGeometry x="520" y="42.5" width="35" height="35" as="geometry" />
        </mxCell>
        <mxCell id="5CF_1HLAxywndgFjs6Sz-14" value="Cadastra produto e abre requisição de especialista" style="points=[[0.25,0,0],[0.5,0,0],[0.75,0,0],[1,0.25,0],[1,0.5,0],[1,0.75,0],[0.75,1,0],[0.5,1,0],[0.25,1,0],[0,0.75,0],[0,0.5,0],[0,0.25,0]];shape=mxgraph.bpmn.task;whiteSpace=wrap;rectStyle=rounded;size=10;html=1;container=1;expand=0;collapsible=0;taskMarker=abstract;fillColor=#dae8fc;strokeColor=#6c8ebf;" vertex="1" parent="5CF_1HLAxywndgFjs6Sz-2">
          <mxGeometry x="580" y="32.5" width="110" height="55" as="geometry" />
        </mxCell>
        <mxCell id="5CF_1HLAxywndgFjs6Sz-15" style="edgeStyle=orthogonalEdgeStyle;rounded=0;orthogonalLoop=1;jettySize=auto;html=1;entryX=0;entryY=0.5;entryDx=0;entryDy=0;entryPerimeter=0;" edge="1" parent="5CF_1HLAxywndgFjs6Sz-2" source="5CF_1HLAxywndgFjs6Sz-13" target="5CF_1HLAxywndgFjs6Sz-14">
          <mxGeometry relative="1" as="geometry" />
        </mxCell>
        <mxCell id="5CF_1HLAxywndgFjs6Sz-16" value="" style="points=[[0.145,0.145,0],[0.5,0,0],[0.855,0.145,0],[1,0.5,0],[0.855,0.855,0],[0.5,1,0],[0.145,0.855,0],[0,0.5,0]];shape=mxgraph.bpmn.event;html=1;verticalLabelPosition=bottom;labelBackgroundColor=#ffffff;verticalAlign=top;align=center;perimeter=ellipsePerimeter;outlineConnect=0;aspect=fixed;outline=end;symbol=message;fillColor=#f8cecc;strokeColor=#b85450;" vertex="1" parent="5CF_1HLAxywndgFjs6Sz-2">
          <mxGeometry x="710" y="42.5" width="35" height="35" as="geometry" />
        </mxCell>
        <mxCell id="5CF_1HLAxywndgFjs6Sz-17" style="edgeStyle=orthogonalEdgeStyle;rounded=0;orthogonalLoop=1;jettySize=auto;html=1;" edge="1" parent="5CF_1HLAxywndgFjs6Sz-2" source="5CF_1HLAxywndgFjs6Sz-14" target="5CF_1HLAxywndgFjs6Sz-16">
          <mxGeometry relative="1" as="geometry" />
        </mxCell>
        <mxCell id="2Tm_Ltb03jzVko9ipjSE-26" value="" style="points=[[0.145,0.145,0],[0.5,0,0],[0.855,0.145,0],[1,0.5,0],[0.855,0.855,0],[0.5,1,0],[0.145,0.855,0],[0,0.5,0]];shape=mxgraph.bpmn.event;html=1;verticalLabelPosition=bottom;labelBackgroundColor=#ffffff;verticalAlign=top;align=center;perimeter=ellipsePerimeter;outlineConnect=0;aspect=fixed;outline=standard;symbol=message;fillColor=#d5e8d4;strokeColor=#82b366;" vertex="1" parent="5CF_1HLAxywndgFjs6Sz-2">
          <mxGeometry x="1220" y="42.5" width="35" height="35" as="geometry" />
        </mxCell>
        <mxCell id="2Tm_Ltb03jzVko9ipjSE-27" value="Libera produto cadastrado para o catálogo" style="points=[[0.25,0,0],[0.5,0,0],[0.75,0,0],[1,0.25,0],[1,0.5,0],[1,0.75,0],[0.75,1,0],[0.5,1,0],[0.25,1,0],[0,0.75,0],[0,0.5,0],[0,0.25,0]];shape=mxgraph.bpmn.task;whiteSpace=wrap;rectStyle=rounded;size=10;html=1;container=1;expand=0;collapsible=0;taskMarker=abstract;fillColor=#dae8fc;strokeColor=#6c8ebf;" vertex="1" parent="5CF_1HLAxywndgFjs6Sz-2">
          <mxGeometry x="1280" y="32.5" width="110" height="55" as="geometry" />
        </mxCell>
        <mxCell id="2Tm_Ltb03jzVko9ipjSE-28" style="edgeStyle=orthogonalEdgeStyle;rounded=0;orthogonalLoop=1;jettySize=auto;html=1;entryX=0;entryY=0.5;entryDx=0;entryDy=0;entryPerimeter=0;" edge="1" parent="5CF_1HLAxywndgFjs6Sz-2" source="2Tm_Ltb03jzVko9ipjSE-26" target="2Tm_Ltb03jzVko9ipjSE-27">
          <mxGeometry relative="1" as="geometry" />
        </mxCell>
        <mxCell id="2Tm_Ltb03jzVko9ipjSE-29" value="" style="points=[[0.145,0.145,0],[0.5,0,0],[0.855,0.145,0],[1,0.5,0],[0.855,0.855,0],[0.5,1,0],[0.145,0.855,0],[0,0.5,0]];shape=mxgraph.bpmn.event;html=1;verticalLabelPosition=bottom;labelBackgroundColor=#ffffff;verticalAlign=top;align=center;perimeter=ellipsePerimeter;outlineConnect=0;aspect=fixed;outline=end;symbol=message;fillColor=#f8cecc;strokeColor=#b85450;" vertex="1" parent="5CF_1HLAxywndgFjs6Sz-2">
          <mxGeometry x="1420" y="42.5" width="35" height="35" as="geometry" />
        </mxCell>
        <mxCell id="2Tm_Ltb03jzVko9ipjSE-30" style="edgeStyle=orthogonalEdgeStyle;rounded=0;orthogonalLoop=1;jettySize=auto;html=1;" edge="1" parent="5CF_1HLAxywndgFjs6Sz-2" source="2Tm_Ltb03jzVko9ipjSE-27" target="2Tm_Ltb03jzVko9ipjSE-29">
          <mxGeometry relative="1" as="geometry" />
        </mxCell>
        <mxCell id="mKWMjUT8p4GS5gXHNYaC-13" value="Usos do Especialista" style="swimlane;html=1;startSize=20;fontStyle=0;collapsible=0;horizontal=0;swimlaneLine=1;swimlaneFillColor=#ffffff;strokeWidth=2;whiteSpace=wrap;" vertex="1" parent="5CF_1HLAxywndgFjs6Sz-1">
          <mxGeometry x="60" y="600" width="1540" height="120" as="geometry" />
        </mxCell>
        <mxCell id="mKWMjUT8p4GS5gXHNYaC-19" style="edgeStyle=orthogonalEdgeStyle;rounded=0;orthogonalLoop=1;jettySize=auto;html=1;entryX=0;entryY=0.5;entryDx=0;entryDy=0;entryPerimeter=0;" edge="1" parent="mKWMjUT8p4GS5gXHNYaC-13" source="mKWMjUT8p4GS5gXHNYaC-20" target="mKWMjUT8p4GS5gXHNYaC-22">
          <mxGeometry relative="1" as="geometry" />
        </mxCell>
        <mxCell id="mKWMjUT8p4GS5gXHNYaC-20" value="" style="points=[[0.145,0.145,0],[0.5,0,0],[0.855,0.145,0],[1,0.5,0],[0.855,0.855,0],[0.5,1,0],[0.145,0.855,0],[0,0.5,0]];shape=mxgraph.bpmn.event;html=1;verticalLabelPosition=bottom;labelBackgroundColor=#ffffff;verticalAlign=top;align=center;perimeter=ellipsePerimeter;outlineConnect=0;aspect=fixed;outline=standard;symbol=message;fillColor=#d5e8d4;strokeColor=#82b366;" vertex="1" parent="mKWMjUT8p4GS5gXHNYaC-13">
          <mxGeometry x="170" y="45" width="35" height="35" as="geometry" />
        </mxCell>
        <mxCell id="mKWMjUT8p4GS5gXHNYaC-21" style="edgeStyle=orthogonalEdgeStyle;rounded=0;orthogonalLoop=1;jettySize=auto;html=1;" edge="1" parent="mKWMjUT8p4GS5gXHNYaC-13" source="mKWMjUT8p4GS5gXHNYaC-22" target="mKWMjUT8p4GS5gXHNYaC-23">
          <mxGeometry relative="1" as="geometry" />
        </mxCell>
        <mxCell id="mKWMjUT8p4GS5gXHNYaC-22" value="Cadastra Especialista" style="points=[[0.25,0,0],[0.5,0,0],[0.75,0,0],[1,0.25,0],[1,0.5,0],[1,0.75,0],[0.75,1,0],[0.5,1,0],[0.25,1,0],[0,0.75,0],[0,0.5,0],[0,0.25,0]];shape=mxgraph.bpmn.task;whiteSpace=wrap;rectStyle=rounded;size=10;html=1;container=1;expand=0;collapsible=0;taskMarker=abstract;fillColor=#dae8fc;strokeColor=#6c8ebf;" vertex="1" parent="mKWMjUT8p4GS5gXHNYaC-13">
          <mxGeometry x="230" y="37.5" width="97.5" height="50" as="geometry" />
        </mxCell>
        <mxCell id="mKWMjUT8p4GS5gXHNYaC-23" value="" style="points=[[0.145,0.145,0],[0.5,0,0],[0.855,0.145,0],[1,0.5,0],[0.855,0.855,0],[0.5,1,0],[0.145,0.855,0],[0,0.5,0]];shape=mxgraph.bpmn.event;html=1;verticalLabelPosition=bottom;labelBackgroundColor=#ffffff;verticalAlign=top;align=center;perimeter=ellipsePerimeter;outlineConnect=0;aspect=fixed;outline=end;symbol=message;fillColor=#f8cecc;strokeColor=#b85450;" vertex="1" parent="mKWMjUT8p4GS5gXHNYaC-13">
          <mxGeometry x="360" y="45" width="35" height="35" as="geometry" />
        </mxCell>
        <mxCell id="mKWMjUT8p4GS5gXHNYaC-24" value="" style="points=[[0.145,0.145,0],[0.5,0,0],[0.855,0.145,0],[1,0.5,0],[0.855,0.855,0],[0.5,1,0],[0.145,0.855,0],[0,0.5,0]];shape=mxgraph.bpmn.event;html=1;verticalLabelPosition=bottom;labelBackgroundColor=#ffffff;verticalAlign=top;align=center;perimeter=ellipsePerimeter;outlineConnect=0;aspect=fixed;outline=standard;symbol=message;fillColor=#d5e8d4;strokeColor=#82b366;" vertex="1" parent="mKWMjUT8p4GS5gXHNYaC-13">
          <mxGeometry x="420" y="42.5" width="35" height="35" as="geometry" />
        </mxCell>
        <mxCell id="mKWMjUT8p4GS5gXHNYaC-25" value="Envia informações de pedidos de avaliação" style="points=[[0.25,0,0],[0.5,0,0],[0.75,0,0],[1,0.25,0],[1,0.5,0],[1,0.75,0],[0.75,1,0],[0.5,1,0],[0.25,1,0],[0,0.75,0],[0,0.5,0],[0,0.25,0]];shape=mxgraph.bpmn.task;whiteSpace=wrap;rectStyle=rounded;size=10;html=1;container=1;expand=0;collapsible=0;taskMarker=abstract;fillColor=#dae8fc;strokeColor=#6c8ebf;" vertex="1" parent="mKWMjUT8p4GS5gXHNYaC-13">
          <mxGeometry x="480" y="32.5" width="110" height="55" as="geometry" />
        </mxCell>
        <mxCell id="mKWMjUT8p4GS5gXHNYaC-26" style="edgeStyle=orthogonalEdgeStyle;rounded=0;orthogonalLoop=1;jettySize=auto;html=1;entryX=0;entryY=0.5;entryDx=0;entryDy=0;entryPerimeter=0;" edge="1" parent="mKWMjUT8p4GS5gXHNYaC-13" source="mKWMjUT8p4GS5gXHNYaC-24" target="mKWMjUT8p4GS5gXHNYaC-25">
          <mxGeometry relative="1" as="geometry" />
        </mxCell>
        <mxCell id="mKWMjUT8p4GS5gXHNYaC-27" value="" style="points=[[0.145,0.145,0],[0.5,0,0],[0.855,0.145,0],[1,0.5,0],[0.855,0.855,0],[0.5,1,0],[0.145,0.855,0],[0,0.5,0]];shape=mxgraph.bpmn.event;html=1;verticalLabelPosition=bottom;labelBackgroundColor=#ffffff;verticalAlign=top;align=center;perimeter=ellipsePerimeter;outlineConnect=0;aspect=fixed;outline=end;symbol=message;fillColor=#f8cecc;strokeColor=#b85450;" vertex="1" parent="mKWMjUT8p4GS5gXHNYaC-13">
          <mxGeometry x="610" y="42.5" width="35" height="35" as="geometry" />
        </mxCell>
        <mxCell id="mKWMjUT8p4GS5gXHNYaC-28" style="edgeStyle=orthogonalEdgeStyle;rounded=0;orthogonalLoop=1;jettySize=auto;html=1;" edge="1" parent="mKWMjUT8p4GS5gXHNYaC-13" source="mKWMjUT8p4GS5gXHNYaC-25" target="mKWMjUT8p4GS5gXHNYaC-27">
          <mxGeometry relative="1" as="geometry" />
        </mxCell>
        <mxCell id="mKWMjUT8p4GS5gXHNYaC-29" value="" style="points=[[0.145,0.145,0],[0.5,0,0],[0.855,0.145,0],[1,0.5,0],[0.855,0.855,0],[0.5,1,0],[0.145,0.855,0],[0,0.5,0]];shape=mxgraph.bpmn.event;html=1;verticalLabelPosition=bottom;labelBackgroundColor=#ffffff;verticalAlign=top;align=center;perimeter=ellipsePerimeter;outlineConnect=0;aspect=fixed;outline=standard;symbol=message;fillColor=#d5e8d4;strokeColor=#82b366;" vertex="1" parent="mKWMjUT8p4GS5gXHNYaC-13">
          <mxGeometry x="660" y="42.5" width="35" height="35" as="geometry" />
        </mxCell>
        <mxCell id="mKWMjUT8p4GS5gXHNYaC-30" value="Confirma especialista como avaliador" style="points=[[0.25,0,0],[0.5,0,0],[0.75,0,0],[1,0.25,0],[1,0.5,0],[1,0.75,0],[0.75,1,0],[0.5,1,0],[0.25,1,0],[0,0.75,0],[0,0.5,0],[0,0.25,0]];shape=mxgraph.bpmn.task;whiteSpace=wrap;rectStyle=rounded;size=10;html=1;container=1;expand=0;collapsible=0;taskMarker=abstract;fillColor=#dae8fc;strokeColor=#6c8ebf;" vertex="1" parent="mKWMjUT8p4GS5gXHNYaC-13">
          <mxGeometry x="720" y="35" width="110" height="50" as="geometry" />
        </mxCell>
        <mxCell id="mKWMjUT8p4GS5gXHNYaC-31" style="edgeStyle=orthogonalEdgeStyle;rounded=0;orthogonalLoop=1;jettySize=auto;html=1;entryX=0;entryY=0.5;entryDx=0;entryDy=0;entryPerimeter=0;" edge="1" parent="mKWMjUT8p4GS5gXHNYaC-13" source="mKWMjUT8p4GS5gXHNYaC-29" target="mKWMjUT8p4GS5gXHNYaC-30">
          <mxGeometry relative="1" as="geometry" />
        </mxCell>
        <mxCell id="mKWMjUT8p4GS5gXHNYaC-32" value="" style="points=[[0.145,0.145,0],[0.5,0,0],[0.855,0.145,0],[1,0.5,0],[0.855,0.855,0],[0.5,1,0],[0.145,0.855,0],[0,0.5,0]];shape=mxgraph.bpmn.event;html=1;verticalLabelPosition=bottom;labelBackgroundColor=#ffffff;verticalAlign=top;align=center;perimeter=ellipsePerimeter;outlineConnect=0;aspect=fixed;outline=end;symbol=message;fillColor=#f8cecc;strokeColor=#b85450;" vertex="1" parent="mKWMjUT8p4GS5gXHNYaC-13">
          <mxGeometry x="860" y="42.5" width="35" height="35" as="geometry" />
        </mxCell>
        <mxCell id="mKWMjUT8p4GS5gXHNYaC-33" style="edgeStyle=orthogonalEdgeStyle;rounded=0;orthogonalLoop=1;jettySize=auto;html=1;" edge="1" parent="mKWMjUT8p4GS5gXHNYaC-13" source="mKWMjUT8p4GS5gXHNYaC-30" target="mKWMjUT8p4GS5gXHNYaC-32">
          <mxGeometry relative="1" as="geometry" />
        </mxCell>
        <mxCell id="HWyftVZWoiyWXEeg5jkr-0" value="" style="edgeStyle=elbowEdgeStyle;fontSize=12;html=1;endFill=0;startFill=0;endSize=6;startSize=6;dashed=1;dashPattern=1 4;endArrow=openThin;startArrow=none;rounded=0;entryX=0.25;entryY=1;entryDx=0;entryDy=0;entryPerimeter=0;elbow=vertical;" edge="1" parent="mKWMjUT8p4GS5gXHNYaC-13" target="mKWMjUT8p4GS5gXHNYaC-25">
          <mxGeometry width="160" relative="1" as="geometry">
            <mxPoint x="540" y="195" as="sourcePoint" />
            <mxPoint x="430" y="87.5" as="targetPoint" />
            <Array as="points">
              <mxPoint x="486" y="149.5" />
            </Array>
          </mxGeometry>
        </mxCell>
        <mxCell id="HWyftVZWoiyWXEeg5jkr-1" value="Solicita lista" style="edgeLabel;html=1;align=center;verticalAlign=middle;resizable=0;points=[];" vertex="1" connectable="0" parent="HWyftVZWoiyWXEeg5jkr-0">
          <mxGeometry x="0.2598" relative="1" as="geometry">
            <mxPoint as="offset" />
          </mxGeometry>
        </mxCell>
        <mxCell id="2Tm_Ltb03jzVko9ipjSE-7" value="" style="points=[[0.145,0.145,0],[0.5,0,0],[0.855,0.145,0],[1,0.5,0],[0.855,0.855,0],[0.5,1,0],[0.145,0.855,0],[0,0.5,0]];shape=mxgraph.bpmn.event;html=1;verticalLabelPosition=bottom;labelBackgroundColor=#ffffff;verticalAlign=top;align=center;perimeter=ellipsePerimeter;outlineConnect=0;aspect=fixed;outline=standard;symbol=message;fillColor=#d5e8d4;strokeColor=#82b366;" vertex="1" parent="mKWMjUT8p4GS5gXHNYaC-13">
          <mxGeometry x="920" y="42.5" width="35" height="35" as="geometry" />
        </mxCell>
        <mxCell id="2Tm_Ltb03jzVko9ipjSE-8" value="Registra avaliação de autenticidade" style="points=[[0.25,0,0],[0.5,0,0],[0.75,0,0],[1,0.25,0],[1,0.5,0],[1,0.75,0],[0.75,1,0],[0.5,1,0],[0.25,1,0],[0,0.75,0],[0,0.5,0],[0,0.25,0]];shape=mxgraph.bpmn.task;whiteSpace=wrap;rectStyle=rounded;size=10;html=1;container=1;expand=0;collapsible=0;taskMarker=abstract;fillColor=#dae8fc;strokeColor=#6c8ebf;" vertex="1" parent="mKWMjUT8p4GS5gXHNYaC-13">
          <mxGeometry x="980" y="35" width="110" height="50" as="geometry" />
        </mxCell>
        <mxCell id="2Tm_Ltb03jzVko9ipjSE-9" style="edgeStyle=orthogonalEdgeStyle;rounded=0;orthogonalLoop=1;jettySize=auto;html=1;entryX=0;entryY=0.5;entryDx=0;entryDy=0;entryPerimeter=0;" edge="1" parent="mKWMjUT8p4GS5gXHNYaC-13" source="2Tm_Ltb03jzVko9ipjSE-7" target="2Tm_Ltb03jzVko9ipjSE-8">
          <mxGeometry relative="1" as="geometry" />
        </mxCell>
        <mxCell id="2Tm_Ltb03jzVko9ipjSE-10" value="" style="points=[[0.145,0.145,0],[0.5,0,0],[0.855,0.145,0],[1,0.5,0],[0.855,0.855,0],[0.5,1,0],[0.145,0.855,0],[0,0.5,0]];shape=mxgraph.bpmn.event;html=1;verticalLabelPosition=bottom;labelBackgroundColor=#ffffff;verticalAlign=top;align=center;perimeter=ellipsePerimeter;outlineConnect=0;aspect=fixed;outline=end;symbol=message;fillColor=#f8cecc;strokeColor=#b85450;" vertex="1" parent="mKWMjUT8p4GS5gXHNYaC-13">
          <mxGeometry x="1120" y="42.5" width="35" height="35" as="geometry" />
        </mxCell>
        <mxCell id="2Tm_Ltb03jzVko9ipjSE-11" style="edgeStyle=orthogonalEdgeStyle;rounded=0;orthogonalLoop=1;jettySize=auto;html=1;" edge="1" parent="mKWMjUT8p4GS5gXHNYaC-13" source="2Tm_Ltb03jzVko9ipjSE-8" target="2Tm_Ltb03jzVko9ipjSE-10">
          <mxGeometry relative="1" as="geometry" />
        </mxCell>
        <mxCell id="5CF_1HLAxywndgFjs6Sz-41" value="Vendedor" style="swimlane;html=1;startSize=20;fontStyle=0;collapsible=0;horizontal=0;swimlaneLine=1;swimlaneFillColor=#ffffff;strokeWidth=2;whiteSpace=wrap;" vertex="1" parent="5CF_1HLAxywndgFjs6Sz-1">
          <mxGeometry x="40" y="200" width="1560" height="120" as="geometry" />
        </mxCell>
        <mxCell id="5CF_1HLAxywndgFjs6Sz-42" style="edgeStyle=orthogonalEdgeStyle;rounded=0;orthogonalLoop=1;jettySize=auto;html=1;entryX=0;entryY=0.5;entryDx=0;entryDy=0;entryPerimeter=0;" edge="1" parent="5CF_1HLAxywndgFjs6Sz-41" source="5CF_1HLAxywndgFjs6Sz-43" target="5CF_1HLAxywndgFjs6Sz-45">
          <mxGeometry relative="1" as="geometry" />
        </mxCell>
        <mxCell id="5CF_1HLAxywndgFjs6Sz-43" value="" style="points=[[0.145,0.145,0],[0.5,0,0],[0.855,0.145,0],[1,0.5,0],[0.855,0.855,0],[0.5,1,0],[0.145,0.855,0],[0,0.5,0]];shape=mxgraph.bpmn.event;html=1;verticalLabelPosition=bottom;labelBackgroundColor=#ffffff;verticalAlign=top;align=center;perimeter=ellipsePerimeter;outlineConnect=0;aspect=fixed;outline=standard;symbol=general;fillColor=#d5e8d4;strokeColor=#82b366;" vertex="1" parent="5CF_1HLAxywndgFjs6Sz-41">
          <mxGeometry x="60" y="42.5" width="35" height="35" as="geometry" />
        </mxCell>
        <mxCell id="5CF_1HLAxywndgFjs6Sz-44" style="edgeStyle=orthogonalEdgeStyle;rounded=0;orthogonalLoop=1;jettySize=auto;html=1;entryX=0;entryY=0.5;entryDx=0;entryDy=0;entryPerimeter=0;" edge="1" parent="5CF_1HLAxywndgFjs6Sz-41" source="5CF_1HLAxywndgFjs6Sz-45" target="5CF_1HLAxywndgFjs6Sz-50">
          <mxGeometry relative="1" as="geometry" />
        </mxCell>
        <mxCell id="5CF_1HLAxywndgFjs6Sz-45" value="Realiza login" style="points=[[0.25,0,0],[0.5,0,0],[0.75,0,0],[1,0.25,0],[1,0.5,0],[1,0.75,0],[0.75,1,0],[0.5,1,0],[0.25,1,0],[0,0.75,0],[0,0.5,0],[0,0.25,0]];shape=mxgraph.bpmn.task;whiteSpace=wrap;rectStyle=rounded;size=10;html=1;container=1;expand=0;collapsible=0;taskMarker=abstract;fillColor=#dae8fc;strokeColor=#6c8ebf;" vertex="1" parent="5CF_1HLAxywndgFjs6Sz-41">
          <mxGeometry x="130" y="35" width="97.5" height="50" as="geometry" />
        </mxCell>
        <mxCell id="5CF_1HLAxywndgFjs6Sz-46" style="edgeStyle=orthogonalEdgeStyle;rounded=0;orthogonalLoop=1;jettySize=auto;html=1;exitX=1;exitY=0.5;exitDx=0;exitDy=0;exitPerimeter=0;entryX=0;entryY=0.5;entryDx=0;entryDy=0;entryPerimeter=0;" edge="1" parent="5CF_1HLAxywndgFjs6Sz-41" source="5CF_1HLAxywndgFjs6Sz-50" target="5CF_1HLAxywndgFjs6Sz-51">
          <mxGeometry relative="1" as="geometry" />
        </mxCell>
        <mxCell id="5CF_1HLAxywndgFjs6Sz-47" value="Não" style="edgeLabel;html=1;align=center;verticalAlign=middle;resizable=0;points=[];" vertex="1" connectable="0" parent="5CF_1HLAxywndgFjs6Sz-46">
          <mxGeometry x="0.1667" y="2" relative="1" as="geometry">
            <mxPoint x="-11" y="2" as="offset" />
          </mxGeometry>
        </mxCell>
        <mxCell id="sL6UvwL3s6U5AZZz8PII-1" style="edgeStyle=orthogonalEdgeStyle;rounded=0;orthogonalLoop=1;jettySize=auto;html=1;entryX=0.5;entryY=0;entryDx=0;entryDy=0;entryPerimeter=0;" edge="1" parent="5CF_1HLAxywndgFjs6Sz-41" source="5CF_1HLAxywndgFjs6Sz-50" target="5CF_1HLAxywndgFjs6Sz-53">
          <mxGeometry relative="1" as="geometry">
            <Array as="points">
              <mxPoint x="285" y="15" />
              <mxPoint x="565" y="15" />
            </Array>
          </mxGeometry>
        </mxCell>
        <mxCell id="sL6UvwL3s6U5AZZz8PII-2" value="Sim" style="edgeLabel;html=1;align=center;verticalAlign=middle;resizable=0;points=[];" vertex="1" connectable="0" parent="sL6UvwL3s6U5AZZz8PII-1">
          <mxGeometry x="0.1229" relative="1" as="geometry">
            <mxPoint as="offset" />
          </mxGeometry>
        </mxCell>
        <mxCell id="5CF_1HLAxywndgFjs6Sz-50" value="Possui cadastro ?" style="points=[[0.25,0.25,0],[0.5,0,0],[0.75,0.25,0],[1,0.5,0],[0.75,0.75,0],[0.5,1,0],[0.25,0.75,0],[0,0.5,0]];shape=mxgraph.bpmn.gateway2;html=1;verticalLabelPosition=bottom;labelBackgroundColor=#ffffff;verticalAlign=top;align=center;perimeter=rhombusPerimeter;outlineConnect=0;outline=none;symbol=none;fillColor=#fff2cc;strokeColor=#d6b656;" vertex="1" parent="5CF_1HLAxywndgFjs6Sz-41">
          <mxGeometry x="270" y="43.75" width="30" height="32.5" as="geometry" />
        </mxCell>
        <mxCell id="5CF_1HLAxywndgFjs6Sz-51" value="Envia cadastro" style="points=[[0.25,0,0],[0.5,0,0],[0.75,0,0],[1,0.25,0],[1,0.5,0],[1,0.75,0],[0.75,1,0],[0.5,1,0],[0.25,1,0],[0,0.75,0],[0,0.5,0],[0,0.25,0]];shape=mxgraph.bpmn.task;whiteSpace=wrap;rectStyle=rounded;size=10;html=1;container=1;expand=0;collapsible=0;taskMarker=abstract;fillColor=#dae8fc;strokeColor=#6c8ebf;" vertex="1" parent="5CF_1HLAxywndgFjs6Sz-41">
          <mxGeometry x="360" y="35" width="97.5" height="50" as="geometry" />
        </mxCell>
        <mxCell id="5CF_1HLAxywndgFjs6Sz-52" value="" style="edgeStyle=orthogonalEdgeStyle;rounded=0;orthogonalLoop=1;jettySize=auto;html=1;" edge="1" parent="5CF_1HLAxywndgFjs6Sz-41" source="5CF_1HLAxywndgFjs6Sz-53" target="5CF_1HLAxywndgFjs6Sz-56">
          <mxGeometry relative="1" as="geometry" />
        </mxCell>
        <mxCell id="5CF_1HLAxywndgFjs6Sz-53" value="Cadastra informações de produto" style="points=[[0.25,0,0],[0.5,0,0],[0.75,0,0],[1,0.25,0],[1,0.5,0],[1,0.75,0],[0.75,1,0],[0.5,1,0],[0.25,1,0],[0,0.75,0],[0,0.5,0],[0,0.25,0]];shape=mxgraph.bpmn.task;whiteSpace=wrap;rectStyle=rounded;size=10;html=1;container=1;expand=0;collapsible=0;taskMarker=abstract;fillColor=#dae8fc;strokeColor=#6c8ebf;" vertex="1" parent="5CF_1HLAxywndgFjs6Sz-41">
          <mxGeometry x="510" y="35" width="110" height="50" as="geometry" />
        </mxCell>
        <mxCell id="5CF_1HLAxywndgFjs6Sz-54" style="edgeStyle=orthogonalEdgeStyle;rounded=0;orthogonalLoop=1;jettySize=auto;html=1;" edge="1" parent="5CF_1HLAxywndgFjs6Sz-41" source="5CF_1HLAxywndgFjs6Sz-51" target="5CF_1HLAxywndgFjs6Sz-53">
          <mxGeometry relative="1" as="geometry">
            <mxPoint x="640" y="59.999999999999886" as="targetPoint" />
          </mxGeometry>
        </mxCell>
        <mxCell id="5CF_1HLAxywndgFjs6Sz-55" value="" style="edgeStyle=orthogonalEdgeStyle;rounded=0;orthogonalLoop=1;jettySize=auto;html=1;entryX=0;entryY=0.5;entryDx=0;entryDy=0;entryPerimeter=0;" edge="1" parent="5CF_1HLAxywndgFjs6Sz-41" source="5CF_1HLAxywndgFjs6Sz-56" target="mKWMjUT8p4GS5gXHNYaC-0">
          <mxGeometry relative="1" as="geometry">
            <mxPoint x="860" y="60" as="targetPoint" />
          </mxGeometry>
        </mxCell>
        <mxCell id="5CF_1HLAxywndgFjs6Sz-56" value="Posta produto para o envio ao especilista" style="points=[[0.25,0,0],[0.5,0,0],[0.75,0,0],[1,0.25,0],[1,0.5,0],[1,0.75,0],[0.75,1,0],[0.5,1,0],[0.25,1,0],[0,0.75,0],[0,0.5,0],[0,0.25,0]];shape=mxgraph.bpmn.task;whiteSpace=wrap;rectStyle=rounded;size=10;html=1;container=1;expand=0;collapsible=0;taskMarker=abstract;fillColor=#dae8fc;strokeColor=#6c8ebf;" vertex="1" parent="5CF_1HLAxywndgFjs6Sz-41">
          <mxGeometry x="670" y="35" width="120" height="50" as="geometry" />
        </mxCell>
        <mxCell id="2Tm_Ltb03jzVko9ipjSE-25" style="edgeStyle=orthogonalEdgeStyle;rounded=0;orthogonalLoop=1;jettySize=auto;html=1;entryX=0;entryY=0.5;entryDx=0;entryDy=0;entryPerimeter=0;" edge="1" parent="5CF_1HLAxywndgFjs6Sz-41" source="mKWMjUT8p4GS5gXHNYaC-0" target="2Tm_Ltb03jzVko9ipjSE-24">
          <mxGeometry relative="1" as="geometry" />
        </mxCell>
        <mxCell id="mKWMjUT8p4GS5gXHNYaC-0" value="Aguarda avalição do produto" style="points=[[0.145,0.145,0],[0.5,0,0],[0.855,0.145,0],[1,0.5,0],[0.855,0.855,0],[0.5,1,0],[0.145,0.855,0],[0,0.5,0]];shape=mxgraph.bpmn.event;html=1;verticalLabelPosition=bottom;labelBackgroundColor=#ffffff;verticalAlign=top;align=center;perimeter=ellipsePerimeter;outlineConnect=0;aspect=fixed;outline=throwing;symbol=general;fillColor=#fff2cc;strokeColor=#d6b656;" vertex="1" parent="5CF_1HLAxywndgFjs6Sz-41">
          <mxGeometry x="870" y="43.75" width="32.5" height="32.5" as="geometry" />
        </mxCell>
        <mxCell id="2Tm_Ltb03jzVko9ipjSE-36" style="edgeStyle=orthogonalEdgeStyle;rounded=0;orthogonalLoop=1;jettySize=auto;html=1;" edge="1" parent="5CF_1HLAxywndgFjs6Sz-41" source="2Tm_Ltb03jzVko9ipjSE-24" target="2Tm_Ltb03jzVko9ipjSE-35">
          <mxGeometry relative="1" as="geometry" />
        </mxCell>
        <mxCell id="2Tm_Ltb03jzVko9ipjSE-24" value="Confirma cadastro do produto" style="points=[[0.25,0,0],[0.5,0,0],[0.75,0,0],[1,0.25,0],[1,0.5,0],[1,0.75,0],[0.75,1,0],[0.5,1,0],[0.25,1,0],[0,0.75,0],[0,0.5,0],[0,0.25,0]];shape=mxgraph.bpmn.task;whiteSpace=wrap;rectStyle=rounded;size=10;html=1;container=1;expand=0;collapsible=0;taskMarker=abstract;fillColor=#dae8fc;strokeColor=#6c8ebf;" vertex="1" parent="5CF_1HLAxywndgFjs6Sz-41">
          <mxGeometry x="1240" y="35" width="120" height="50" as="geometry" />
        </mxCell>
        <mxCell id="2Tm_Ltb03jzVko9ipjSE-35" value="Cadastro de produto &lt;br&gt;finalizado" style="points=[[0.145,0.145,0],[0.5,0,0],[0.855,0.145,0],[1,0.5,0],[0.855,0.855,0],[0.5,1,0],[0.145,0.855,0],[0,0.5,0]];shape=mxgraph.bpmn.event;html=1;verticalLabelPosition=bottom;labelBackgroundColor=#ffffff;verticalAlign=top;align=center;perimeter=ellipsePerimeter;outlineConnect=0;aspect=fixed;outline=end;symbol=terminate2;fillColor=#f8cecc;strokeColor=#b85450;" vertex="1" parent="5CF_1HLAxywndgFjs6Sz-41">
          <mxGeometry x="1470" y="42.5" width="35" height="35" as="geometry" />
        </mxCell>
        <mxCell id="5CF_1HLAxywndgFjs6Sz-68" value="" style="edgeStyle=elbowEdgeStyle;fontSize=12;html=1;endFill=0;startFill=0;endSize=6;startSize=6;dashed=1;dashPattern=1 4;endArrow=openThin;startArrow=none;rounded=0;exitX=0.25;exitY=1;exitDx=0;exitDy=0;exitPerimeter=0;entryX=0.188;entryY=0.043;entryDx=0;entryDy=0;entryPerimeter=0;elbow=vertical;" edge="1" parent="5CF_1HLAxywndgFjs6Sz-1" source="5CF_1HLAxywndgFjs6Sz-45" target="5CF_1HLAxywndgFjs6Sz-6">
          <mxGeometry width="160" relative="1" as="geometry">
            <mxPoint x="570" y="450" as="sourcePoint" />
            <mxPoint x="730" y="450" as="targetPoint" />
            <Array as="points">
              <mxPoint x="250" y="330" />
            </Array>
          </mxGeometry>
        </mxCell>
        <mxCell id="5CF_1HLAxywndgFjs6Sz-69" value="Envia informações" style="edgeLabel;html=1;align=center;verticalAlign=middle;resizable=0;points=[];" vertex="1" connectable="0" parent="5CF_1HLAxywndgFjs6Sz-68">
          <mxGeometry x="-0.3005" relative="1" as="geometry">
            <mxPoint x="-18" y="-15" as="offset" />
          </mxGeometry>
        </mxCell>
        <mxCell id="5CF_1HLAxywndgFjs6Sz-70" value="" style="edgeStyle=elbowEdgeStyle;fontSize=12;html=1;endFill=0;startFill=0;endSize=6;startSize=6;dashed=1;dashPattern=1 4;endArrow=openThin;startArrow=none;rounded=0;entryX=0.75;entryY=1;entryDx=0;entryDy=0;entryPerimeter=0;exitX=0.75;exitY=0;exitDx=0;exitDy=0;exitPerimeter=0;elbow=vertical;" edge="1" parent="5CF_1HLAxywndgFjs6Sz-1" source="5CF_1HLAxywndgFjs6Sz-6" target="5CF_1HLAxywndgFjs6Sz-45">
          <mxGeometry width="160" relative="1" as="geometry">
            <mxPoint x="570" y="450" as="sourcePoint" />
            <mxPoint x="730" y="450" as="targetPoint" />
            <Array as="points">
              <mxPoint x="250" y="340" />
            </Array>
          </mxGeometry>
        </mxCell>
        <mxCell id="5CF_1HLAxywndgFjs6Sz-71" value="" style="edgeStyle=elbowEdgeStyle;fontSize=12;html=1;endFill=0;startFill=0;endSize=6;startSize=6;dashed=1;dashPattern=1 4;endArrow=openThin;startArrow=none;rounded=0;exitX=0.393;exitY=1.01;exitDx=0;exitDy=0;exitPerimeter=0;entryX=0.25;entryY=0;entryDx=0;entryDy=0;entryPerimeter=0;elbow=vertical;" edge="1" parent="5CF_1HLAxywndgFjs6Sz-1" source="5CF_1HLAxywndgFjs6Sz-51" target="5CF_1HLAxywndgFjs6Sz-11">
          <mxGeometry width="160" relative="1" as="geometry">
            <mxPoint x="540" y="350" as="sourcePoint" />
            <mxPoint x="700" y="350" as="targetPoint" />
            <Array as="points">
              <mxPoint x="440" y="330" />
              <mxPoint x="450" y="350" />
            </Array>
          </mxGeometry>
        </mxCell>
        <mxCell id="5CF_1HLAxywndgFjs6Sz-72" value="Envia informações" style="edgeLabel;html=1;align=center;verticalAlign=middle;resizable=0;points=[];" vertex="1" connectable="0" parent="5CF_1HLAxywndgFjs6Sz-71">
          <mxGeometry x="-0.6106" y="2" relative="1" as="geometry">
            <mxPoint x="-40" y="32" as="offset" />
          </mxGeometry>
        </mxCell>
        <mxCell id="5CF_1HLAxywndgFjs6Sz-73" value="" style="edgeStyle=elbowEdgeStyle;fontSize=12;html=1;endFill=0;startFill=0;endSize=6;startSize=6;dashed=1;dashPattern=1 4;endArrow=openThin;startArrow=none;rounded=0;entryX=0.75;entryY=1;entryDx=0;entryDy=0;entryPerimeter=0;exitX=0.75;exitY=0;exitDx=0;exitDy=0;exitPerimeter=0;elbow=vertical;" edge="1" parent="5CF_1HLAxywndgFjs6Sz-1" source="5CF_1HLAxywndgFjs6Sz-11" target="5CF_1HLAxywndgFjs6Sz-51">
          <mxGeometry width="160" relative="1" as="geometry">
            <mxPoint x="540" y="350" as="sourcePoint" />
            <mxPoint x="700" y="350" as="targetPoint" />
            <Array as="points">
              <mxPoint x="483" y="350" />
              <mxPoint x="420" y="340" />
            </Array>
          </mxGeometry>
        </mxCell>
        <mxCell id="5CF_1HLAxywndgFjs6Sz-74" value="" style="edgeStyle=elbowEdgeStyle;fontSize=12;html=1;endFill=0;startFill=0;endSize=6;startSize=6;dashed=1;dashPattern=1 4;endArrow=openThin;startArrow=none;rounded=0;exitX=0.25;exitY=1;exitDx=0;exitDy=0;exitPerimeter=0;entryX=0.25;entryY=0;entryDx=0;entryDy=0;entryPerimeter=0;elbow=vertical;" edge="1" parent="5CF_1HLAxywndgFjs6Sz-1" source="5CF_1HLAxywndgFjs6Sz-53" target="5CF_1HLAxywndgFjs6Sz-14">
          <mxGeometry width="160" relative="1" as="geometry">
            <mxPoint x="700" y="350" as="sourcePoint" />
            <mxPoint x="860" y="350" as="targetPoint" />
            <Array as="points">
              <mxPoint x="700" y="350" />
            </Array>
          </mxGeometry>
        </mxCell>
        <mxCell id="5CF_1HLAxywndgFjs6Sz-75" value="Solicita cadastro" style="edgeLabel;html=1;align=center;verticalAlign=middle;resizable=0;points=[];" vertex="1" connectable="0" parent="5CF_1HLAxywndgFjs6Sz-74">
          <mxGeometry x="0.3377" y="2" relative="1" as="geometry">
            <mxPoint x="-81" y="-8" as="offset" />
          </mxGeometry>
        </mxCell>
        <mxCell id="5CF_1HLAxywndgFjs6Sz-76" value="" style="edgeStyle=elbowEdgeStyle;fontSize=12;html=1;endFill=0;startFill=0;endSize=6;startSize=6;dashed=1;dashPattern=1 4;endArrow=openThin;startArrow=none;rounded=0;entryX=0.75;entryY=1;entryDx=0;entryDy=0;entryPerimeter=0;exitX=0.5;exitY=0;exitDx=0;exitDy=0;exitPerimeter=0;elbow=vertical;" edge="1" parent="5CF_1HLAxywndgFjs6Sz-1" source="5CF_1HLAxywndgFjs6Sz-14" target="5CF_1HLAxywndgFjs6Sz-53">
          <mxGeometry width="160" relative="1" as="geometry">
            <mxPoint x="540" y="350" as="sourcePoint" />
            <mxPoint x="700" y="350" as="targetPoint" />
          </mxGeometry>
        </mxCell>
        <mxCell id="5CF_1HLAxywndgFjs6Sz-79" value="" style="edgeStyle=elbowEdgeStyle;fontSize=12;html=1;endFill=0;startFill=0;endSize=6;startSize=6;dashed=1;dashPattern=1 4;endArrow=openThin;startArrow=none;rounded=0;entryX=0.75;entryY=1;entryDx=0;entryDy=0;entryPerimeter=0;elbow=vertical;exitX=0.5;exitY=0;exitDx=0;exitDy=0;exitPerimeter=0;" edge="1" parent="5CF_1HLAxywndgFjs6Sz-1" source="5CF_1HLAxywndgFjs6Sz-19" target="5CF_1HLAxywndgFjs6Sz-56">
          <mxGeometry width="160" relative="1" as="geometry">
            <mxPoint x="910" y="390" as="sourcePoint" />
            <mxPoint x="975" y="280" as="targetPoint" />
            <Array as="points">
              <mxPoint x="860" y="330" />
              <mxPoint x="900" y="310" />
            </Array>
          </mxGeometry>
        </mxCell>
        <mxCell id="5CF_1HLAxywndgFjs6Sz-77" value="" style="edgeStyle=elbowEdgeStyle;fontSize=12;html=1;endFill=0;startFill=0;endSize=6;startSize=6;dashed=1;dashPattern=1 4;endArrow=openThin;startArrow=none;rounded=0;exitX=0.25;exitY=1;exitDx=0;exitDy=0;exitPerimeter=0;entryX=0.25;entryY=0;entryDx=0;entryDy=0;entryPerimeter=0;elbow=vertical;" edge="1" parent="5CF_1HLAxywndgFjs6Sz-1" source="5CF_1HLAxywndgFjs6Sz-56" target="5CF_1HLAxywndgFjs6Sz-19">
          <mxGeometry width="160" relative="1" as="geometry">
            <mxPoint x="770" y="292.5" as="sourcePoint" />
            <mxPoint x="964.375" y="402.5" as="targetPoint" />
            <Array as="points">
              <mxPoint x="860" y="350" />
            </Array>
          </mxGeometry>
        </mxCell>
        <mxCell id="5CF_1HLAxywndgFjs6Sz-78" value="Registra a postagem" style="edgeLabel;html=1;align=center;verticalAlign=middle;resizable=0;points=[];" vertex="1" connectable="0" parent="5CF_1HLAxywndgFjs6Sz-77">
          <mxGeometry x="-0.3718" y="-2" relative="1" as="geometry">
            <mxPoint x="-93" y="-2" as="offset" />
          </mxGeometry>
        </mxCell>
        <mxCell id="mKWMjUT8p4GS5gXHNYaC-8" value="Sistema" style="swimlane;childLayout=stackLayout;resizeParent=1;resizeParentMax=0;horizontal=0;startSize=20;horizontalStack=0;html=1;" vertex="1" parent="5CF_1HLAxywndgFjs6Sz-1">
          <mxGeometry x="40" y="360" width="1560" height="360" as="geometry" />
        </mxCell>
        <mxCell id="gVHYKL9ex2RMPbyl-Cjv-72" value="" style="edgeStyle=elbowEdgeStyle;fontSize=12;html=1;endFill=0;startFill=0;endSize=6;startSize=6;dashed=1;dashPattern=1 4;endArrow=openThin;startArrow=none;rounded=0;exitX=0.25;exitY=0;exitDx=0;exitDy=0;exitPerimeter=0;entryX=0.25;entryY=1;entryDx=0;entryDy=0;entryPerimeter=0;elbow=vertical;" edge="1" parent="5CF_1HLAxywndgFjs6Sz-1" source="gVHYKL9ex2RMPbyl-Cjv-59" target="5CF_1HLAxywndgFjs6Sz-6">
          <mxGeometry width="160" relative="1" as="geometry">
            <mxPoint x="204" y="295" as="sourcePoint" />
            <mxPoint x="188" y="525" as="targetPoint" />
            <Array as="points">
              <mxPoint x="190" y="740" />
            </Array>
          </mxGeometry>
        </mxCell>
        <mxCell id="gVHYKL9ex2RMPbyl-Cjv-73" value="Envia informações" style="edgeLabel;html=1;align=center;verticalAlign=middle;resizable=0;points=[];" vertex="1" connectable="0" parent="gVHYKL9ex2RMPbyl-Cjv-72">
          <mxGeometry x="-0.3005" relative="1" as="geometry">
            <mxPoint x="-34" y="19" as="offset" />
          </mxGeometry>
        </mxCell>
        <mxCell id="gVHYKL9ex2RMPbyl-Cjv-83" value="" style="edgeStyle=elbowEdgeStyle;fontSize=12;html=1;endFill=0;startFill=0;endSize=6;startSize=6;dashed=1;dashPattern=1 4;endArrow=openThin;startArrow=none;rounded=0;entryX=0.25;entryY=1;entryDx=0;entryDy=0;entryPerimeter=0;exitX=0.25;exitY=0;exitDx=0;exitDy=0;exitPerimeter=0;elbow=vertical;" edge="1" parent="5CF_1HLAxywndgFjs6Sz-1" source="gVHYKL9ex2RMPbyl-Cjv-65" target="mKWMjUT8p4GS5gXHNYaC-22">
          <mxGeometry width="160" relative="1" as="geometry">
            <mxPoint x="253" y="965" as="sourcePoint" />
            <mxPoint x="219" y="573" as="targetPoint" />
            <Array as="points">
              <mxPoint x="370" y="750" />
            </Array>
          </mxGeometry>
        </mxCell>
        <mxCell id="gVHYKL9ex2RMPbyl-Cjv-84" value="" style="edgeStyle=elbowEdgeStyle;fontSize=12;html=1;endFill=0;startFill=0;endSize=6;startSize=6;dashed=1;dashPattern=1 4;endArrow=openThin;startArrow=none;rounded=0;entryX=0.5;entryY=0;entryDx=0;entryDy=0;entryPerimeter=0;exitX=0.821;exitY=1.05;exitDx=0;exitDy=0;exitPerimeter=0;elbow=vertical;" edge="1" parent="5CF_1HLAxywndgFjs6Sz-1" source="mKWMjUT8p4GS5gXHNYaC-22" target="gVHYKL9ex2RMPbyl-Cjv-65">
          <mxGeometry width="160" relative="1" as="geometry">
            <mxPoint x="434" y="965" as="sourcePoint" />
            <mxPoint x="324" y="698" as="targetPoint" />
            <Array as="points">
              <mxPoint x="420" y="730" />
            </Array>
          </mxGeometry>
        </mxCell>
        <mxCell id="gVHYKL9ex2RMPbyl-Cjv-85" value="Envia informações" style="edgeLabel;html=1;align=center;verticalAlign=middle;resizable=0;points=[];" vertex="1" connectable="0" parent="5CF_1HLAxywndgFjs6Sz-1">
          <mxGeometry x="309.9975000000001" y="739.9968965517241" as="geometry" />
        </mxCell>
        <mxCell id="gVHYKL9ex2RMPbyl-Cjv-74" value="" style="edgeStyle=elbowEdgeStyle;fontSize=12;html=1;endFill=0;startFill=0;endSize=6;startSize=6;dashed=1;dashPattern=1 4;endArrow=openThin;startArrow=none;rounded=0;entryX=0.5;entryY=0;entryDx=0;entryDy=0;entryPerimeter=0;exitX=0.5;exitY=1;exitDx=0;exitDy=0;exitPerimeter=0;elbow=vertical;" edge="1" parent="5CF_1HLAxywndgFjs6Sz-1" source="5CF_1HLAxywndgFjs6Sz-6" target="gVHYKL9ex2RMPbyl-Cjv-59">
          <mxGeometry width="160" relative="1" as="geometry">
            <mxPoint x="250" y="938" as="sourcePoint" />
            <mxPoint x="260" y="710" as="targetPoint" />
            <Array as="points">
              <mxPoint x="230" y="740" />
            </Array>
          </mxGeometry>
        </mxCell>
        <mxCell id="2Tm_Ltb03jzVko9ipjSE-0" value="" style="edgeStyle=elbowEdgeStyle;fontSize=12;html=1;endFill=0;startFill=0;endSize=6;startSize=6;dashed=1;dashPattern=1 4;endArrow=openThin;startArrow=none;rounded=0;entryX=0.75;entryY=0;entryDx=0;entryDy=0;entryPerimeter=0;exitX=0.75;exitY=1;exitDx=0;exitDy=0;exitPerimeter=0;elbow=vertical;" edge="1" parent="5CF_1HLAxywndgFjs6Sz-1" source="mKWMjUT8p4GS5gXHNYaC-25" target="gVHYKL9ex2RMPbyl-Cjv-67">
          <mxGeometry width="160" relative="1" as="geometry">
            <mxPoint x="380" y="700" as="sourcePoint" />
            <mxPoint x="459" y="805" as="targetPoint" />
            <Array as="points">
              <mxPoint x="620" y="740" />
            </Array>
          </mxGeometry>
        </mxCell>
        <mxCell id="2Tm_Ltb03jzVko9ipjSE-1" value="" style="edgeStyle=elbowEdgeStyle;fontSize=12;html=1;endFill=0;startFill=0;endSize=6;startSize=6;dashed=1;dashPattern=1 4;endArrow=openThin;startArrow=none;rounded=0;entryX=0.25;entryY=1;entryDx=0;entryDy=0;entryPerimeter=0;elbow=vertical;" edge="1" parent="5CF_1HLAxywndgFjs6Sz-1" target="mKWMjUT8p4GS5gXHNYaC-30">
          <mxGeometry width="160" relative="1" as="geometry">
            <mxPoint x="730" y="790" as="sourcePoint" />
            <mxPoint x="578" y="698" as="targetPoint" />
            <Array as="points">
              <mxPoint x="750" y="740" />
            </Array>
          </mxGeometry>
        </mxCell>
        <mxCell id="2Tm_Ltb03jzVko9ipjSE-2" value="Informa sistema" style="edgeLabel;html=1;align=center;verticalAlign=middle;resizable=0;points=[];" vertex="1" connectable="0" parent="2Tm_Ltb03jzVko9ipjSE-1">
          <mxGeometry x="0.2598" relative="1" as="geometry">
            <mxPoint x="-25" as="offset" />
          </mxGeometry>
        </mxCell>
        <mxCell id="2Tm_Ltb03jzVko9ipjSE-3" value="" style="edgeStyle=elbowEdgeStyle;fontSize=12;html=1;endFill=0;startFill=0;endSize=6;startSize=6;dashed=1;dashPattern=1 4;endArrow=openThin;startArrow=none;rounded=0;entryX=0.75;entryY=0;entryDx=0;entryDy=0;entryPerimeter=0;exitX=0.5;exitY=1;exitDx=0;exitDy=0;exitPerimeter=0;elbow=vertical;" edge="1" parent="5CF_1HLAxywndgFjs6Sz-1" source="mKWMjUT8p4GS5gXHNYaC-30" target="gVHYKL9ex2RMPbyl-Cjv-70">
          <mxGeometry width="160" relative="1" as="geometry">
            <mxPoint x="633" y="698" as="sourcePoint" />
            <mxPoint x="643" y="805" as="targetPoint" />
            <Array as="points">
              <mxPoint x="810" y="750" />
            </Array>
          </mxGeometry>
        </mxCell>
        <mxCell id="2Tm_Ltb03jzVko9ipjSE-14" value="" style="edgeStyle=elbowEdgeStyle;fontSize=12;html=1;endFill=0;startFill=0;endSize=6;startSize=6;dashed=1;dashPattern=1 4;endArrow=openThin;startArrow=none;rounded=0;entryX=0.25;entryY=1;entryDx=0;entryDy=0;entryPerimeter=0;elbow=vertical;exitX=0.25;exitY=0;exitDx=0;exitDy=0;exitPerimeter=0;" edge="1" parent="5CF_1HLAxywndgFjs6Sz-1" source="Zbi1RC9vC-YujB26gkKQ-0">
          <mxGeometry width="160" relative="1" as="geometry">
            <mxPoint x="1000" y="792.5" as="sourcePoint" />
            <mxPoint x="1078" y="687.5" as="targetPoint" />
            <Array as="points">
              <mxPoint x="1020" y="742.5" />
            </Array>
          </mxGeometry>
        </mxCell>
        <mxCell id="2Tm_Ltb03jzVko9ipjSE-15" value="Informa sistema" style="edgeLabel;html=1;align=center;verticalAlign=middle;resizable=0;points=[];" vertex="1" connectable="0" parent="2Tm_Ltb03jzVko9ipjSE-14">
          <mxGeometry x="0.2598" relative="1" as="geometry">
            <mxPoint x="-25" as="offset" />
          </mxGeometry>
        </mxCell>
        <mxCell id="2Tm_Ltb03jzVko9ipjSE-16" value="" style="edgeStyle=elbowEdgeStyle;fontSize=12;html=1;endFill=0;startFill=0;endSize=6;startSize=6;dashed=1;dashPattern=1 4;endArrow=openThin;startArrow=none;rounded=0;entryX=0.75;entryY=0;entryDx=0;entryDy=0;entryPerimeter=0;exitX=0.75;exitY=1;exitDx=0;exitDy=0;exitPerimeter=0;elbow=vertical;" edge="1" parent="5CF_1HLAxywndgFjs6Sz-1" source="2Tm_Ltb03jzVko9ipjSE-8" target="Zbi1RC9vC-YujB26gkKQ-0">
          <mxGeometry width="160" relative="1" as="geometry">
            <mxPoint x="845" y="695" as="sourcePoint" />
            <mxPoint x="810" y="805" as="targetPoint" />
            <Array as="points">
              <mxPoint x="1120" y="750" />
            </Array>
          </mxGeometry>
        </mxCell>
        <mxCell id="2Tm_Ltb03jzVko9ipjSE-23" value="" style="edgeStyle=elbowEdgeStyle;fontSize=12;html=1;endFill=0;startFill=0;endSize=6;startSize=6;dashed=1;dashPattern=1 4;endArrow=openThin;startArrow=none;rounded=0;entryX=0.75;entryY=0;entryDx=0;entryDy=0;entryPerimeter=0;exitX=0.5;exitY=1;exitDx=0;exitDy=0;exitPerimeter=0;elbow=vertical;" edge="1" parent="5CF_1HLAxywndgFjs6Sz-1" source="5CF_1HLAxywndgFjs6Sz-19" target="Zbi1RC9vC-YujB26gkKQ-4">
          <mxGeometry width="160" relative="1" as="geometry">
            <mxPoint x="1133" y="695" as="sourcePoint" />
            <mxPoint x="1110" y="805" as="targetPoint" />
            <Array as="points">
              <mxPoint x="1280" y="730" />
            </Array>
          </mxGeometry>
        </mxCell>
        <mxCell id="2Tm_Ltb03jzVko9ipjSE-32" value="" style="edgeStyle=elbowEdgeStyle;fontSize=12;html=1;endFill=0;startFill=0;endSize=6;startSize=6;dashed=1;dashPattern=1 4;endArrow=openThin;startArrow=none;rounded=0;entryX=0.25;entryY=0;entryDx=0;entryDy=0;entryPerimeter=0;elbow=vertical;exitX=0.25;exitY=1;exitDx=0;exitDy=0;exitPerimeter=0;" edge="1" parent="5CF_1HLAxywndgFjs6Sz-1" source="2Tm_Ltb03jzVko9ipjSE-24" target="2Tm_Ltb03jzVko9ipjSE-27">
          <mxGeometry width="160" relative="1" as="geometry">
            <mxPoint x="1386" y="392.5" as="sourcePoint" />
            <mxPoint x="1424" y="285" as="targetPoint" />
            <Array as="points">
              <mxPoint x="1366" y="340" />
            </Array>
          </mxGeometry>
        </mxCell>
        <mxCell id="2Tm_Ltb03jzVko9ipjSE-33" value="Informa sistema" style="edgeLabel;html=1;align=center;verticalAlign=middle;resizable=0;points=[];" vertex="1" connectable="0" parent="2Tm_Ltb03jzVko9ipjSE-32">
          <mxGeometry x="0.2598" relative="1" as="geometry">
            <mxPoint x="-46" as="offset" />
          </mxGeometry>
        </mxCell>
        <mxCell id="2Tm_Ltb03jzVko9ipjSE-34" value="" style="edgeStyle=elbowEdgeStyle;fontSize=12;html=1;endFill=0;startFill=0;endSize=6;startSize=6;dashed=1;dashPattern=1 4;endArrow=openThin;startArrow=none;rounded=0;entryX=0.5;entryY=1;entryDx=0;entryDy=0;entryPerimeter=0;exitX=0.75;exitY=0;exitDx=0;exitDy=0;exitPerimeter=0;elbow=vertical;" edge="1" parent="5CF_1HLAxywndgFjs6Sz-1" source="2Tm_Ltb03jzVko9ipjSE-27" target="2Tm_Ltb03jzVko9ipjSE-24">
          <mxGeometry width="160" relative="1" as="geometry">
            <mxPoint x="1453" y="50" as="sourcePoint" />
            <mxPoint x="1430" y="160" as="targetPoint" />
            <Array as="points">
              <mxPoint x="1400" y="330" />
            </Array>
          </mxGeometry>
        </mxCell>
        <mxCell id="2Tm_Ltb03jzVko9ipjSE-21" value="" style="edgeStyle=elbowEdgeStyle;fontSize=12;html=1;endFill=0;startFill=0;endSize=6;startSize=6;dashed=1;dashPattern=1 4;endArrow=openThin;startArrow=none;rounded=0;entryX=0.25;entryY=1;entryDx=0;entryDy=0;entryPerimeter=0;elbow=vertical;exitX=0.25;exitY=0;exitDx=0;exitDy=0;exitPerimeter=0;" edge="1" parent="5CF_1HLAxywndgFjs6Sz-1" source="Zbi1RC9vC-YujB26gkKQ-4" target="5CF_1HLAxywndgFjs6Sz-19">
          <mxGeometry width="160" relative="1" as="geometry">
            <mxPoint x="1230" y="795" as="sourcePoint" />
            <mxPoint x="1268" y="687.5" as="targetPoint" />
            <Array as="points">
              <mxPoint x="1210" y="742.5" />
            </Array>
          </mxGeometry>
        </mxCell>
        <mxCell id="2Tm_Ltb03jzVko9ipjSE-22" value="Registra a postagem" style="edgeLabel;html=1;align=center;verticalAlign=middle;resizable=0;points=[];" vertex="1" connectable="0" parent="2Tm_Ltb03jzVko9ipjSE-21">
          <mxGeometry x="0.2598" relative="1" as="geometry">
            <mxPoint x="-15" y="74" as="offset" />
          </mxGeometry>
        </mxCell>
      </root>
    </mxGraphModel>
  </diagram>
  <diagram name="Modelo To Be Transportadora" id="2jqS7R5An7Y_EcLjWAeb">
    <mxGraphModel dx="1363" dy="860" grid="1" gridSize="10" guides="1" tooltips="1" connect="1" arrows="1" fold="1" page="1" pageScale="1" pageWidth="827" pageHeight="1169" math="0" shadow="0">
      <root>
        <mxCell id="EOJTsvQhWbHzyloepp2X-0" />
        <mxCell id="EOJTsvQhWbHzyloepp2X-1" parent="EOJTsvQhWbHzyloepp2X-0" />
        <mxCell id="EOJTsvQhWbHzyloepp2X-2" value="Usos Gerais" style="swimlane;html=1;startSize=20;fontStyle=0;collapsible=0;horizontal=0;swimlaneLine=1;swimlaneFillColor=#ffffff;strokeWidth=2;whiteSpace=wrap;" vertex="1" parent="EOJTsvQhWbHzyloepp2X-1">
          <mxGeometry x="60" y="480" width="1910" height="120" as="geometry" />
        </mxCell>
        <mxCell id="EOJTsvQhWbHzyloepp2X-3" value="Valida informações" style="points=[[0.25,0,0],[0.5,0,0],[0.75,0,0],[1,0.25,0],[1,0.5,0],[1,0.75,0],[0.75,1,0],[0.5,1,0],[0.25,1,0],[0,0.75,0],[0,0.5,0],[0,0.25,0]];shape=mxgraph.bpmn.task;whiteSpace=wrap;rectStyle=rounded;size=10;html=1;container=1;expand=0;collapsible=0;taskMarker=abstract;fillColor=#dae8fc;strokeColor=#6c8ebf;" vertex="1" parent="EOJTsvQhWbHzyloepp2X-2">
          <mxGeometry x="100" y="32.5" width="97.5" height="50" as="geometry" />
        </mxCell>
        <mxCell id="EOJTsvQhWbHzyloepp2X-4" value="" style="points=[[0.145,0.145,0],[0.5,0,0],[0.855,0.145,0],[1,0.5,0],[0.855,0.855,0],[0.5,1,0],[0.145,0.855,0],[0,0.5,0]];shape=mxgraph.bpmn.event;html=1;verticalLabelPosition=bottom;labelBackgroundColor=#ffffff;verticalAlign=top;align=center;perimeter=ellipsePerimeter;outlineConnect=0;aspect=fixed;outline=end;symbol=message;fillColor=#f8cecc;strokeColor=#b85450;" vertex="1" parent="EOJTsvQhWbHzyloepp2X-2">
          <mxGeometry x="220" y="40" width="35" height="35" as="geometry" />
        </mxCell>
        <mxCell id="EOJTsvQhWbHzyloepp2X-5" value="" style="points=[[0.145,0.145,0],[0.5,0,0],[0.855,0.145,0],[1,0.5,0],[0.855,0.855,0],[0.5,1,0],[0.145,0.855,0],[0,0.5,0]];shape=mxgraph.bpmn.event;html=1;verticalLabelPosition=bottom;labelBackgroundColor=#ffffff;verticalAlign=top;align=center;perimeter=ellipsePerimeter;outlineConnect=0;aspect=fixed;outline=standard;symbol=message;fillColor=#d5e8d4;strokeColor=#82b366;" vertex="1" parent="EOJTsvQhWbHzyloepp2X-2">
          <mxGeometry x="40" y="40" width="35" height="35" as="geometry" />
        </mxCell>
        <mxCell id="EOJTsvQhWbHzyloepp2X-6" style="edgeStyle=orthogonalEdgeStyle;rounded=0;orthogonalLoop=1;jettySize=auto;html=1;entryX=0;entryY=0.5;entryDx=0;entryDy=0;entryPerimeter=0;" edge="1" parent="EOJTsvQhWbHzyloepp2X-2" source="EOJTsvQhWbHzyloepp2X-3" target="EOJTsvQhWbHzyloepp2X-4">
          <mxGeometry relative="1" as="geometry" />
        </mxCell>
        <mxCell id="EOJTsvQhWbHzyloepp2X-7" style="edgeStyle=orthogonalEdgeStyle;rounded=0;orthogonalLoop=1;jettySize=auto;html=1;" edge="1" parent="EOJTsvQhWbHzyloepp2X-2" source="EOJTsvQhWbHzyloepp2X-5" target="EOJTsvQhWbHzyloepp2X-3">
          <mxGeometry relative="1" as="geometry" />
        </mxCell>
        <mxCell id="EOJTsvQhWbHzyloepp2X-8" value="" style="points=[[0.145,0.145,0],[0.5,0,0],[0.855,0.145,0],[1,0.5,0],[0.855,0.855,0],[0.5,1,0],[0.145,0.855,0],[0,0.5,0]];shape=mxgraph.bpmn.event;html=1;verticalLabelPosition=bottom;labelBackgroundColor=#ffffff;verticalAlign=top;align=center;perimeter=ellipsePerimeter;outlineConnect=0;aspect=fixed;outline=standard;symbol=message;fillColor=#d5e8d4;strokeColor=#82b366;" vertex="1" parent="EOJTsvQhWbHzyloepp2X-2">
          <mxGeometry x="770" y="40" width="35" height="35" as="geometry" />
        </mxCell>
        <mxCell id="EOJTsvQhWbHzyloepp2X-9" value="Confirma postagem" style="points=[[0.25,0,0],[0.5,0,0],[0.75,0,0],[1,0.25,0],[1,0.5,0],[1,0.75,0],[0.75,1,0],[0.5,1,0],[0.25,1,0],[0,0.75,0],[0,0.5,0],[0,0.25,0]];shape=mxgraph.bpmn.task;whiteSpace=wrap;rectStyle=rounded;size=10;html=1;container=1;expand=0;collapsible=0;taskMarker=abstract;fillColor=#dae8fc;strokeColor=#6c8ebf;" vertex="1" parent="EOJTsvQhWbHzyloepp2X-2">
          <mxGeometry x="830" y="32.5" width="97.5" height="50" as="geometry" />
        </mxCell>
        <mxCell id="EOJTsvQhWbHzyloepp2X-10" value="" style="points=[[0.145,0.145,0],[0.5,0,0],[0.855,0.145,0],[1,0.5,0],[0.855,0.855,0],[0.5,1,0],[0.145,0.855,0],[0,0.5,0]];shape=mxgraph.bpmn.event;html=1;verticalLabelPosition=bottom;labelBackgroundColor=#ffffff;verticalAlign=top;align=center;perimeter=ellipsePerimeter;outlineConnect=0;aspect=fixed;outline=end;symbol=message;fillColor=#f8cecc;strokeColor=#b85450;" vertex="1" parent="EOJTsvQhWbHzyloepp2X-2">
          <mxGeometry x="947.5" y="40" width="35" height="35" as="geometry" />
        </mxCell>
        <mxCell id="EOJTsvQhWbHzyloepp2X-11" style="edgeStyle=orthogonalEdgeStyle;rounded=0;orthogonalLoop=1;jettySize=auto;html=1;entryX=0;entryY=0.5;entryDx=0;entryDy=0;entryPerimeter=0;" edge="1" parent="EOJTsvQhWbHzyloepp2X-2" source="EOJTsvQhWbHzyloepp2X-8" target="EOJTsvQhWbHzyloepp2X-9">
          <mxGeometry relative="1" as="geometry" />
        </mxCell>
        <mxCell id="EOJTsvQhWbHzyloepp2X-12" style="edgeStyle=orthogonalEdgeStyle;rounded=0;orthogonalLoop=1;jettySize=auto;html=1;" edge="1" parent="EOJTsvQhWbHzyloepp2X-2" source="EOJTsvQhWbHzyloepp2X-9" target="EOJTsvQhWbHzyloepp2X-10">
          <mxGeometry relative="1" as="geometry" />
        </mxCell>
        <mxCell id="EOJTsvQhWbHzyloepp2X-13" value="Usos do Comprador" style="swimlane;html=1;startSize=20;fontStyle=0;collapsible=0;horizontal=0;swimlaneLine=1;swimlaneFillColor=#ffffff;strokeWidth=2;whiteSpace=wrap;" vertex="1" parent="EOJTsvQhWbHzyloepp2X-1">
          <mxGeometry x="60" y="360" width="1910" height="120" as="geometry" />
        </mxCell>
        <mxCell id="EOJTsvQhWbHzyloepp2X-14" style="edgeStyle=orthogonalEdgeStyle;rounded=0;orthogonalLoop=1;jettySize=auto;html=1;entryX=0;entryY=0.5;entryDx=0;entryDy=0;entryPerimeter=0;" edge="1" parent="EOJTsvQhWbHzyloepp2X-13" source="EOJTsvQhWbHzyloepp2X-15" target="EOJTsvQhWbHzyloepp2X-17">
          <mxGeometry relative="1" as="geometry" />
        </mxCell>
        <mxCell id="EOJTsvQhWbHzyloepp2X-15" value="" style="points=[[0.145,0.145,0],[0.5,0,0],[0.855,0.145,0],[1,0.5,0],[0.855,0.855,0],[0.5,1,0],[0.145,0.855,0],[0,0.5,0]];shape=mxgraph.bpmn.event;html=1;verticalLabelPosition=bottom;labelBackgroundColor=#ffffff;verticalAlign=top;align=center;perimeter=ellipsePerimeter;outlineConnect=0;aspect=fixed;outline=standard;symbol=message;fillColor=#d5e8d4;strokeColor=#82b366;" vertex="1" parent="EOJTsvQhWbHzyloepp2X-13">
          <mxGeometry x="270" y="42.5" width="35" height="35" as="geometry" />
        </mxCell>
        <mxCell id="EOJTsvQhWbHzyloepp2X-16" style="edgeStyle=orthogonalEdgeStyle;rounded=0;orthogonalLoop=1;jettySize=auto;html=1;" edge="1" parent="EOJTsvQhWbHzyloepp2X-13" source="EOJTsvQhWbHzyloepp2X-17" target="EOJTsvQhWbHzyloepp2X-18">
          <mxGeometry relative="1" as="geometry" />
        </mxCell>
        <mxCell id="EOJTsvQhWbHzyloepp2X-17" value="Cadastra Comprador" style="points=[[0.25,0,0],[0.5,0,0],[0.75,0,0],[1,0.25,0],[1,0.5,0],[1,0.75,0],[0.75,1,0],[0.5,1,0],[0.25,1,0],[0,0.75,0],[0,0.5,0],[0,0.25,0]];shape=mxgraph.bpmn.task;whiteSpace=wrap;rectStyle=rounded;size=10;html=1;container=1;expand=0;collapsible=0;taskMarker=abstract;fillColor=#dae8fc;strokeColor=#6c8ebf;" vertex="1" parent="EOJTsvQhWbHzyloepp2X-13">
          <mxGeometry x="330" y="35" width="97.5" height="50" as="geometry" />
        </mxCell>
        <mxCell id="EOJTsvQhWbHzyloepp2X-18" value="" style="points=[[0.145,0.145,0],[0.5,0,0],[0.855,0.145,0],[1,0.5,0],[0.855,0.855,0],[0.5,1,0],[0.145,0.855,0],[0,0.5,0]];shape=mxgraph.bpmn.event;html=1;verticalLabelPosition=bottom;labelBackgroundColor=#ffffff;verticalAlign=top;align=center;perimeter=ellipsePerimeter;outlineConnect=0;aspect=fixed;outline=end;symbol=message;fillColor=#f8cecc;strokeColor=#b85450;" vertex="1" parent="EOJTsvQhWbHzyloepp2X-13">
          <mxGeometry x="460" y="42.5" width="35" height="35" as="geometry" />
        </mxCell>
        <mxCell id="EOJTsvQhWbHzyloepp2X-19" value="" style="points=[[0.145,0.145,0],[0.5,0,0],[0.855,0.145,0],[1,0.5,0],[0.855,0.855,0],[0.5,1,0],[0.145,0.855,0],[0,0.5,0]];shape=mxgraph.bpmn.event;html=1;verticalLabelPosition=bottom;labelBackgroundColor=#ffffff;verticalAlign=top;align=center;perimeter=ellipsePerimeter;outlineConnect=0;aspect=fixed;outline=standard;symbol=message;fillColor=#d5e8d4;strokeColor=#82b366;" vertex="1" parent="EOJTsvQhWbHzyloepp2X-13">
          <mxGeometry x="520" y="42.5" width="35" height="35" as="geometry" />
        </mxCell>
        <mxCell id="EOJTsvQhWbHzyloepp2X-20" value="Cadastra produto e abre requisição de especialista" style="points=[[0.25,0,0],[0.5,0,0],[0.75,0,0],[1,0.25,0],[1,0.5,0],[1,0.75,0],[0.75,1,0],[0.5,1,0],[0.25,1,0],[0,0.75,0],[0,0.5,0],[0,0.25,0]];shape=mxgraph.bpmn.task;whiteSpace=wrap;rectStyle=rounded;size=10;html=1;container=1;expand=0;collapsible=0;taskMarker=abstract;fillColor=#dae8fc;strokeColor=#6c8ebf;" vertex="1" parent="EOJTsvQhWbHzyloepp2X-13">
          <mxGeometry x="580" y="32.5" width="110" height="55" as="geometry" />
        </mxCell>
        <mxCell id="EOJTsvQhWbHzyloepp2X-21" style="edgeStyle=orthogonalEdgeStyle;rounded=0;orthogonalLoop=1;jettySize=auto;html=1;entryX=0;entryY=0.5;entryDx=0;entryDy=0;entryPerimeter=0;" edge="1" parent="EOJTsvQhWbHzyloepp2X-13" source="EOJTsvQhWbHzyloepp2X-19" target="EOJTsvQhWbHzyloepp2X-20">
          <mxGeometry relative="1" as="geometry" />
        </mxCell>
        <mxCell id="EOJTsvQhWbHzyloepp2X-22" value="" style="points=[[0.145,0.145,0],[0.5,0,0],[0.855,0.145,0],[1,0.5,0],[0.855,0.855,0],[0.5,1,0],[0.145,0.855,0],[0,0.5,0]];shape=mxgraph.bpmn.event;html=1;verticalLabelPosition=bottom;labelBackgroundColor=#ffffff;verticalAlign=top;align=center;perimeter=ellipsePerimeter;outlineConnect=0;aspect=fixed;outline=end;symbol=message;fillColor=#f8cecc;strokeColor=#b85450;" vertex="1" parent="EOJTsvQhWbHzyloepp2X-13">
          <mxGeometry x="710" y="42.5" width="35" height="35" as="geometry" />
        </mxCell>
        <mxCell id="EOJTsvQhWbHzyloepp2X-23" style="edgeStyle=orthogonalEdgeStyle;rounded=0;orthogonalLoop=1;jettySize=auto;html=1;" edge="1" parent="EOJTsvQhWbHzyloepp2X-13" source="EOJTsvQhWbHzyloepp2X-20" target="EOJTsvQhWbHzyloepp2X-22">
          <mxGeometry relative="1" as="geometry" />
        </mxCell>
        <mxCell id="EOJTsvQhWbHzyloepp2X-24" value="Usos do Especialista" style="swimlane;html=1;startSize=20;fontStyle=0;collapsible=0;horizontal=0;swimlaneLine=1;swimlaneFillColor=#ffffff;strokeWidth=2;whiteSpace=wrap;" vertex="1" parent="EOJTsvQhWbHzyloepp2X-1">
          <mxGeometry x="60" y="600" width="1910" height="120" as="geometry" />
        </mxCell>
        <mxCell id="EOJTsvQhWbHzyloepp2X-25" style="edgeStyle=orthogonalEdgeStyle;rounded=0;orthogonalLoop=1;jettySize=auto;html=1;entryX=0;entryY=0.5;entryDx=0;entryDy=0;entryPerimeter=0;" edge="1" parent="EOJTsvQhWbHzyloepp2X-24" source="EOJTsvQhWbHzyloepp2X-26" target="EOJTsvQhWbHzyloepp2X-28">
          <mxGeometry relative="1" as="geometry" />
        </mxCell>
        <mxCell id="EOJTsvQhWbHzyloepp2X-26" value="" style="points=[[0.145,0.145,0],[0.5,0,0],[0.855,0.145,0],[1,0.5,0],[0.855,0.855,0],[0.5,1,0],[0.145,0.855,0],[0,0.5,0]];shape=mxgraph.bpmn.event;html=1;verticalLabelPosition=bottom;labelBackgroundColor=#ffffff;verticalAlign=top;align=center;perimeter=ellipsePerimeter;outlineConnect=0;aspect=fixed;outline=standard;symbol=message;fillColor=#d5e8d4;strokeColor=#82b366;" vertex="1" parent="EOJTsvQhWbHzyloepp2X-24">
          <mxGeometry x="170" y="45" width="35" height="35" as="geometry" />
        </mxCell>
        <mxCell id="EOJTsvQhWbHzyloepp2X-27" style="edgeStyle=orthogonalEdgeStyle;rounded=0;orthogonalLoop=1;jettySize=auto;html=1;" edge="1" parent="EOJTsvQhWbHzyloepp2X-24" source="EOJTsvQhWbHzyloepp2X-28" target="EOJTsvQhWbHzyloepp2X-29">
          <mxGeometry relative="1" as="geometry" />
        </mxCell>
        <mxCell id="EOJTsvQhWbHzyloepp2X-28" value="Cadastra Especialista" style="points=[[0.25,0,0],[0.5,0,0],[0.75,0,0],[1,0.25,0],[1,0.5,0],[1,0.75,0],[0.75,1,0],[0.5,1,0],[0.25,1,0],[0,0.75,0],[0,0.5,0],[0,0.25,0]];shape=mxgraph.bpmn.task;whiteSpace=wrap;rectStyle=rounded;size=10;html=1;container=1;expand=0;collapsible=0;taskMarker=abstract;fillColor=#dae8fc;strokeColor=#6c8ebf;" vertex="1" parent="EOJTsvQhWbHzyloepp2X-24">
          <mxGeometry x="230" y="37.5" width="97.5" height="50" as="geometry" />
        </mxCell>
        <mxCell id="EOJTsvQhWbHzyloepp2X-29" value="" style="points=[[0.145,0.145,0],[0.5,0,0],[0.855,0.145,0],[1,0.5,0],[0.855,0.855,0],[0.5,1,0],[0.145,0.855,0],[0,0.5,0]];shape=mxgraph.bpmn.event;html=1;verticalLabelPosition=bottom;labelBackgroundColor=#ffffff;verticalAlign=top;align=center;perimeter=ellipsePerimeter;outlineConnect=0;aspect=fixed;outline=end;symbol=message;fillColor=#f8cecc;strokeColor=#b85450;" vertex="1" parent="EOJTsvQhWbHzyloepp2X-24">
          <mxGeometry x="360" y="45" width="35" height="35" as="geometry" />
        </mxCell>
        <mxCell id="EOJTsvQhWbHzyloepp2X-30" value="" style="points=[[0.145,0.145,0],[0.5,0,0],[0.855,0.145,0],[1,0.5,0],[0.855,0.855,0],[0.5,1,0],[0.145,0.855,0],[0,0.5,0]];shape=mxgraph.bpmn.event;html=1;verticalLabelPosition=bottom;labelBackgroundColor=#ffffff;verticalAlign=top;align=center;perimeter=ellipsePerimeter;outlineConnect=0;aspect=fixed;outline=standard;symbol=message;fillColor=#d5e8d4;strokeColor=#82b366;" vertex="1" parent="EOJTsvQhWbHzyloepp2X-24">
          <mxGeometry x="520" y="42.5" width="35" height="35" as="geometry" />
        </mxCell>
        <mxCell id="EOJTsvQhWbHzyloepp2X-31" value="Envia informações de pedidos de avaliação" style="points=[[0.25,0,0],[0.5,0,0],[0.75,0,0],[1,0.25,0],[1,0.5,0],[1,0.75,0],[0.75,1,0],[0.5,1,0],[0.25,1,0],[0,0.75,0],[0,0.5,0],[0,0.25,0]];shape=mxgraph.bpmn.task;whiteSpace=wrap;rectStyle=rounded;size=10;html=1;container=1;expand=0;collapsible=0;taskMarker=abstract;fillColor=#dae8fc;strokeColor=#6c8ebf;" vertex="1" parent="EOJTsvQhWbHzyloepp2X-24">
          <mxGeometry x="580" y="32.5" width="110" height="55" as="geometry" />
        </mxCell>
        <mxCell id="EOJTsvQhWbHzyloepp2X-32" style="edgeStyle=orthogonalEdgeStyle;rounded=0;orthogonalLoop=1;jettySize=auto;html=1;entryX=0;entryY=0.5;entryDx=0;entryDy=0;entryPerimeter=0;" edge="1" parent="EOJTsvQhWbHzyloepp2X-24" source="EOJTsvQhWbHzyloepp2X-30" target="EOJTsvQhWbHzyloepp2X-31">
          <mxGeometry relative="1" as="geometry" />
        </mxCell>
        <mxCell id="EOJTsvQhWbHzyloepp2X-33" value="" style="points=[[0.145,0.145,0],[0.5,0,0],[0.855,0.145,0],[1,0.5,0],[0.855,0.855,0],[0.5,1,0],[0.145,0.855,0],[0,0.5,0]];shape=mxgraph.bpmn.event;html=1;verticalLabelPosition=bottom;labelBackgroundColor=#ffffff;verticalAlign=top;align=center;perimeter=ellipsePerimeter;outlineConnect=0;aspect=fixed;outline=end;symbol=message;fillColor=#f8cecc;strokeColor=#b85450;" vertex="1" parent="EOJTsvQhWbHzyloepp2X-24">
          <mxGeometry x="710" y="42.5" width="35" height="35" as="geometry" />
        </mxCell>
        <mxCell id="EOJTsvQhWbHzyloepp2X-34" style="edgeStyle=orthogonalEdgeStyle;rounded=0;orthogonalLoop=1;jettySize=auto;html=1;" edge="1" parent="EOJTsvQhWbHzyloepp2X-24" source="EOJTsvQhWbHzyloepp2X-31" target="EOJTsvQhWbHzyloepp2X-33">
          <mxGeometry relative="1" as="geometry" />
        </mxCell>
        <mxCell id="EOJTsvQhWbHzyloepp2X-35" value="" style="points=[[0.145,0.145,0],[0.5,0,0],[0.855,0.145,0],[1,0.5,0],[0.855,0.855,0],[0.5,1,0],[0.145,0.855,0],[0,0.5,0]];shape=mxgraph.bpmn.event;html=1;verticalLabelPosition=bottom;labelBackgroundColor=#ffffff;verticalAlign=top;align=center;perimeter=ellipsePerimeter;outlineConnect=0;aspect=fixed;outline=standard;symbol=message;fillColor=#d5e8d4;strokeColor=#82b366;" vertex="1" parent="EOJTsvQhWbHzyloepp2X-24">
          <mxGeometry x="760" y="42.5" width="35" height="35" as="geometry" />
        </mxCell>
        <mxCell id="EOJTsvQhWbHzyloepp2X-36" value="Confirma especialista como avaliador" style="points=[[0.25,0,0],[0.5,0,0],[0.75,0,0],[1,0.25,0],[1,0.5,0],[1,0.75,0],[0.75,1,0],[0.5,1,0],[0.25,1,0],[0,0.75,0],[0,0.5,0],[0,0.25,0]];shape=mxgraph.bpmn.task;whiteSpace=wrap;rectStyle=rounded;size=10;html=1;container=1;expand=0;collapsible=0;taskMarker=abstract;fillColor=#dae8fc;strokeColor=#6c8ebf;" vertex="1" parent="EOJTsvQhWbHzyloepp2X-24">
          <mxGeometry x="820" y="35" width="110" height="50" as="geometry" />
        </mxCell>
        <mxCell id="EOJTsvQhWbHzyloepp2X-37" style="edgeStyle=orthogonalEdgeStyle;rounded=0;orthogonalLoop=1;jettySize=auto;html=1;entryX=0;entryY=0.5;entryDx=0;entryDy=0;entryPerimeter=0;" edge="1" parent="EOJTsvQhWbHzyloepp2X-24" source="EOJTsvQhWbHzyloepp2X-35" target="EOJTsvQhWbHzyloepp2X-36">
          <mxGeometry relative="1" as="geometry" />
        </mxCell>
        <mxCell id="EOJTsvQhWbHzyloepp2X-38" value="" style="points=[[0.145,0.145,0],[0.5,0,0],[0.855,0.145,0],[1,0.5,0],[0.855,0.855,0],[0.5,1,0],[0.145,0.855,0],[0,0.5,0]];shape=mxgraph.bpmn.event;html=1;verticalLabelPosition=bottom;labelBackgroundColor=#ffffff;verticalAlign=top;align=center;perimeter=ellipsePerimeter;outlineConnect=0;aspect=fixed;outline=end;symbol=message;fillColor=#f8cecc;strokeColor=#b85450;" vertex="1" parent="EOJTsvQhWbHzyloepp2X-24">
          <mxGeometry x="950" y="42.5" width="35" height="35" as="geometry" />
        </mxCell>
        <mxCell id="EOJTsvQhWbHzyloepp2X-39" style="edgeStyle=orthogonalEdgeStyle;rounded=0;orthogonalLoop=1;jettySize=auto;html=1;" edge="1" parent="EOJTsvQhWbHzyloepp2X-24" source="EOJTsvQhWbHzyloepp2X-36" target="EOJTsvQhWbHzyloepp2X-38">
          <mxGeometry relative="1" as="geometry" />
        </mxCell>
        <mxCell id="EOJTsvQhWbHzyloepp2X-57" value="" style="edgeStyle=elbowEdgeStyle;fontSize=12;html=1;endFill=0;startFill=0;endSize=6;startSize=6;dashed=1;dashPattern=1 4;endArrow=openThin;startArrow=none;rounded=0;exitX=0.25;exitY=1;exitDx=0;exitDy=0;exitPerimeter=0;entryX=0.188;entryY=0.043;entryDx=0;entryDy=0;entryPerimeter=0;elbow=vertical;" edge="1" parent="EOJTsvQhWbHzyloepp2X-1" target="EOJTsvQhWbHzyloepp2X-3">
          <mxGeometry width="160" relative="1" as="geometry">
            <mxPoint x="194.375" y="285" as="sourcePoint" />
            <mxPoint x="730" y="450" as="targetPoint" />
            <Array as="points">
              <mxPoint x="250" y="330" />
            </Array>
          </mxGeometry>
        </mxCell>
        <mxCell id="EOJTsvQhWbHzyloepp2X-58" value="Envia informações" style="edgeLabel;html=1;align=center;verticalAlign=middle;resizable=0;points=[];" vertex="1" connectable="0" parent="EOJTsvQhWbHzyloepp2X-57">
          <mxGeometry x="-0.3005" relative="1" as="geometry">
            <mxPoint x="-18" y="-15" as="offset" />
          </mxGeometry>
        </mxCell>
        <mxCell id="EOJTsvQhWbHzyloepp2X-59" value="" style="edgeStyle=elbowEdgeStyle;fontSize=12;html=1;endFill=0;startFill=0;endSize=6;startSize=6;dashed=1;dashPattern=1 4;endArrow=openThin;startArrow=none;rounded=0;entryX=0.75;entryY=1;entryDx=0;entryDy=0;entryPerimeter=0;exitX=0.75;exitY=0;exitDx=0;exitDy=0;exitPerimeter=0;elbow=vertical;" edge="1" parent="EOJTsvQhWbHzyloepp2X-1" source="EOJTsvQhWbHzyloepp2X-3">
          <mxGeometry width="160" relative="1" as="geometry">
            <mxPoint x="570" y="450" as="sourcePoint" />
            <mxPoint x="243.125" y="285" as="targetPoint" />
            <Array as="points">
              <mxPoint x="250" y="340" />
            </Array>
          </mxGeometry>
        </mxCell>
        <mxCell id="EOJTsvQhWbHzyloepp2X-60" value="" style="edgeStyle=elbowEdgeStyle;fontSize=12;html=1;endFill=0;startFill=0;endSize=6;startSize=6;dashed=1;dashPattern=1 4;endArrow=openThin;startArrow=none;rounded=0;exitX=0.393;exitY=1.01;exitDx=0;exitDy=0;exitPerimeter=0;entryX=0.25;entryY=0;entryDx=0;entryDy=0;entryPerimeter=0;elbow=vertical;" edge="1" parent="EOJTsvQhWbHzyloepp2X-1" target="EOJTsvQhWbHzyloepp2X-17">
          <mxGeometry width="160" relative="1" as="geometry">
            <mxPoint x="438.3174999999999" y="285.5" as="sourcePoint" />
            <mxPoint x="700" y="350" as="targetPoint" />
            <Array as="points">
              <mxPoint x="440" y="330" />
              <mxPoint x="450" y="350" />
            </Array>
          </mxGeometry>
        </mxCell>
        <mxCell id="EOJTsvQhWbHzyloepp2X-61" value="Envia informações" style="edgeLabel;html=1;align=center;verticalAlign=middle;resizable=0;points=[];" vertex="1" connectable="0" parent="EOJTsvQhWbHzyloepp2X-60">
          <mxGeometry x="-0.6106" y="2" relative="1" as="geometry">
            <mxPoint x="-40" y="32" as="offset" />
          </mxGeometry>
        </mxCell>
        <mxCell id="EOJTsvQhWbHzyloepp2X-62" value="" style="edgeStyle=elbowEdgeStyle;fontSize=12;html=1;endFill=0;startFill=0;endSize=6;startSize=6;dashed=1;dashPattern=1 4;endArrow=openThin;startArrow=none;rounded=0;entryX=0.75;entryY=1;entryDx=0;entryDy=0;entryPerimeter=0;exitX=0.75;exitY=0;exitDx=0;exitDy=0;exitPerimeter=0;elbow=vertical;" edge="1" parent="EOJTsvQhWbHzyloepp2X-1" source="EOJTsvQhWbHzyloepp2X-17">
          <mxGeometry width="160" relative="1" as="geometry">
            <mxPoint x="540" y="350" as="sourcePoint" />
            <mxPoint x="473.125" y="285" as="targetPoint" />
            <Array as="points">
              <mxPoint x="483" y="350" />
              <mxPoint x="420" y="340" />
            </Array>
          </mxGeometry>
        </mxCell>
        <mxCell id="EOJTsvQhWbHzyloepp2X-63" value="" style="edgeStyle=elbowEdgeStyle;fontSize=12;html=1;endFill=0;startFill=0;endSize=6;startSize=6;dashed=1;dashPattern=1 4;endArrow=openThin;startArrow=none;rounded=0;exitX=0.25;exitY=1;exitDx=0;exitDy=0;exitPerimeter=0;entryX=0.25;entryY=0;entryDx=0;entryDy=0;entryPerimeter=0;elbow=vertical;" edge="1" parent="EOJTsvQhWbHzyloepp2X-1" target="EOJTsvQhWbHzyloepp2X-20">
          <mxGeometry width="160" relative="1" as="geometry">
            <mxPoint x="577.5" y="285" as="sourcePoint" />
            <mxPoint x="860" y="350" as="targetPoint" />
            <Array as="points">
              <mxPoint x="700" y="350" />
            </Array>
          </mxGeometry>
        </mxCell>
        <mxCell id="EOJTsvQhWbHzyloepp2X-64" value="Solicita cadastro" style="edgeLabel;html=1;align=center;verticalAlign=middle;resizable=0;points=[];" vertex="1" connectable="0" parent="EOJTsvQhWbHzyloepp2X-63">
          <mxGeometry x="0.3377" y="2" relative="1" as="geometry">
            <mxPoint x="-81" y="-8" as="offset" />
          </mxGeometry>
        </mxCell>
        <mxCell id="EOJTsvQhWbHzyloepp2X-65" value="" style="edgeStyle=elbowEdgeStyle;fontSize=12;html=1;endFill=0;startFill=0;endSize=6;startSize=6;dashed=1;dashPattern=1 4;endArrow=openThin;startArrow=none;rounded=0;entryX=0.75;entryY=1;entryDx=0;entryDy=0;entryPerimeter=0;exitX=0.5;exitY=0;exitDx=0;exitDy=0;exitPerimeter=0;elbow=vertical;" edge="1" parent="EOJTsvQhWbHzyloepp2X-1" source="EOJTsvQhWbHzyloepp2X-20">
          <mxGeometry width="160" relative="1" as="geometry">
            <mxPoint x="540" y="350" as="sourcePoint" />
            <mxPoint x="632.5" y="285" as="targetPoint" />
          </mxGeometry>
        </mxCell>
        <mxCell id="EOJTsvQhWbHzyloepp2X-66" value="" style="edgeStyle=elbowEdgeStyle;fontSize=12;html=1;endFill=0;startFill=0;endSize=6;startSize=6;dashed=1;dashPattern=1 4;endArrow=openThin;startArrow=none;rounded=0;entryX=0.75;entryY=1;entryDx=0;entryDy=0;entryPerimeter=0;elbow=vertical;exitX=0.5;exitY=0;exitDx=0;exitDy=0;exitPerimeter=0;" edge="1" parent="EOJTsvQhWbHzyloepp2X-1" source="EOJTsvQhWbHzyloepp2X-9">
          <mxGeometry width="160" relative="1" as="geometry">
            <mxPoint x="910" y="390" as="sourcePoint" />
            <mxPoint x="800" y="285" as="targetPoint" />
            <Array as="points">
              <mxPoint x="860" y="330" />
              <mxPoint x="900" y="310" />
            </Array>
          </mxGeometry>
        </mxCell>
        <mxCell id="EOJTsvQhWbHzyloepp2X-67" value="" style="edgeStyle=elbowEdgeStyle;fontSize=12;html=1;endFill=0;startFill=0;endSize=6;startSize=6;dashed=1;dashPattern=1 4;endArrow=openThin;startArrow=none;rounded=0;exitX=0.25;exitY=1;exitDx=0;exitDy=0;exitPerimeter=0;entryX=0.25;entryY=0;entryDx=0;entryDy=0;entryPerimeter=0;elbow=vertical;" edge="1" parent="EOJTsvQhWbHzyloepp2X-1" target="EOJTsvQhWbHzyloepp2X-9">
          <mxGeometry width="160" relative="1" as="geometry">
            <mxPoint x="740" y="285" as="sourcePoint" />
            <mxPoint x="964.375" y="402.5" as="targetPoint" />
            <Array as="points">
              <mxPoint x="860" y="350" />
            </Array>
          </mxGeometry>
        </mxCell>
        <mxCell id="EOJTsvQhWbHzyloepp2X-68" value="Registra a postagem" style="edgeLabel;html=1;align=center;verticalAlign=middle;resizable=0;points=[];" vertex="1" connectable="0" parent="EOJTsvQhWbHzyloepp2X-67">
          <mxGeometry x="-0.3718" y="-2" relative="1" as="geometry">
            <mxPoint x="3" y="-12" as="offset" />
          </mxGeometry>
        </mxCell>
        <mxCell id="EOJTsvQhWbHzyloepp2X-69" value="Sistema" style="swimlane;childLayout=stackLayout;resizeParent=1;resizeParentMax=0;horizontal=0;startSize=20;horizontalStack=0;html=1;" vertex="1" parent="EOJTsvQhWbHzyloepp2X-1">
          <mxGeometry x="40" y="360" width="1590" height="520" as="geometry" />
        </mxCell>
        <mxCell id="EOJTsvQhWbHzyloepp2X-70" value="Usos da Transportadora" style="swimlane;html=1;startSize=20;fontStyle=0;collapsible=0;horizontal=0;swimlaneLine=1;swimlaneFillColor=#ffffff;strokeWidth=2;whiteSpace=wrap;" vertex="1" parent="EOJTsvQhWbHzyloepp2X-1">
          <mxGeometry x="60" y="720" width="1910" height="160" as="geometry" />
        </mxCell>
        <mxCell id="EOJTsvQhWbHzyloepp2X-71" value="" style="points=[[0.145,0.145,0],[0.5,0,0],[0.855,0.145,0],[1,0.5,0],[0.855,0.855,0],[0.5,1,0],[0.145,0.855,0],[0,0.5,0]];shape=mxgraph.bpmn.event;html=1;verticalLabelPosition=bottom;labelBackgroundColor=#ffffff;verticalAlign=top;align=center;perimeter=ellipsePerimeter;outlineConnect=0;aspect=fixed;outline=standard;symbol=message;fillColor=#d5e8d4;strokeColor=#82b366;" vertex="1" parent="EOJTsvQhWbHzyloepp2X-70">
          <mxGeometry x="767" y="42.5" width="35" height="35" as="geometry" />
        </mxCell>
        <mxCell id="EOJTsvQhWbHzyloepp2X-72" value="Confirma especialista como avaliador" style="points=[[0.25,0,0],[0.5,0,0],[0.75,0,0],[1,0.25,0],[1,0.5,0],[1,0.75,0],[0.75,1,0],[0.5,1,0],[0.25,1,0],[0,0.75,0],[0,0.5,0],[0,0.25,0]];shape=mxgraph.bpmn.task;whiteSpace=wrap;rectStyle=rounded;size=10;html=1;container=1;expand=0;collapsible=0;taskMarker=abstract;fillColor=#dae8fc;strokeColor=#6c8ebf;" vertex="1" parent="EOJTsvQhWbHzyloepp2X-70">
          <mxGeometry x="820" y="35" width="110" height="50" as="geometry" />
        </mxCell>
        <mxCell id="EOJTsvQhWbHzyloepp2X-73" style="edgeStyle=orthogonalEdgeStyle;rounded=0;orthogonalLoop=1;jettySize=auto;html=1;entryX=0;entryY=0.5;entryDx=0;entryDy=0;entryPerimeter=0;" edge="1" parent="EOJTsvQhWbHzyloepp2X-70" source="EOJTsvQhWbHzyloepp2X-71" target="EOJTsvQhWbHzyloepp2X-72">
          <mxGeometry relative="1" as="geometry" />
        </mxCell>
        <mxCell id="EOJTsvQhWbHzyloepp2X-74" value="" style="points=[[0.145,0.145,0],[0.5,0,0],[0.855,0.145,0],[1,0.5,0],[0.855,0.855,0],[0.5,1,0],[0.145,0.855,0],[0,0.5,0]];shape=mxgraph.bpmn.event;html=1;verticalLabelPosition=bottom;labelBackgroundColor=#ffffff;verticalAlign=top;align=center;perimeter=ellipsePerimeter;outlineConnect=0;aspect=fixed;outline=end;symbol=message;fillColor=#f8cecc;strokeColor=#b85450;" vertex="1" parent="EOJTsvQhWbHzyloepp2X-70">
          <mxGeometry x="950" y="42.5" width="35" height="35" as="geometry" />
        </mxCell>
        <mxCell id="EOJTsvQhWbHzyloepp2X-75" style="edgeStyle=orthogonalEdgeStyle;rounded=0;orthogonalLoop=1;jettySize=auto;html=1;" edge="1" parent="EOJTsvQhWbHzyloepp2X-70" source="EOJTsvQhWbHzyloepp2X-72" target="EOJTsvQhWbHzyloepp2X-74">
          <mxGeometry relative="1" as="geometry" />
        </mxCell>
        <mxCell id="EOJTsvQhWbHzyloepp2X-76" value="" style="points=[[0.145,0.145,0],[0.5,0,0],[0.855,0.145,0],[1,0.5,0],[0.855,0.855,0],[0.5,1,0],[0.145,0.855,0],[0,0.5,0]];shape=mxgraph.bpmn.event;html=1;verticalLabelPosition=bottom;labelBackgroundColor=#ffffff;verticalAlign=top;align=center;perimeter=ellipsePerimeter;outlineConnect=0;aspect=fixed;outline=standard;symbol=message;fillColor=#d5e8d4;strokeColor=#82b366;" vertex="1" parent="EOJTsvQhWbHzyloepp2X-70">
          <mxGeometry x="340" y="92.5" width="35" height="35" as="geometry" />
        </mxCell>
        <mxCell id="EOJTsvQhWbHzyloepp2X-77" value="Cadastra Especialista" style="points=[[0.25,0,0],[0.5,0,0],[0.75,0,0],[1,0.25,0],[1,0.5,0],[1,0.75,0],[0.75,1,0],[0.5,1,0],[0.25,1,0],[0,0.75,0],[0,0.5,0],[0,0.25,0]];shape=mxgraph.bpmn.task;whiteSpace=wrap;rectStyle=rounded;size=10;html=1;container=1;expand=0;collapsible=0;taskMarker=abstract;fillColor=#dae8fc;strokeColor=#6c8ebf;" vertex="1" parent="EOJTsvQhWbHzyloepp2X-70">
          <mxGeometry x="400" y="85" width="97.5" height="50" as="geometry" />
        </mxCell>
        <mxCell id="EOJTsvQhWbHzyloepp2X-78" value="" style="points=[[0.145,0.145,0],[0.5,0,0],[0.855,0.145,0],[1,0.5,0],[0.855,0.855,0],[0.5,1,0],[0.145,0.855,0],[0,0.5,0]];shape=mxgraph.bpmn.event;html=1;verticalLabelPosition=bottom;labelBackgroundColor=#ffffff;verticalAlign=top;align=center;perimeter=ellipsePerimeter;outlineConnect=0;aspect=fixed;outline=end;symbol=message;fillColor=#f8cecc;strokeColor=#b85450;" vertex="1" parent="EOJTsvQhWbHzyloepp2X-70">
          <mxGeometry x="530" y="92.5" width="35" height="35" as="geometry" />
        </mxCell>
        <mxCell id="EOJTsvQhWbHzyloepp2X-79" value="Avaliador Especialista" style="swimlane;html=1;startSize=20;fontStyle=0;collapsible=0;horizontal=0;swimlaneLine=1;swimlaneFillColor=#ffffff;strokeWidth=2;whiteSpace=wrap;" vertex="1" parent="EOJTsvQhWbHzyloepp2X-1">
          <mxGeometry x="40" y="920" width="1440" height="120" as="geometry" />
        </mxCell>
        <mxCell id="EOJTsvQhWbHzyloepp2X-80" style="edgeStyle=orthogonalEdgeStyle;rounded=0;orthogonalLoop=1;jettySize=auto;html=1;entryX=0;entryY=0.5;entryDx=0;entryDy=0;entryPerimeter=0;" edge="1" parent="EOJTsvQhWbHzyloepp2X-79" source="EOJTsvQhWbHzyloepp2X-81" target="EOJTsvQhWbHzyloepp2X-101">
          <mxGeometry relative="1" as="geometry" />
        </mxCell>
        <mxCell id="EOJTsvQhWbHzyloepp2X-81" value="" style="points=[[0.145,0.145,0],[0.5,0,0],[0.855,0.145,0],[1,0.5,0],[0.855,0.855,0],[0.5,1,0],[0.145,0.855,0],[0,0.5,0]];shape=mxgraph.bpmn.event;html=1;verticalLabelPosition=bottom;labelBackgroundColor=#ffffff;verticalAlign=top;align=center;perimeter=ellipsePerimeter;outlineConnect=0;aspect=fixed;outline=standard;symbol=general;fillColor=#d5e8d4;strokeColor=#82b366;" vertex="1" parent="EOJTsvQhWbHzyloepp2X-79">
          <mxGeometry x="60" y="42.5" width="35" height="35" as="geometry" />
        </mxCell>
        <mxCell id="EOJTsvQhWbHzyloepp2X-82" style="edgeStyle=orthogonalEdgeStyle;rounded=0;orthogonalLoop=1;jettySize=auto;html=1;entryX=0;entryY=0.5;entryDx=0;entryDy=0;entryPerimeter=0;" edge="1" parent="EOJTsvQhWbHzyloepp2X-79" source="EOJTsvQhWbHzyloepp2X-101" target="EOJTsvQhWbHzyloepp2X-87">
          <mxGeometry relative="1" as="geometry" />
        </mxCell>
        <mxCell id="EOJTsvQhWbHzyloepp2X-83" style="edgeStyle=orthogonalEdgeStyle;rounded=0;orthogonalLoop=1;jettySize=auto;html=1;exitX=1;exitY=0.5;exitDx=0;exitDy=0;exitPerimeter=0;entryX=0;entryY=0.5;entryDx=0;entryDy=0;entryPerimeter=0;" edge="1" parent="EOJTsvQhWbHzyloepp2X-79" source="EOJTsvQhWbHzyloepp2X-87" target="EOJTsvQhWbHzyloepp2X-88">
          <mxGeometry relative="1" as="geometry" />
        </mxCell>
        <mxCell id="EOJTsvQhWbHzyloepp2X-84" value="Não" style="edgeLabel;html=1;align=center;verticalAlign=middle;resizable=0;points=[];" vertex="1" connectable="0" parent="EOJTsvQhWbHzyloepp2X-83">
          <mxGeometry x="0.1667" y="2" relative="1" as="geometry">
            <mxPoint x="-11" y="2" as="offset" />
          </mxGeometry>
        </mxCell>
        <mxCell id="EOJTsvQhWbHzyloepp2X-85" style="edgeStyle=orthogonalEdgeStyle;rounded=0;orthogonalLoop=1;jettySize=auto;html=1;entryX=0.5;entryY=1;entryDx=0;entryDy=0;entryPerimeter=0;" edge="1" parent="EOJTsvQhWbHzyloepp2X-79" source="EOJTsvQhWbHzyloepp2X-87" target="EOJTsvQhWbHzyloepp2X-90">
          <mxGeometry relative="1" as="geometry">
            <Array as="points">
              <mxPoint x="285" y="110" />
              <mxPoint x="565" y="110" />
            </Array>
          </mxGeometry>
        </mxCell>
        <mxCell id="EOJTsvQhWbHzyloepp2X-86" value="Sim" style="edgeLabel;html=1;align=center;verticalAlign=middle;resizable=0;points=[];" vertex="1" connectable="0" parent="EOJTsvQhWbHzyloepp2X-85">
          <mxGeometry x="0.1229" relative="1" as="geometry">
            <mxPoint as="offset" />
          </mxGeometry>
        </mxCell>
        <mxCell id="EOJTsvQhWbHzyloepp2X-87" value="Possui cadastro ?" style="points=[[0.25,0.25,0],[0.5,0,0],[0.75,0.25,0],[1,0.5,0],[0.75,0.75,0],[0.5,1,0],[0.25,0.75,0],[0,0.5,0]];shape=mxgraph.bpmn.gateway2;html=1;verticalLabelPosition=bottom;labelBackgroundColor=#ffffff;verticalAlign=top;align=center;perimeter=rhombusPerimeter;outlineConnect=0;outline=none;symbol=none;fillColor=#fff2cc;strokeColor=#d6b656;" vertex="1" parent="EOJTsvQhWbHzyloepp2X-79">
          <mxGeometry x="270" y="43.75" width="30" height="32.5" as="geometry" />
        </mxCell>
        <mxCell id="EOJTsvQhWbHzyloepp2X-88" value="Envia cadastro com certificado de especialidade" style="points=[[0.25,0,0],[0.5,0,0],[0.75,0,0],[1,0.25,0],[1,0.5,0],[1,0.75,0],[0.75,1,0],[0.5,1,0],[0.25,1,0],[0,0.75,0],[0,0.5,0],[0,0.25,0]];shape=mxgraph.bpmn.task;whiteSpace=wrap;rectStyle=rounded;size=10;html=1;container=1;expand=0;collapsible=0;taskMarker=abstract;fillColor=#dae8fc;strokeColor=#6c8ebf;" vertex="1" parent="EOJTsvQhWbHzyloepp2X-79">
          <mxGeometry x="360" y="35" width="97.5" height="50" as="geometry" />
        </mxCell>
        <mxCell id="EOJTsvQhWbHzyloepp2X-89" value="" style="edgeStyle=orthogonalEdgeStyle;rounded=0;orthogonalLoop=1;jettySize=auto;html=1;" edge="1" parent="EOJTsvQhWbHzyloepp2X-79" source="EOJTsvQhWbHzyloepp2X-90" target="EOJTsvQhWbHzyloepp2X-93">
          <mxGeometry relative="1" as="geometry" />
        </mxCell>
        <mxCell id="EOJTsvQhWbHzyloepp2X-90" value="Lista pedidos de avaliação" style="points=[[0.25,0,0],[0.5,0,0],[0.75,0,0],[1,0.25,0],[1,0.5,0],[1,0.75,0],[0.75,1,0],[0.5,1,0],[0.25,1,0],[0,0.75,0],[0,0.5,0],[0,0.25,0]];shape=mxgraph.bpmn.task;whiteSpace=wrap;rectStyle=rounded;size=10;html=1;container=1;expand=0;collapsible=0;taskMarker=abstract;fillColor=#dae8fc;strokeColor=#6c8ebf;" vertex="1" parent="EOJTsvQhWbHzyloepp2X-79">
          <mxGeometry x="510" y="35" width="110" height="50" as="geometry" />
        </mxCell>
        <mxCell id="EOJTsvQhWbHzyloepp2X-91" style="edgeStyle=orthogonalEdgeStyle;rounded=0;orthogonalLoop=1;jettySize=auto;html=1;" edge="1" parent="EOJTsvQhWbHzyloepp2X-79" source="EOJTsvQhWbHzyloepp2X-88" target="EOJTsvQhWbHzyloepp2X-90">
          <mxGeometry relative="1" as="geometry">
            <mxPoint x="640" y="59.999999999999886" as="targetPoint" />
          </mxGeometry>
        </mxCell>
        <mxCell id="EOJTsvQhWbHzyloepp2X-92" value="" style="edgeStyle=orthogonalEdgeStyle;rounded=0;orthogonalLoop=1;jettySize=auto;html=1;entryX=0;entryY=0.5;entryDx=0;entryDy=0;entryPerimeter=0;" edge="1" parent="EOJTsvQhWbHzyloepp2X-79" source="EOJTsvQhWbHzyloepp2X-93" target="EOJTsvQhWbHzyloepp2X-95">
          <mxGeometry relative="1" as="geometry">
            <mxPoint x="860" y="60" as="targetPoint" />
          </mxGeometry>
        </mxCell>
        <mxCell id="EOJTsvQhWbHzyloepp2X-93" value="Aceita avaliar um produto" style="points=[[0.25,0,0],[0.5,0,0],[0.75,0,0],[1,0.25,0],[1,0.5,0],[1,0.75,0],[0.75,1,0],[0.5,1,0],[0.25,1,0],[0,0.75,0],[0,0.5,0],[0,0.25,0]];shape=mxgraph.bpmn.task;whiteSpace=wrap;rectStyle=rounded;size=10;html=1;container=1;expand=0;collapsible=0;taskMarker=abstract;fillColor=#dae8fc;strokeColor=#6c8ebf;" vertex="1" parent="EOJTsvQhWbHzyloepp2X-79">
          <mxGeometry x="670" y="35" width="120" height="50" as="geometry" />
        </mxCell>
        <mxCell id="EOJTsvQhWbHzyloepp2X-94" style="edgeStyle=orthogonalEdgeStyle;rounded=0;orthogonalLoop=1;jettySize=auto;html=1;entryX=0;entryY=0.5;entryDx=0;entryDy=0;entryPerimeter=0;" edge="1" parent="EOJTsvQhWbHzyloepp2X-79" source="EOJTsvQhWbHzyloepp2X-95" target="EOJTsvQhWbHzyloepp2X-97">
          <mxGeometry relative="1" as="geometry" />
        </mxCell>
        <mxCell id="EOJTsvQhWbHzyloepp2X-95" value="Aguarda recebimento do produto" style="points=[[0.145,0.145,0],[0.5,0,0],[0.855,0.145,0],[1,0.5,0],[0.855,0.855,0],[0.5,1,0],[0.145,0.855,0],[0,0.5,0]];shape=mxgraph.bpmn.event;html=1;verticalLabelPosition=bottom;labelBackgroundColor=#ffffff;verticalAlign=top;align=center;perimeter=ellipsePerimeter;outlineConnect=0;aspect=fixed;outline=throwing;symbol=general;fillColor=#fff2cc;strokeColor=#d6b656;" vertex="1" parent="EOJTsvQhWbHzyloepp2X-79">
          <mxGeometry x="880" y="43.75" width="32.5" height="32.5" as="geometry" />
        </mxCell>
        <mxCell id="EOJTsvQhWbHzyloepp2X-96" style="edgeStyle=orthogonalEdgeStyle;rounded=0;orthogonalLoop=1;jettySize=auto;html=1;entryX=0;entryY=0.5;entryDx=0;entryDy=0;entryPerimeter=0;" edge="1" parent="EOJTsvQhWbHzyloepp2X-79" source="EOJTsvQhWbHzyloepp2X-97" target="EOJTsvQhWbHzyloepp2X-99">
          <mxGeometry relative="1" as="geometry" />
        </mxCell>
        <mxCell id="EOJTsvQhWbHzyloepp2X-97" value="Realiza avaliação do produto" style="points=[[0.25,0,0],[0.5,0,0],[0.75,0,0],[1,0.25,0],[1,0.5,0],[1,0.75,0],[0.75,1,0],[0.5,1,0],[0.25,1,0],[0,0.75,0],[0,0.5,0],[0,0.25,0]];shape=mxgraph.bpmn.task;whiteSpace=wrap;rectStyle=rounded;size=10;html=1;container=1;expand=0;collapsible=0;taskMarker=abstract;fillColor=#dae8fc;strokeColor=#6c8ebf;" vertex="1" parent="EOJTsvQhWbHzyloepp2X-79">
          <mxGeometry x="990" y="35" width="120" height="50" as="geometry" />
        </mxCell>
        <mxCell id="EOJTsvQhWbHzyloepp2X-98" style="edgeStyle=orthogonalEdgeStyle;rounded=0;orthogonalLoop=1;jettySize=auto;html=1;entryX=0;entryY=0.5;entryDx=0;entryDy=0;entryPerimeter=0;" edge="1" parent="EOJTsvQhWbHzyloepp2X-79" source="EOJTsvQhWbHzyloepp2X-99" target="EOJTsvQhWbHzyloepp2X-100">
          <mxGeometry relative="1" as="geometry" />
        </mxCell>
        <mxCell id="EOJTsvQhWbHzyloepp2X-99" value="Posta produto de volta para o vendedor" style="points=[[0.25,0,0],[0.5,0,0],[0.75,0,0],[1,0.25,0],[1,0.5,0],[1,0.75,0],[0.75,1,0],[0.5,1,0],[0.25,1,0],[0,0.75,0],[0,0.5,0],[0,0.25,0]];shape=mxgraph.bpmn.task;whiteSpace=wrap;rectStyle=rounded;size=10;html=1;container=1;expand=0;collapsible=0;taskMarker=abstract;fillColor=#dae8fc;strokeColor=#6c8ebf;" vertex="1" parent="EOJTsvQhWbHzyloepp2X-79">
          <mxGeometry x="1150" y="35" width="129" height="50" as="geometry" />
        </mxCell>
        <mxCell id="EOJTsvQhWbHzyloepp2X-100" value="Avaliação finalizada" style="points=[[0.145,0.145,0],[0.5,0,0],[0.855,0.145,0],[1,0.5,0],[0.855,0.855,0],[0.5,1,0],[0.145,0.855,0],[0,0.5,0]];shape=mxgraph.bpmn.event;html=1;verticalLabelPosition=bottom;labelBackgroundColor=#ffffff;verticalAlign=top;align=center;perimeter=ellipsePerimeter;outlineConnect=0;aspect=fixed;outline=end;symbol=terminate2;fillColor=#f8cecc;strokeColor=#b85450;" vertex="1" parent="EOJTsvQhWbHzyloepp2X-79">
          <mxGeometry x="1340" y="42.5" width="35" height="35" as="geometry" />
        </mxCell>
        <mxCell id="EOJTsvQhWbHzyloepp2X-101" value="Realiza login" style="points=[[0.25,0,0],[0.5,0,0],[0.75,0,0],[1,0.25,0],[1,0.5,0],[1,0.75,0],[0.75,1,0],[0.5,1,0],[0.25,1,0],[0,0.75,0],[0,0.5,0],[0,0.25,0]];shape=mxgraph.bpmn.task;whiteSpace=wrap;rectStyle=rounded;size=10;html=1;container=1;expand=0;collapsible=0;taskMarker=abstract;fillColor=#dae8fc;strokeColor=#6c8ebf;" vertex="1" parent="EOJTsvQhWbHzyloepp2X-79">
          <mxGeometry x="130" y="35" width="97.5" height="50" as="geometry" />
        </mxCell>
        <mxCell id="EOJTsvQhWbHzyloepp2X-102" value="" style="edgeStyle=elbowEdgeStyle;fontSize=12;html=1;endFill=0;startFill=0;endSize=6;startSize=6;dashed=1;dashPattern=1 4;endArrow=openThin;startArrow=none;rounded=0;exitX=0.25;exitY=0;exitDx=0;exitDy=0;exitPerimeter=0;entryX=0.25;entryY=1;entryDx=0;entryDy=0;entryPerimeter=0;elbow=vertical;" edge="1" parent="EOJTsvQhWbHzyloepp2X-1" source="EOJTsvQhWbHzyloepp2X-101" target="EOJTsvQhWbHzyloepp2X-3">
          <mxGeometry width="160" relative="1" as="geometry">
            <mxPoint x="204" y="295" as="sourcePoint" />
            <mxPoint x="188" y="525" as="targetPoint" />
            <Array as="points">
              <mxPoint x="194" y="890" />
            </Array>
          </mxGeometry>
        </mxCell>
        <mxCell id="EOJTsvQhWbHzyloepp2X-103" value="Envia informações" style="edgeLabel;html=1;align=center;verticalAlign=middle;resizable=0;points=[];" vertex="1" connectable="0" parent="EOJTsvQhWbHzyloepp2X-102">
          <mxGeometry x="-0.3005" relative="1" as="geometry">
            <mxPoint x="-14" y="76" as="offset" />
          </mxGeometry>
        </mxCell>
        <mxCell id="EOJTsvQhWbHzyloepp2X-104" value="" style="edgeStyle=elbowEdgeStyle;fontSize=12;html=1;endFill=0;startFill=0;endSize=6;startSize=6;dashed=1;dashPattern=1 4;endArrow=openThin;startArrow=none;rounded=0;entryX=0.25;entryY=1;entryDx=0;entryDy=0;entryPerimeter=0;exitX=0.25;exitY=0;exitDx=0;exitDy=0;exitPerimeter=0;elbow=vertical;" edge="1" parent="EOJTsvQhWbHzyloepp2X-1" source="EOJTsvQhWbHzyloepp2X-88" target="EOJTsvQhWbHzyloepp2X-28">
          <mxGeometry width="160" relative="1" as="geometry">
            <mxPoint x="253" y="965" as="sourcePoint" />
            <mxPoint x="219" y="573" as="targetPoint" />
            <Array as="points">
              <mxPoint x="370" y="910" />
            </Array>
          </mxGeometry>
        </mxCell>
        <mxCell id="EOJTsvQhWbHzyloepp2X-105" value="" style="edgeStyle=elbowEdgeStyle;fontSize=12;html=1;endFill=0;startFill=0;endSize=6;startSize=6;dashed=1;dashPattern=1 4;endArrow=openThin;startArrow=none;rounded=0;entryX=0.5;entryY=0;entryDx=0;entryDy=0;entryPerimeter=0;exitX=0.821;exitY=1.05;exitDx=0;exitDy=0;exitPerimeter=0;elbow=vertical;" edge="1" parent="EOJTsvQhWbHzyloepp2X-1" source="EOJTsvQhWbHzyloepp2X-28" target="EOJTsvQhWbHzyloepp2X-88">
          <mxGeometry width="160" relative="1" as="geometry">
            <mxPoint x="434" y="965" as="sourcePoint" />
            <mxPoint x="324" y="698" as="targetPoint" />
            <Array as="points">
              <mxPoint x="420" y="890" />
            </Array>
          </mxGeometry>
        </mxCell>
        <mxCell id="EOJTsvQhWbHzyloepp2X-106" value="Envia informações" style="edgeLabel;html=1;align=center;verticalAlign=middle;resizable=0;points=[];" vertex="1" connectable="0" parent="EOJTsvQhWbHzyloepp2X-1">
          <mxGeometry x="309.9975000000001" y="899.9968965517241" as="geometry" />
        </mxCell>
        <mxCell id="EOJTsvQhWbHzyloepp2X-107" value="Transportadora" style="swimlane;html=1;startSize=20;fontStyle=0;collapsible=0;horizontal=0;swimlaneLine=1;swimlaneFillColor=#ffffff;strokeWidth=2;whiteSpace=wrap;" vertex="1" parent="EOJTsvQhWbHzyloepp2X-1">
          <mxGeometry x="40" y="1080" width="1440" height="120" as="geometry" />
        </mxCell>
        <mxCell id="EOJTsvQhWbHzyloepp2X-108" style="edgeStyle=orthogonalEdgeStyle;rounded=0;orthogonalLoop=1;jettySize=auto;html=1;entryX=0;entryY=0.5;entryDx=0;entryDy=0;entryPerimeter=0;" edge="1" parent="EOJTsvQhWbHzyloepp2X-107" source="EOJTsvQhWbHzyloepp2X-109" target="EOJTsvQhWbHzyloepp2X-111">
          <mxGeometry relative="1" as="geometry" />
        </mxCell>
        <mxCell id="EOJTsvQhWbHzyloepp2X-109" value="" style="points=[[0.145,0.145,0],[0.5,0,0],[0.855,0.145,0],[1,0.5,0],[0.855,0.855,0],[0.5,1,0],[0.145,0.855,0],[0,0.5,0]];shape=mxgraph.bpmn.event;html=1;verticalLabelPosition=bottom;labelBackgroundColor=#ffffff;verticalAlign=top;align=center;perimeter=ellipsePerimeter;outlineConnect=0;aspect=fixed;outline=standard;symbol=general;fillColor=#d5e8d4;strokeColor=#82b366;" vertex="1" parent="EOJTsvQhWbHzyloepp2X-107">
          <mxGeometry x="60" y="42.5" width="35" height="35" as="geometry" />
        </mxCell>
        <mxCell id="EOJTsvQhWbHzyloepp2X-110" style="edgeStyle=orthogonalEdgeStyle;rounded=0;orthogonalLoop=1;jettySize=auto;html=1;entryX=0;entryY=0.5;entryDx=0;entryDy=0;entryPerimeter=0;" edge="1" parent="EOJTsvQhWbHzyloepp2X-107" source="EOJTsvQhWbHzyloepp2X-111" target="EOJTsvQhWbHzyloepp2X-116">
          <mxGeometry relative="1" as="geometry" />
        </mxCell>
        <mxCell id="EOJTsvQhWbHzyloepp2X-111" value="Realiza login" style="points=[[0.25,0,0],[0.5,0,0],[0.75,0,0],[1,0.25,0],[1,0.5,0],[1,0.75,0],[0.75,1,0],[0.5,1,0],[0.25,1,0],[0,0.75,0],[0,0.5,0],[0,0.25,0]];shape=mxgraph.bpmn.task;whiteSpace=wrap;rectStyle=rounded;size=10;html=1;container=1;expand=0;collapsible=0;taskMarker=abstract;fillColor=#dae8fc;strokeColor=#6c8ebf;" vertex="1" parent="EOJTsvQhWbHzyloepp2X-107">
          <mxGeometry x="130" y="35" width="97.5" height="50" as="geometry" />
        </mxCell>
        <mxCell id="EOJTsvQhWbHzyloepp2X-112" style="edgeStyle=orthogonalEdgeStyle;rounded=0;orthogonalLoop=1;jettySize=auto;html=1;exitX=1;exitY=0.5;exitDx=0;exitDy=0;exitPerimeter=0;entryX=0;entryY=0.5;entryDx=0;entryDy=0;entryPerimeter=0;" edge="1" parent="EOJTsvQhWbHzyloepp2X-107" source="EOJTsvQhWbHzyloepp2X-116" target="EOJTsvQhWbHzyloepp2X-117">
          <mxGeometry relative="1" as="geometry" />
        </mxCell>
        <mxCell id="EOJTsvQhWbHzyloepp2X-113" value="Não" style="edgeLabel;html=1;align=center;verticalAlign=middle;resizable=0;points=[];" vertex="1" connectable="0" parent="EOJTsvQhWbHzyloepp2X-112">
          <mxGeometry x="0.1667" y="2" relative="1" as="geometry">
            <mxPoint x="-11" y="2" as="offset" />
          </mxGeometry>
        </mxCell>
        <mxCell id="EOJTsvQhWbHzyloepp2X-114" style="edgeStyle=orthogonalEdgeStyle;rounded=0;orthogonalLoop=1;jettySize=auto;html=1;entryX=0.5;entryY=1;entryDx=0;entryDy=0;entryPerimeter=0;" edge="1" parent="EOJTsvQhWbHzyloepp2X-107" source="EOJTsvQhWbHzyloepp2X-116" target="EOJTsvQhWbHzyloepp2X-119">
          <mxGeometry relative="1" as="geometry">
            <Array as="points">
              <mxPoint x="285" y="110" />
              <mxPoint x="565" y="110" />
            </Array>
          </mxGeometry>
        </mxCell>
        <mxCell id="EOJTsvQhWbHzyloepp2X-115" value="Sim" style="edgeLabel;html=1;align=center;verticalAlign=middle;resizable=0;points=[];" vertex="1" connectable="0" parent="EOJTsvQhWbHzyloepp2X-114">
          <mxGeometry x="0.1229" relative="1" as="geometry">
            <mxPoint as="offset" />
          </mxGeometry>
        </mxCell>
        <mxCell id="EOJTsvQhWbHzyloepp2X-116" value="Possui cadastro ?" style="points=[[0.25,0.25,0],[0.5,0,0],[0.75,0.25,0],[1,0.5,0],[0.75,0.75,0],[0.5,1,0],[0.25,0.75,0],[0,0.5,0]];shape=mxgraph.bpmn.gateway2;html=1;verticalLabelPosition=bottom;labelBackgroundColor=#ffffff;verticalAlign=top;align=center;perimeter=rhombusPerimeter;outlineConnect=0;outline=none;symbol=none;fillColor=#fff2cc;strokeColor=#d6b656;" vertex="1" parent="EOJTsvQhWbHzyloepp2X-107">
          <mxGeometry x="270" y="43.75" width="30" height="32.5" as="geometry" />
        </mxCell>
        <mxCell id="EOJTsvQhWbHzyloepp2X-117" value="Envia cadastro com informações da empresa" style="points=[[0.25,0,0],[0.5,0,0],[0.75,0,0],[1,0.25,0],[1,0.5,0],[1,0.75,0],[0.75,1,0],[0.5,1,0],[0.25,1,0],[0,0.75,0],[0,0.5,0],[0,0.25,0]];shape=mxgraph.bpmn.task;whiteSpace=wrap;rectStyle=rounded;size=10;html=1;container=1;expand=0;collapsible=0;taskMarker=abstract;fillColor=#dae8fc;strokeColor=#6c8ebf;" vertex="1" parent="EOJTsvQhWbHzyloepp2X-107">
          <mxGeometry x="360" y="35" width="97.5" height="50" as="geometry" />
        </mxCell>
        <mxCell id="EOJTsvQhWbHzyloepp2X-118" value="" style="edgeStyle=orthogonalEdgeStyle;rounded=0;orthogonalLoop=1;jettySize=auto;html=1;" edge="1" parent="EOJTsvQhWbHzyloepp2X-107" source="EOJTsvQhWbHzyloepp2X-119" target="EOJTsvQhWbHzyloepp2X-122">
          <mxGeometry relative="1" as="geometry" />
        </mxCell>
        <mxCell id="EOJTsvQhWbHzyloepp2X-119" value="Lista pedidos de avaliação" style="points=[[0.25,0,0],[0.5,0,0],[0.75,0,0],[1,0.25,0],[1,0.5,0],[1,0.75,0],[0.75,1,0],[0.5,1,0],[0.25,1,0],[0,0.75,0],[0,0.5,0],[0,0.25,0]];shape=mxgraph.bpmn.task;whiteSpace=wrap;rectStyle=rounded;size=10;html=1;container=1;expand=0;collapsible=0;taskMarker=abstract;fillColor=#dae8fc;strokeColor=#6c8ebf;" vertex="1" parent="EOJTsvQhWbHzyloepp2X-107">
          <mxGeometry x="510" y="35" width="110" height="50" as="geometry" />
        </mxCell>
        <mxCell id="EOJTsvQhWbHzyloepp2X-120" style="edgeStyle=orthogonalEdgeStyle;rounded=0;orthogonalLoop=1;jettySize=auto;html=1;" edge="1" parent="EOJTsvQhWbHzyloepp2X-107" source="EOJTsvQhWbHzyloepp2X-117" target="EOJTsvQhWbHzyloepp2X-119">
          <mxGeometry relative="1" as="geometry">
            <mxPoint x="640" y="59.999999999999886" as="targetPoint" />
          </mxGeometry>
        </mxCell>
        <mxCell id="EOJTsvQhWbHzyloepp2X-121" value="" style="edgeStyle=orthogonalEdgeStyle;rounded=0;orthogonalLoop=1;jettySize=auto;html=1;entryX=0;entryY=0.5;entryDx=0;entryDy=0;entryPerimeter=0;" edge="1" parent="EOJTsvQhWbHzyloepp2X-107" source="EOJTsvQhWbHzyloepp2X-122" target="EOJTsvQhWbHzyloepp2X-124">
          <mxGeometry relative="1" as="geometry">
            <mxPoint x="860" y="60" as="targetPoint" />
          </mxGeometry>
        </mxCell>
        <mxCell id="EOJTsvQhWbHzyloepp2X-122" value="Aceita avaliar um produto" style="points=[[0.25,0,0],[0.5,0,0],[0.75,0,0],[1,0.25,0],[1,0.5,0],[1,0.75,0],[0.75,1,0],[0.5,1,0],[0.25,1,0],[0,0.75,0],[0,0.5,0],[0,0.25,0]];shape=mxgraph.bpmn.task;whiteSpace=wrap;rectStyle=rounded;size=10;html=1;container=1;expand=0;collapsible=0;taskMarker=abstract;fillColor=#dae8fc;strokeColor=#6c8ebf;" vertex="1" parent="EOJTsvQhWbHzyloepp2X-107">
          <mxGeometry x="670" y="35" width="120" height="50" as="geometry" />
        </mxCell>
        <mxCell id="EOJTsvQhWbHzyloepp2X-123" style="edgeStyle=orthogonalEdgeStyle;rounded=0;orthogonalLoop=1;jettySize=auto;html=1;entryX=0;entryY=0.5;entryDx=0;entryDy=0;entryPerimeter=0;" edge="1" parent="EOJTsvQhWbHzyloepp2X-107" source="EOJTsvQhWbHzyloepp2X-124" target="EOJTsvQhWbHzyloepp2X-126">
          <mxGeometry relative="1" as="geometry" />
        </mxCell>
        <mxCell id="EOJTsvQhWbHzyloepp2X-124" value="Aguarda recebimento do produto" style="points=[[0.145,0.145,0],[0.5,0,0],[0.855,0.145,0],[1,0.5,0],[0.855,0.855,0],[0.5,1,0],[0.145,0.855,0],[0,0.5,0]];shape=mxgraph.bpmn.event;html=1;verticalLabelPosition=bottom;labelBackgroundColor=#ffffff;verticalAlign=top;align=center;perimeter=ellipsePerimeter;outlineConnect=0;aspect=fixed;outline=throwing;symbol=general;fillColor=#fff2cc;strokeColor=#d6b656;" vertex="1" parent="EOJTsvQhWbHzyloepp2X-107">
          <mxGeometry x="880" y="43.75" width="32.5" height="32.5" as="geometry" />
        </mxCell>
        <mxCell id="EOJTsvQhWbHzyloepp2X-125" style="edgeStyle=orthogonalEdgeStyle;rounded=0;orthogonalLoop=1;jettySize=auto;html=1;entryX=0;entryY=0.5;entryDx=0;entryDy=0;entryPerimeter=0;" edge="1" parent="EOJTsvQhWbHzyloepp2X-107" source="EOJTsvQhWbHzyloepp2X-126" target="EOJTsvQhWbHzyloepp2X-128">
          <mxGeometry relative="1" as="geometry" />
        </mxCell>
        <mxCell id="EOJTsvQhWbHzyloepp2X-126" value="Realiza avaliação do produto" style="points=[[0.25,0,0],[0.5,0,0],[0.75,0,0],[1,0.25,0],[1,0.5,0],[1,0.75,0],[0.75,1,0],[0.5,1,0],[0.25,1,0],[0,0.75,0],[0,0.5,0],[0,0.25,0]];shape=mxgraph.bpmn.task;whiteSpace=wrap;rectStyle=rounded;size=10;html=1;container=1;expand=0;collapsible=0;taskMarker=abstract;fillColor=#dae8fc;strokeColor=#6c8ebf;" vertex="1" parent="EOJTsvQhWbHzyloepp2X-107">
          <mxGeometry x="990" y="35" width="120" height="50" as="geometry" />
        </mxCell>
        <mxCell id="EOJTsvQhWbHzyloepp2X-127" style="edgeStyle=orthogonalEdgeStyle;rounded=0;orthogonalLoop=1;jettySize=auto;html=1;entryX=0;entryY=0.5;entryDx=0;entryDy=0;entryPerimeter=0;" edge="1" parent="EOJTsvQhWbHzyloepp2X-107" source="EOJTsvQhWbHzyloepp2X-128" target="EOJTsvQhWbHzyloepp2X-129">
          <mxGeometry relative="1" as="geometry" />
        </mxCell>
        <mxCell id="EOJTsvQhWbHzyloepp2X-128" value="Posta produto de volta para o vendedor" style="points=[[0.25,0,0],[0.5,0,0],[0.75,0,0],[1,0.25,0],[1,0.5,0],[1,0.75,0],[0.75,1,0],[0.5,1,0],[0.25,1,0],[0,0.75,0],[0,0.5,0],[0,0.25,0]];shape=mxgraph.bpmn.task;whiteSpace=wrap;rectStyle=rounded;size=10;html=1;container=1;expand=0;collapsible=0;taskMarker=abstract;fillColor=#dae8fc;strokeColor=#6c8ebf;" vertex="1" parent="EOJTsvQhWbHzyloepp2X-107">
          <mxGeometry x="1150" y="35" width="129" height="50" as="geometry" />
        </mxCell>
        <mxCell id="EOJTsvQhWbHzyloepp2X-129" value="Avaliação finalizada" style="points=[[0.145,0.145,0],[0.5,0,0],[0.855,0.145,0],[1,0.5,0],[0.855,0.855,0],[0.5,1,0],[0.145,0.855,0],[0,0.5,0]];shape=mxgraph.bpmn.event;html=1;verticalLabelPosition=bottom;labelBackgroundColor=#ffffff;verticalAlign=top;align=center;perimeter=ellipsePerimeter;outlineConnect=0;aspect=fixed;outline=end;symbol=terminate2;fillColor=#f8cecc;strokeColor=#b85450;" vertex="1" parent="EOJTsvQhWbHzyloepp2X-107">
          <mxGeometry x="1340" y="42.5" width="35" height="35" as="geometry" />
        </mxCell>
        <mxCell id="EOJTsvQhWbHzyloepp2X-130" value="" style="edgeStyle=elbowEdgeStyle;fontSize=12;html=1;endFill=0;startFill=0;endSize=6;startSize=6;dashed=1;dashPattern=1 4;endArrow=openThin;startArrow=none;rounded=0;exitX=0.161;exitY=-0.03;exitDx=0;exitDy=0;exitPerimeter=0;entryX=0.25;entryY=1;entryDx=0;entryDy=0;entryPerimeter=0;elbow=vertical;" edge="1" parent="EOJTsvQhWbHzyloepp2X-1" source="EOJTsvQhWbHzyloepp2X-111">
          <mxGeometry width="160" relative="1" as="geometry">
            <mxPoint x="204.375" y="1115" as="sourcePoint" />
            <mxPoint x="194.3750000000001" y="562.5" as="targetPoint" />
            <Array as="points">
              <mxPoint x="160" y="1050" />
            </Array>
          </mxGeometry>
        </mxCell>
        <mxCell id="EOJTsvQhWbHzyloepp2X-131" value="Envia informações" style="edgeLabel;html=1;align=center;verticalAlign=middle;resizable=0;points=[];" vertex="1" connectable="0" parent="EOJTsvQhWbHzyloepp2X-130">
          <mxGeometry x="-0.3005" relative="1" as="geometry">
            <mxPoint x="-4" y="142" as="offset" />
          </mxGeometry>
        </mxCell>
        <mxCell id="EOJTsvQhWbHzyloepp2X-132" value="" style="edgeStyle=elbowEdgeStyle;fontSize=12;html=1;endFill=0;startFill=0;endSize=6;startSize=6;dashed=1;dashPattern=1 4;endArrow=openThin;startArrow=none;rounded=0;entryX=0.5;entryY=0;entryDx=0;entryDy=0;entryPerimeter=0;exitX=0.5;exitY=1;exitDx=0;exitDy=0;exitPerimeter=0;elbow=vertical;" edge="1" parent="EOJTsvQhWbHzyloepp2X-1" source="EOJTsvQhWbHzyloepp2X-3" target="EOJTsvQhWbHzyloepp2X-101">
          <mxGeometry width="160" relative="1" as="geometry">
            <mxPoint x="250" y="938" as="sourcePoint" />
            <mxPoint x="260" y="710" as="targetPoint" />
            <Array as="points">
              <mxPoint x="243" y="890" />
            </Array>
          </mxGeometry>
        </mxCell>
        <mxCell id="EOJTsvQhWbHzyloepp2X-133" value="" style="edgeStyle=elbowEdgeStyle;fontSize=12;html=1;endFill=0;startFill=0;endSize=6;startSize=6;dashed=1;dashPattern=1 4;endArrow=openThin;startArrow=none;rounded=0;entryX=0.75;entryY=0;entryDx=0;entryDy=0;entryPerimeter=0;exitX=0.664;exitY=1.029;exitDx=0;exitDy=0;exitPerimeter=0;elbow=vertical;" edge="1" parent="EOJTsvQhWbHzyloepp2X-1" source="EOJTsvQhWbHzyloepp2X-3" target="EOJTsvQhWbHzyloepp2X-111">
          <mxGeometry width="160" relative="1" as="geometry">
            <mxPoint x="219" y="573" as="sourcePoint" />
            <mxPoint x="229" y="965" as="targetPoint" />
            <Array as="points">
              <mxPoint x="253" y="900" />
            </Array>
          </mxGeometry>
        </mxCell>
      </root>
    </mxGraphModel>
  </diagram>
</mxfile>
